<svg id="Layer_1" data-name="Layer 1" xmlns="http://www.w3.org/2000/svg" viewBox="0 0 451.096 487.326"><defs><style>.cls-1{opacity:0.15;}.cls-2{fill:#381200;}.cls-3,.cls-4{fill:#f0eff3;}.cls-3{opacity:0.5;}</style></defs><title>Glasses</title><path class="cls-1" d="M310.564,621.048c21.268-33.819,49.58-58.921,75.227-71.906a89.214,89.214,0,0,1,18.512-7.068L297.521,665.211C296.851,655.253,298.69,639.932,310.564,621.048ZM306.5,688.98l28.213-31.749c-3.772,9.273-6.245,32.9-7.143,57.094A123.656,123.656,0,0,1,306.5,688.98Zm164.888-116.74c27.49,40.281,35.594,86.293,7.972,125.566-20.088,28.512-66.162,62.064-109.545,43.4a159.989,159.989,0,0,1-16.62-8.281c-2.486-33-5.419-80.755,5.4-102.565,12.28-24.619,57.566-76.112,69.577-89.588C442.843,543.2,457.723,552.244,471.386,572.239ZM616.153,340.718A123.192,123.192,0,0,1,644.306,359.2c-24.3,3.723-48.038,9.057-56.987,13.931ZM486.5,435.848c9.932-26.986,31.55-58.024,62.657-83.161,17.346-13.966,32.428-17.624,42.353-18.087L481.695,454.982A90.973,90.973,0,0,1,486.5,435.848Z" transform="translate(-240.49 -293.674)"/><path class="cls-2" d="M568.888,326.979,456.373,450.251s-1.3,16.5,1.535,23.982c0,0,54.251-62.2,80.838-79.608,26.622-17.388,100.03-16.635,126.3-18.558,26.249-1.874,35.526-22.788,16.392-26.465-19.5-3.72-100.444,8.072-118.82,18.161l30.856-34.7S576.665,326.033,568.888,326.979Z" transform="translate(-240.49 -293.674)"/><path class="cls-2" d="M268.548,664.763,382.511,533.342s16.22-3.2,24-1.282c0,0-58.413,64.428-72.576,92.905s-4.83,101.306-3.66,127.566c1.182,26.3-18.48,37.979-24.362,19.385-6-18.891-3.723-100.685,4.119-120.073L277.455,688.5S268.476,672.607,268.548,664.763Z" transform="translate(-240.49 -293.674)"/><path class="cls-2" d="M552.083,314.654c-24.746,14.955-53.378,35.275-77.033,68.77-23.611,33.552-35.482,61.713-31.726,86.189,0,0-9.43-1.785-27.967,17.744,0,0-1.143,1.143-1.624,1.734-.558.564-1.547,1.807-1.547,1.807-17.22,20.706-14.337,29.841-14.337,29.841-24.739-.861-51.331,14.221-81.867,41.609-30.532,27.43-47.331,58.244-59.313,84.54-11.939,26.33-16.179,41.942-16.179,41.942l19.5,17.334a122.79,122.79,0,0,1,11.711-3.94c6.39-1.927,32.869,23.939,32.869,23.939,39.089,31.8,87.33,50.952,148.458-13.464,64.965-68.4,11.654-140.4,2.244-152.931-6.763-8.93-20.619-24.619-37.021-33.135h0c-.614-10.633,4.695-18.655,8.374-22.873l3.194-3.588c3.752-4.141,11.069-10.367,21.735-10.989,10.351,15.314,27.585,27.21,37.247,32.888,13.5,7.879,91.26,52.385,151.59-20.073,56.839-68.275,32.189-113.971-3.969-149.053,0,0-28.781-23.244-27.666-29.837,1.57-8.733,2.563-12.1,2.563-12.1l-19.47-17.331S576.825,299.68,552.083,314.654ZM446.7,566.848c27.467,40.265,35.58,86.312,7.96,125.569-20.05,28.5-66.128,62.045-109.52,43.436-43.38-18.632-61.8-47.36-69.577-63.667,0,0-10.969-22.638,10.332-56.526,21.293-33.838,49.6-58.944,75.229-71.921C386.76,530.711,419.23,526.583,446.7,566.848ZM650.774,392.141c23.588,40.88-4.366,90.569-30.322,113.813-35.764,32.065-82.435,29.373-125.626,6.794-43.239-22.572-42.9-55.329-32.994-82.28,9.907-27,31.519-58.055,62.661-83.156,31.142-25.082,54.89-16.913,54.89-16.913C596.509,336.26,627.206,351.219,650.774,392.141Z" transform="translate(-240.49 -293.674)"/><path class="cls-3" d="M275.693,672.344s-10.927-22.657,10.353-56.53c21.3-33.853,49.633-58.94,75.243-71.937,25.648-12.977,58.117-17.137,85.6,23.124,27.469,40.281,35.576,86.3,7.951,125.543-20.1,28.531-66.145,62.045-109.508,43.463C301.955,717.368,283.5,688.609,275.693,672.344Z" transform="translate(-240.49 -293.674)"/><path class="cls-4" d="M334.187,709.358s-53.9-54.4-15.185-112.518c0,0-42.032,37.075-35.072,67.816C290.888,695.441,334.187,709.358,334.187,709.358Z" transform="translate(-240.49 -293.674)"/><path class="cls-3" d="M579.384,330.4s-23.748-8.169-54.89,16.913c-31.142,25.1-52.754,56.155-62.661,83.156-9.905,26.952-10.245,59.708,32.994,82.28,43.191,22.579,89.862,25.271,125.626-6.794,25.955-23.244,53.909-72.933,30.322-113.813C627.206,351.219,596.509,336.26,579.384,330.4Z" transform="translate(-240.49 -293.674)"/><path class="cls-4" d="M518.026,502.563s-53.9-54.409-15.183-112.546c0,0-42,37.11-35.059,67.877C474.735,488.646,518.026,502.563,518.026,502.563Z" transform="translate(-240.49 -293.674)"/></svg>