<svg xmlns="http://www.w3.org/2000/svg" viewBox="0 0 300.131 457.931"><defs><style>.cls-1{isolation:isolate;}.cls-2{fill:#f5f5f5;}.cls-10,.cls-2,.cls-3,.cls-4,.cls-5,.cls-6,.cls-7,.cls-9{fill-rule:evenodd;}.cls-3{fill:#b3b3b3;}.cls-4{fill:#151f2d;}.cls-5{fill:#3b385b;}.cls-6{fill:#fff;}.cls-7,.cls-8{fill:#4c4a5c;}.cls-9{fill:#ccc;}.cls-10{fill:#555b79;opacity:0.5;mix-blend-mode:multiply;}</style></defs><title>Laptop</title><g class="cls-1"><g id="Layer_1" data-name="Layer 1"><path class="cls-2" d="M861.83,598.33,580,626.23V292.66l200.01-19.8,1.63-.16,24.29-2.4,1.63-.16L829.14,268a11.157,11.157,0,0,1,12.17,9.98l30.51,308.18A11.164,11.164,0,0,1,861.83,598.33Z" transform="translate(-580 -168.299)"/><path class="cls-3" d="M780.012,272.859l27.548-2.726,1.558,15.735a2.61,2.61,0,0,1-2.333,2.844l-22.37,2.214a2.608,2.608,0,0,1-2.845-2.331Z" transform="translate(-580 -168.299)"/><path class="cls-4" d="M878.36,182.4l-40,78.98-32.99,3.27-24.29,2.4L580,286.96V196.67l284.7-28.18C878.31,167.14,883.08,173.08,878.36,182.4Z" transform="translate(-580 -168.299)"/><polygon class="cls-5" points="270.13 24.501 241.31 84.671 0 108.561 0 51.231 270.12 24.501 270.13 24.501"/><path class="cls-6" d="M871.87,172.33a2.233,2.233,0,0,1-2.01,2.22L580,203.24v-4.48l289.43-28.65a2.235,2.235,0,0,1,2.43,2A1.619,1.619,0,0,1,871.87,172.33Z" transform="translate(-580 -168.299)"/><path class="cls-6" d="M782.512,258.2l19.72-1.952a2.3,2.3,0,0,1,2.51,2.056l2.307,23.307a2.3,2.3,0,0,1-2.057,2.51l-19.72,1.952a2.3,2.3,0,0,1-2.51-2.058L780.454,260.7A2.3,2.3,0,0,1,782.512,258.2Z" transform="translate(-580 -168.299)"/><path class="cls-7" d="M796.184,315.715l15.343-1.518a3.194,3.194,0,0,1,3.483,2.856l1.13,11.4a3.2,3.2,0,0,1-2.857,3.484l-15.343,1.519a3.2,3.2,0,0,1-3.488-2.856l-1.129-11.4A3.2,3.2,0,0,1,796.184,315.715Z" transform="translate(-580 -168.299)"/><path class="cls-7" d="M799.04,337.4l13.939-1.38a3.9,3.9,0,0,1,4.256,3.49l1.53,15.448a3.9,3.9,0,0,1-3.49,4.256l-13.937,1.38a3.906,3.906,0,0,1-4.26-3.489l-1.529-15.448A3.9,3.9,0,0,1,799.04,337.4Z" transform="translate(-580 -168.299)"/><path class="cls-7" d="M801.733,364.607l13.937-1.38a3.905,3.905,0,0,1,4.257,3.49l1.529,15.448a3.9,3.9,0,0,1-3.489,4.258l-13.939,1.38a3.906,3.906,0,0,1-4.258-3.491l-1.53-15.448A3.908,3.908,0,0,1,801.733,364.607Z" transform="translate(-580 -168.299)"/><path class="cls-7" d="M804.425,391.813l13.939-1.38a3.9,3.9,0,0,1,4.256,3.491l1.53,15.448a3.905,3.905,0,0,1-3.491,4.256l-13.937,1.38a3.908,3.908,0,0,1-4.26-3.49l-1.528-15.447A3.908,3.908,0,0,1,804.425,391.813Z" transform="translate(-580 -168.299)"/><path class="cls-7" d="M807.119,419.017l13.937-1.38a3.9,3.9,0,0,1,4.257,3.491l1.528,15.448a3.9,3.9,0,0,1-3.489,4.256l-13.937,1.38a3.906,3.906,0,0,1-4.26-3.49l-1.529-15.447A3.906,3.906,0,0,1,807.119,419.017Z" transform="translate(-580 -168.299)"/><path class="cls-7" d="M809.812,446.224l13.937-1.38a3.9,3.9,0,0,1,4.257,3.491l1.529,15.447a3.905,3.905,0,0,1-3.491,4.257l-13.937,1.38a3.906,3.906,0,0,1-4.258-3.49l-1.53-15.447A3.908,3.908,0,0,1,809.812,446.224Z" transform="translate(-580 -168.299)"/><path class="cls-7" d="M769.074,318.4l15.348-1.519a3.2,3.2,0,0,1,3.483,2.856l1.129,11.4a3.194,3.194,0,0,1-2.855,3.484l-15.348,1.519a3.2,3.2,0,0,1-3.483-2.856l-1.129-11.4A3.2,3.2,0,0,1,769.074,318.4Z" transform="translate(-580 -168.299)"/><path class="cls-7" d="M747.168,342.537l38.431-3.8a4.175,4.175,0,0,1,4.556,3.733l1.476,14.907a4.176,4.176,0,0,1-3.736,4.554l-38.433,3.8A4.176,4.176,0,0,1,744.906,362l-1.475-14.907A4.176,4.176,0,0,1,747.168,342.537Z" transform="translate(-580 -168.299)"/><path class="cls-7" d="M767.5,368l20.79-2.058a4.178,4.178,0,0,1,4.556,3.733l1.476,14.907a4.179,4.179,0,0,1-3.737,4.555L769.8,391.19a4.177,4.177,0,0,1-4.556-3.734l-1.476-14.907A4.178,4.178,0,0,1,767.5,368Z" transform="translate(-580 -168.299)"/><path class="cls-7" d="M749.493,397.25l41.491-4.107a4.181,4.181,0,0,1,4.558,3.734l1.475,14.907a4.179,4.179,0,0,1-3.736,4.554l-41.491,4.107a4.177,4.177,0,0,1-4.553-3.734L745.76,401.8A4.178,4.178,0,0,1,749.493,397.25Z" transform="translate(-580 -168.299)"/><path class="cls-7" d="M780.01,421.7l13.937-1.38a3.906,3.906,0,0,1,4.26,3.491l1.529,15.447a3.9,3.9,0,0,1-3.492,4.257l-13.939,1.38a3.9,3.9,0,0,1-4.255-3.49l-1.53-15.448A3.906,3.906,0,0,1,780.01,421.7Z" transform="translate(-580 -168.299)"/><path class="cls-7" d="M782.7,448.907l13.939-1.38a3.9,3.9,0,0,1,4.258,3.491l1.53,15.448a3.906,3.906,0,0,1-3.494,4.257L785,472.1a3.905,3.905,0,0,1-4.257-3.49l-1.529-15.448A3.9,3.9,0,0,1,782.7,448.907Z" transform="translate(-580 -168.299)"/><path class="cls-7" d="M744.038,320.877l13.276-1.315a3.2,3.2,0,0,1,3.483,2.856l1.128,11.4a3.2,3.2,0,0,1-2.855,3.484l-13.276,1.314a3.2,3.2,0,0,1-3.483-2.856l-1.128-11.4A3.193,3.193,0,0,1,744.038,320.877Z" transform="translate(-580 -168.299)"/><path class="cls-7" d="M718.591,323.4l13.276-1.314a3.2,3.2,0,0,1,3.483,2.856l1.128,11.4a3.193,3.193,0,0,1-2.856,3.483l-13.276,1.314a3.194,3.194,0,0,1-3.483-2.855l-1.129-11.4A3.2,3.2,0,0,1,718.591,323.4Z" transform="translate(-580 -168.299)"/><rect class="cls-8" x="690.805" y="325.214" width="19.711" height="17.831" rx="3.185" ry="3.185" transform="matrix(0.995, -0.098, 0.098, 0.995, -609.503, -97.663)"/><rect class="cls-8" x="665.359" y="327.732" width="19.71" height="17.831" rx="3.185" ry="3.185" transform="translate(-609.873 -100.161) rotate(-5.652)"/><path class="cls-8" d="M643.1,330.251h13.34a3.185,3.185,0,0,1,3.185,3.185V344.9a3.186,3.186,0,0,1-3.186,3.186H643.1a3.185,3.185,0,0,1-3.185-3.185V333.437a3.186,3.186,0,0,1,3.186-3.186Z" transform="translate(-610.245 -102.655) rotate(-5.652)"/><rect class="cls-8" x="614.465" y="332.77" width="19.711" height="17.831" rx="3.186" ry="3.186" transform="translate(-610.633 -105.112) rotate(-5.655)"/><path class="cls-8" d="M592.2,335.288h13.34a3.186,3.186,0,0,1,3.186,3.186v11.46a3.186,3.186,0,0,1-3.186,3.186H592.2a3.186,3.186,0,0,1-3.186-3.186V338.475A3.187,3.187,0,0,1,592.2,335.288Z" transform="translate(-610.992 -107.636) rotate(-5.653)"/><path class="cls-7" d="M583.8,351.45a3.2,3.2,0,0,1-2.86,3.49l-.94.09V337.21a3.207,3.207,0,0,1,2.67,2.84Z" transform="translate(-580 -168.299)"/><path class="cls-7" d="M719.71,345.255l13.676-1.354a3.833,3.833,0,0,1,4.18,3.426l1.543,15.59a3.832,3.832,0,0,1-3.426,4.18l-13.678,1.354a3.834,3.834,0,0,1-4.18-3.427l-1.543-15.59A3.834,3.834,0,0,1,719.71,345.255Z" transform="translate(-580 -168.299)"/><path class="cls-7" d="M692.1,347.987l13.676-1.354a3.832,3.832,0,0,1,4.179,3.426l1.543,15.59a3.833,3.833,0,0,1-3.426,4.179L694.4,371.182a3.832,3.832,0,0,1-4.179-3.427l-1.543-15.589A3.832,3.832,0,0,1,692.1,347.987Z" transform="translate(-580 -168.299)"/><path class="cls-8" d="M665.607,349.986h13.745a3.822,3.822,0,0,1,3.822,3.822v15.664a3.822,3.822,0,0,1-3.822,3.822H665.608a3.821,3.821,0,0,1-3.821-3.821V353.807A3.82,3.82,0,0,1,665.607,349.986Z" transform="translate(-612.336 -100.337) rotate(-5.65)"/><path class="cls-8" d="M638,352.719h13.746a3.821,3.821,0,0,1,3.821,3.821v15.666a3.822,3.822,0,0,1-3.822,3.822H638a3.821,3.821,0,0,1-3.821-3.821V356.539A3.82,3.82,0,0,1,638,352.719Z" transform="translate(-612.759 -102.998) rotate(-5.654)"/><path class="cls-8" d="M610.389,355.452h13.746a3.821,3.821,0,0,1,3.821,3.821v15.667a3.821,3.821,0,0,1-3.821,3.821H610.389a3.819,3.819,0,0,1-3.819-3.819V359.271a3.819,3.819,0,0,1,3.819-3.819Z" transform="translate(-613.161 -105.708) rotate(-5.653)"/><path class="cls-7" d="M601.07,376.58a3.845,3.845,0,0,1-3.43,4.18l-13.68,1.35a3.829,3.829,0,0,1-3.96-2.48V359.5a3.708,3.708,0,0,1,1.67-.58l13.68-1.36a3.83,3.83,0,0,1,4.17,3.43Z" transform="translate(-580 -168.299)"/><path class="cls-7" d="M588.39,409.15l-8.39.83V386.55l6.09-.6a4.1,4.1,0,0,1,4.47,3.67l1.49,15.05A4.107,4.107,0,0,1,588.39,409.15Z" transform="translate(-580 -168.299)"/><path class="cls-8" d="M600.679,383.836H615.4a4.092,4.092,0,0,1,4.092,4.092v15.124a4.092,4.092,0,0,1-4.092,4.092H600.679a4.091,4.091,0,0,1-4.091-4.091V387.927a4.091,4.091,0,0,1,4.091-4.091Z" transform="translate(-616.006 -106.471) rotate(-5.654)"/><path class="cls-8" d="M628.806,381.052h14.721a4.092,4.092,0,0,1,4.092,4.092v15.124a4.091,4.091,0,0,1-4.091,4.091H628.806a4.092,4.092,0,0,1-4.092-4.092V385.144A4.092,4.092,0,0,1,628.806,381.052Z" transform="translate(-615.595 -103.713) rotate(-5.654)"/><path class="cls-8" d="M656.932,378.268h14.721a4.091,4.091,0,0,1,4.091,4.091v15.126a4.092,4.092,0,0,1-4.092,4.092H656.935a4.092,4.092,0,0,1-4.092-4.092V382.358a4.09,4.09,0,0,1,4.09-4.09Z" transform="translate(-615.167 -100.991) rotate(-5.651)"/><path class="cls-8" d="M685.059,375.484h14.721a4.092,4.092,0,0,1,4.092,4.092V394.7a4.094,4.094,0,0,1-4.094,4.094H685.06a4.092,4.092,0,0,1-4.092-4.092V379.575A4.092,4.092,0,0,1,685.059,375.484Z" transform="translate(-614.761 -98.225) rotate(-5.652)"/><path class="cls-8" d="M713.186,372.7h14.722a4.09,4.09,0,0,1,4.09,4.09v15.126a4.092,4.092,0,0,1-4.092,4.092H713.188a4.092,4.092,0,0,1-4.092-4.092V376.79a4.09,4.09,0,0,1,4.09-4.09Z" transform="translate(-614.346 -95.479) rotate(-5.651)"/><path class="cls-7" d="M740.2,370.7l14.647-1.45a4.1,4.1,0,0,1,4.476,3.669l1.49,15.051a4.1,4.1,0,0,1-3.671,4.475l-14.647,1.45a4.1,4.1,0,0,1-4.476-3.669l-1.491-15.05A4.106,4.106,0,0,1,740.2,370.7Z" transform="translate(-580 -168.299)"/><path class="cls-7" d="M602.57,431.1a4.109,4.109,0,0,1-3.67,4.48l-14.65,1.45a4.077,4.077,0,0,1-4.25-2.72V414.57a4.035,4.035,0,0,1,1.96-.74l14.65-1.45a4.1,4.1,0,0,1,4.47,3.67Z" transform="translate(-580 -168.299)"/><rect class="cls-8" x="607.105" y="410.267" width="22.904" height="23.308" rx="4.092" ry="4.092" transform="translate(-618.54 -105.339) rotate(-5.651)"/><path class="cls-8" d="M639.325,407.483h14.72a4.091,4.091,0,0,1,4.091,4.091V426.7a4.092,4.092,0,0,1-4.092,4.092h-14.72a4.094,4.094,0,0,1-4.094-4.094V411.577a4.094,4.094,0,0,1,4.094-4.094Z" transform="translate(-618.137 -102.569) rotate(-5.652)"/><path class="cls-8" d="M667.45,404.7h14.721a4.091,4.091,0,0,1,4.091,4.091v15.125a4.092,4.092,0,0,1-4.092,4.092h-14.72a4.091,4.091,0,0,1-4.091-4.091V408.789a4.09,4.09,0,0,1,4.09-4.09Z" transform="translate(-617.722 -99.82) rotate(-5.652)"/><path class="cls-8" d="M695.576,401.915H710.3a4.093,4.093,0,0,1,4.093,4.093v15.123a4.092,4.092,0,0,1-4.092,4.092H695.578a4.094,4.094,0,0,1-4.094-4.094V406.007a4.092,4.092,0,0,1,4.092-4.092Z" transform="translate(-617.318 -97.049) rotate(-5.653)"/><path class="cls-7" d="M722.59,399.913l14.65-1.45a4.1,4.1,0,0,1,4.475,3.669l1.489,15.051a4.1,4.1,0,0,1-3.667,4.475l-14.65,1.45a4.1,4.1,0,0,1-4.473-3.669l-1.491-15.051A4.1,4.1,0,0,1,722.59,399.913Z" transform="translate(-580 -168.299)"/><path class="cls-7" d="M588.19,464.11l-8.19.81V441.5l5.9-.58a4.086,4.086,0,0,1,4.47,3.67l1.49,15.05A4.1,4.1,0,0,1,588.19,464.11Z" transform="translate(-580 -168.299)"/><path class="cls-8" d="M600.489,438.8H615.21a4.091,4.091,0,0,1,4.091,4.091v15.127a4.091,4.091,0,0,1-4.091,4.091H600.489a4.092,4.092,0,0,1-4.092-4.092V442.892A4.092,4.092,0,0,1,600.489,438.8Z" transform="translate(-621.402 -106.255) rotate(-5.651)"/><path class="cls-8" d="M628.616,436.016h14.721a4.092,4.092,0,0,1,4.092,4.092v15.124a4.093,4.093,0,0,1-4.093,4.093h-14.72a4.092,4.092,0,0,1-4.092-4.092V440.108a4.092,4.092,0,0,1,4.092-4.092Z" transform="matrix(0.995, -0.098, 0.098, 0.995, -620.995, -103.492)"/><path class="cls-8" d="M656.743,433.232h14.721a4.091,4.091,0,0,1,4.091,4.091v15.126a4.091,4.091,0,0,1-4.091,4.091h-14.72a4.092,4.092,0,0,1-4.092-4.092V437.324A4.092,4.092,0,0,1,656.743,433.232Z" transform="translate(-620.58 -100.743) rotate(-5.651)"/><path class="cls-8" d="M684.869,430.448h14.721a4.094,4.094,0,0,1,4.094,4.094v15.122a4.093,4.093,0,0,1-4.093,4.093H684.87a4.092,4.092,0,0,1-4.092-4.092V434.539A4.091,4.091,0,0,1,684.869,430.448Z" transform="translate(-620.171 -97.983) rotate(-5.651)"/><path class="cls-7" d="M711.885,428.445,726.534,427a4.1,4.1,0,0,1,4.473,3.669l1.491,15.051a4.105,4.105,0,0,1-3.669,4.475l-14.648,1.45a4.106,4.106,0,0,1-4.477-3.669l-1.49-15.051A4.1,4.1,0,0,1,711.885,428.445Z" transform="translate(-580 -168.299)"/><path class="cls-7" d="M740.081,425.654l26.491-2.622a4.177,4.177,0,0,1,4.553,3.734l1.476,14.907a4.178,4.178,0,0,1-3.734,4.555l-26.489,2.622a4.177,4.177,0,0,1-4.553-3.734l-1.476-14.907A4.177,4.177,0,0,1,740.081,425.654Z" transform="translate(-580 -168.299)"/><path class="cls-7" d="M594.1,486.89a4.1,4.1,0,0,1-3.67,4.47L580,492.39V468.97l8.13-.8a4.094,4.094,0,0,1,4.48,3.66Z" transform="translate(-580 -168.299)"/><rect class="cls-8" x="598.632" y="466.05" width="22.904" height="23.308" rx="4.092" ry="4.092" transform="translate(-624.079 -105.896) rotate(-5.652)"/><path class="cls-8" d="M630.851,463.266h14.721a4.091,4.091,0,0,1,4.091,4.091v15.127a4.09,4.09,0,0,1-4.09,4.09H630.851a4.092,4.092,0,0,1-4.092-4.092V467.358a4.092,4.092,0,0,1,4.092-4.092Z" transform="translate(-623.664 -103.146) rotate(-5.651)"/><rect class="cls-8" x="654.886" y="460.482" width="22.904" height="23.308" rx="4.092" ry="4.092" transform="translate(-623.253 -100.39) rotate(-5.651)"/><path class="cls-8" d="M687.1,457.7h14.721a4.091,4.091,0,0,1,4.091,4.091v15.125a4.091,4.091,0,0,1-4.091,4.091H687.1a4.092,4.092,0,0,1-4.092-4.092V461.79A4.092,4.092,0,0,1,687.1,457.7Z" transform="translate(-622.844 -97.631) rotate(-5.651)"/><path class="cls-7" d="M714.19,455.688l26.489-2.622a4.177,4.177,0,0,1,4.553,3.735l1.476,14.905a4.178,4.178,0,0,1-3.733,4.555l-26.489,2.622a4.177,4.177,0,0,1-4.554-3.734l-1.475-14.906A4.177,4.177,0,0,1,714.19,455.688Z" transform="translate(-580 -168.299)"/><path class="cls-7" d="M755.6,451.59l13.937-1.38a3.9,3.9,0,0,1,4.257,3.49l1.529,15.448a3.9,3.9,0,0,1-3.489,4.256l-13.937,1.38a3.9,3.9,0,0,1-4.26-3.489L752.1,455.848A3.9,3.9,0,0,1,755.6,451.59Z" transform="translate(-580 -168.299)"/><path class="cls-9" d="M697.57,575.52a4.086,4.086,0,0,1-3.66,4.45L580,591.25V512.1l106.16-10.51a4.084,4.084,0,0,1,4.45,3.65Z" transform="translate(-580 -168.299)"/><path class="cls-9" d="M620.12,608.17a.835.835,0,0,1-.75.92L580,612.99V596.55l37.76-3.74a.855.855,0,0,1,.92.76Z" transform="translate(-580 -168.299)"/><path class="cls-9" d="M624.952,592.1l72.694-7.195a.846.846,0,0,1,.924.756l1.445,14.6a.85.85,0,0,1-.758.925l-72.694,7.2a.849.849,0,0,1-.924-.761l-1.445-14.6A.847.847,0,0,1,624.952,592.1Z" transform="translate(-580 -168.299)"/><polygon class="cls-10" points="270.13 24.491 270.13 24.501 270.12 24.501 241.31 84.671 0 81.101 0 51.231 270.13 24.491"/></g></g></svg>