<svg xmlns="http://www.w3.org/2000/svg" viewBox="0 0 327.555 380.843"><defs><style>.cls-1{isolation:isolate;}.cls-2{fill:#a1bace;}.cls-3{fill:#91a9ba;}.cls-4{fill:#f6f5fc;}.cls-5,.cls-6{fill:#555b79;}.cls-6{opacity:0.5;mix-blend-mode:multiply;}</style></defs><title>Mobile</title><g class="cls-1"><g id="Layer_1" data-name="Layer 1"><path class="cls-2" d="M789.334,631.708c7.541,11.895,4.221,27.521-7.416,34.9l-96.576,61.227c-11.638,7.376-27.186,3.712-34.727-8.183L483.344,455.793c-7.538-11.9-4.216-27.522,7.419-34.9l96.574-61.222c11.638-7.379,27.187-3.716,34.724,8.182Z" transform="translate(-465.82 -351.825)"/><path class="cls-3" d="M776.831,656,659.962,728.454a24.859,24.859,0,0,0,25.38-.622L781.918,666.6a24.353,24.353,0,0,0,8.718-9.633Z" transform="translate(-465.82 -351.825)"/><path class="cls-4" d="M781.673,630.007a25.741,25.741,0,0,1-7.958,35.512L674.1,728.666a25.734,25.734,0,0,1-35.509-7.955L469.822,454.483a25.731,25.731,0,0,1,7.955-35.509l99.61-63.147a25.733,25.733,0,0,1,35.51,7.955Z" transform="translate(-465.82 -351.825)"/><path class="cls-5" d="M770.46,624.34a23.9,23.9,0,0,1-7.219,33.024L671.2,715.714a23.909,23.909,0,0,1-32.947-7.561l-157.6-248.6a23.9,23.9,0,0,1,7.219-33.024l92.044-58.35a23.9,23.9,0,0,1,32.944,7.563Z" transform="translate(-465.82 -351.825)"/><path class="cls-6" d="M671.2,715.714l92.044-58.35a23.844,23.844,0,0,0,9.327-28.846l-293.7-191.472a24.062,24.062,0,0,0,1.78,22.5l157.6,248.6A23.909,23.909,0,0,0,671.2,715.714Z" transform="translate(-465.82 -351.825)"/><path class="cls-4" d="M741.753,667.16a7.147,7.147,0,0,1-2.211,9.864l-37.427,23.728a7.151,7.151,0,0,1-9.867-2.208h0a7.149,7.149,0,0,1,2.209-9.866l37.428-23.726a7.149,7.149,0,0,1,9.867,2.208Z" transform="translate(-465.82 -351.825)"/><path class="cls-6" d="M570.3,396.709a7.147,7.147,0,0,1-2.211,9.864L530.659,430.3a7.145,7.145,0,0,1-9.863-2.209h0a7.147,7.147,0,0,1,2.209-9.866L560.435,394.5a7.148,7.148,0,0,1,9.865,2.213Z" transform="translate(-465.82 -351.825)"/></g></g></svg>