<svg xmlns="http://www.w3.org/2000/svg" viewBox="0 0 331.614 510.873"><defs><style>.cls-1{isolation:isolate;}.cls-2{fill:#6c569e;}.cls-3{fill:#7e66b2;}.cls-4{fill:#f2f3f9;}.cls-5{fill:#9575cd;}.cls-6,.cls-8{fill:#4527a0;}.cls-7{fill:#a1bace;}.cls-8{mix-blend-mode:multiply;}.cls-9{fill:#3d2e39;}.cls-10{fill:#3d2c33;}.cls-11{fill:#c2c2c4;}.cls-12{fill:#f6f5fc;}.cls-13{fill:#f2afb2;}.cls-14{fill:#6d77b1;}</style></defs><title>Notepad</title><g class="cls-1"><g id="Layer_1" data-name="Layer 1"><polygon class="cls-2" points="34.605 455.322 24.409 435.949 24.409 401.93 37.051 421.543 34.605 455.322"/><path class="cls-3" d="M808.7,720.606A23.627,23.627,0,0,0,824.416,698.6V362.444c0-11.5-8.531-21.061-19.824-23.155H642.652c-.458.082-.92.138-1.371.243H527.408V720.606Z" transform="translate(-492.803 -265.284)"/><path class="cls-4" d="M805.985,713.809A23.623,23.623,0,0,0,821.7,691.8V355.647c0-11.5-8.531-21.061-19.82-23.157H639.932c-.456.084-.92.143-1.364.245H524.69V713.809Z" transform="translate(-492.803 -265.284)"/><path class="cls-5" d="M798.5,701.233a23.618,23.618,0,0,0,15.718-22.006V343.073c0-11.5-8.533-21.059-19.824-23.155H632.456c-.453.081-.922.141-1.369.243H517.211V701.233Z" transform="translate(-492.803 -265.284)"/><rect class="cls-6" x="68.072" y="54.877" width="26.507" height="381.072"/><polygon class="cls-7" points="313.182 448.525 305.702 435.949 24.409 435.949 31.887 448.525 313.182 448.525"/><path class="cls-6" d="M779.057,384.149a12.233,12.233,0,0,1-12.234,12.233H689.337A12.233,12.233,0,0,1,677.1,384.149h0a12.237,12.237,0,0,1,12.235-12.235h77.486a12.237,12.237,0,0,1,12.234,12.235Z" transform="translate(-492.803 -265.284)"/><path class="cls-8" d="M769,390.938H691.516A12.238,12.238,0,0,1,679.28,378.7a12.588,12.588,0,0,1,.131-1.684,12.218,12.218,0,0,0,9.926,19.364h77.486a12.229,12.229,0,0,0,12.108-10.549A12.205,12.205,0,0,1,769,390.938Z" transform="translate(-492.803 -265.284)"/><polygon class="cls-9" points="40.233 435.68 40.233 510.873 53.279 494.739 67.011 510.873 67.011 435.68 40.233 435.68"/><path class="cls-10" d="M497.315,324.556a2.088,2.088,0,0,1-1.17-.36,7.793,7.793,0,0,1-3.331-5.512c-.133-2.213.92-4.31,3.13-6.236l.4-.27a11.955,11.955,0,0,1,8.834-.69c3.052,1.071,5.423,3.535,7.06,7.326a2.1,2.1,0,1,1-3.862,1.668c-1.147-2.651-2.679-4.339-4.556-5.012a7.6,7.6,0,0,0-5.314.34,3.777,3.777,0,0,0-1.484,2.606,3.587,3.587,0,0,0,1.5,2.3,2.109,2.109,0,0,1-1.206,3.836Z" transform="translate(-492.803 -265.284)"/><path class="cls-10" d="M497.315,370.119a2.078,2.078,0,0,1-1.17-.358,7.79,7.79,0,0,1-3.331-5.511c-.133-2.213.92-4.312,3.13-6.236l.4-.27a11.931,11.931,0,0,1,8.834-.692c3.052,1.074,5.423,3.538,7.06,7.328a2.1,2.1,0,1,1-3.862,1.668c-1.147-2.652-2.679-4.339-4.556-5.012a7.589,7.589,0,0,0-5.314.34,3.773,3.773,0,0,0-1.484,2.606,3.6,3.6,0,0,0,1.5,2.307,2.106,2.106,0,0,1-1.206,3.832Z" transform="translate(-492.803 -265.284)"/><path class="cls-10" d="M497.315,415.685a2.078,2.078,0,0,1-1.17-.359,7.789,7.789,0,0,1-3.331-5.511c-.133-2.213.92-4.312,3.13-6.236l.4-.271a11.939,11.939,0,0,1,8.834-.691c3.052,1.073,5.423,3.537,7.06,7.327a2.1,2.1,0,1,1-3.862,1.669c-1.147-2.653-2.679-4.339-4.556-5.012a7.594,7.594,0,0,0-5.314.339,3.771,3.771,0,0,0-1.484,2.6,3.586,3.586,0,0,0,1.5,2.307,2.108,2.108,0,0,1-1.206,3.835Z" transform="translate(-492.803 -265.284)"/><path class="cls-10" d="M497.315,464.757a2.072,2.072,0,0,1-1.17-.361,7.783,7.783,0,0,1-3.331-5.509c-.133-2.215.92-4.312,3.13-6.237l.4-.27a11.94,11.94,0,0,1,8.834-.691c3.052,1.071,5.423,3.538,7.06,7.327a2.1,2.1,0,0,1-3.862,1.669c-1.147-2.654-2.679-4.339-4.556-5.012a7.6,7.6,0,0,0-5.314.339,3.77,3.77,0,0,0-1.484,2.6,3.584,3.584,0,0,0,1.5,2.306,2.109,2.109,0,0,1-1.206,3.836Z" transform="translate(-492.803 -265.284)"/><path class="cls-10" d="M497.315,512.426a2.07,2.07,0,0,1-1.17-.36,7.787,7.787,0,0,1-3.331-5.512c-.133-2.212.92-4.309,3.13-6.234l.4-.271a11.952,11.952,0,0,1,8.834-.691c3.052,1.071,5.423,3.539,7.06,7.328a2.1,2.1,0,1,1-3.862,1.665c-1.147-2.651-2.679-4.335-4.556-5.01a7.6,7.6,0,0,0-5.314.338,3.781,3.781,0,0,0-1.484,2.606,3.592,3.592,0,0,0,1.5,2.307,2.108,2.108,0,0,1-1.206,3.834Z" transform="translate(-492.803 -265.284)"/><path class="cls-10" d="M497.315,559.381a2.07,2.07,0,0,1-1.17-.36,7.784,7.784,0,0,1-3.331-5.511c-.133-2.213.92-4.31,3.13-6.235l.4-.27a11.944,11.944,0,0,1,8.834-.692c3.052,1.072,5.423,3.539,7.06,7.328a2.1,2.1,0,0,1-3.862,1.668c-1.147-2.654-2.679-4.339-4.556-5.014a7.591,7.591,0,0,0-5.314.341,3.77,3.77,0,0,0-1.484,2.6,3.6,3.6,0,0,0,1.5,2.308,2.107,2.107,0,0,1-1.206,3.833Z" transform="translate(-492.803 -265.284)"/><path class="cls-3" d="M795.88,676A24.376,24.376,0,0,0,812.1,653.285V306.364c0-11.864-8.806-21.732-20.461-23.895H624.511c-.471.084-.948.145-1.41.251H505.576V676Z" transform="translate(-492.803 -265.284)"/><path class="cls-11" d="M795.18,671.79A24.384,24.384,0,0,0,811.4,649.076V302.156c0-11.864-8.808-21.734-20.461-23.895H623.809c-.471.085-.95.143-1.412.251H504.872V671.79Z" transform="translate(-492.803 -265.284)"/><path class="cls-12" d="M787.462,658.813A24.377,24.377,0,0,0,803.681,636.1V289.178c0-11.865-8.806-21.735-20.459-23.894H616.093c-.469.083-.95.143-1.412.25H497.158V658.813Z" transform="translate(-492.803 -265.284)"/><rect class="cls-12" x="4.355" y="0.25" width="5.076" height="393.279"/><polygon class="cls-7" points="302.378 406.506 294.659 393.529 4.355 393.529 12.069 406.506 302.378 406.506"/><rect class="cls-5" x="39.594" y="47.65" width="250.426" height="3.106"/><rect class="cls-5" x="39.594" y="72.395" width="250.426" height="3.109"/><rect class="cls-5" x="39.594" y="97.14" width="250.426" height="3.109"/><rect class="cls-5" x="39.594" y="121.885" width="250.426" height="3.106"/><rect class="cls-5" x="39.594" y="146.631" width="250.426" height="3.107"/><rect class="cls-5" x="39.594" y="171.374" width="250.426" height="3.108"/><rect class="cls-5" x="39.594" y="196.115" width="250.426" height="3.109"/><rect class="cls-5" x="39.594" y="220.863" width="250.426" height="3.107"/><rect class="cls-5" x="39.594" y="245.605" width="250.426" height="3.109"/><rect class="cls-5" x="39.594" y="270.352" width="250.426" height="3.106"/><rect class="cls-5" x="39.594" y="295.094" width="250.426" height="3.108"/><rect class="cls-5" x="39.594" y="319.839" width="250.426" height="3.109"/><rect class="cls-5" x="39.594" y="344.584" width="250.426" height="3.109"/><rect class="cls-13" x="265.131" y="27.013" width="2.103" height="335.307"/><circle class="cls-14" cx="20.654" cy="50.856" r="8.416"/><circle class="cls-14" cx="20.654" cy="98.558" r="8.416"/><circle class="cls-14" cx="20.654" cy="146.259" r="8.416"/><circle class="cls-14" cx="20.654" cy="193.96" r="8.417"/><circle class="cls-14" cx="20.654" cy="241.661" r="8.416"/><circle class="cls-14" cx="20.654" cy="289.363" r="8.416"/><circle class="cls-14" cx="20.654" cy="337.063" r="8.417"/><path class="cls-10" d="M512.235,318.814c-1.637-3.791-4.008-6.255-7.06-7.326a11.846,11.846,0,0,0-8.73.637v7.347h.95a2.316,2.316,0,0,1-.377-1.057,3.777,3.777,0,0,1,1.484-2.606,7.6,7.6,0,0,1,5.314-.34c1.877.673,3.409,2.362,4.556,5.012a2.1,2.1,0,1,0,3.862-1.668Z" transform="translate(-492.803 -265.284)"/><path class="cls-10" d="M512.235,364.379c-1.637-3.79-4.008-6.255-7.06-7.328a11.83,11.83,0,0,0-8.73.64v5.974h.617a4.218,4.218,0,0,1,1.441-2.291,7.589,7.589,0,0,1,5.314-.34c1.877.674,3.409,2.361,4.556,5.012a2.1,2.1,0,1,0,3.862-1.668Z" transform="translate(-492.803 -265.284)"/><path class="cls-10" d="M512.235,409.944c-1.637-3.789-4.008-6.254-7.06-7.327a11.854,11.854,0,0,0-8.73.636v5.131h.9a5.8,5.8,0,0,1,1.162-1.445,7.594,7.594,0,0,1,5.314-.339c1.877.673,3.409,2.359,4.556,5.012a2.1,2.1,0,1,0,3.862-1.669Z" transform="translate(-492.803 -265.284)"/><path class="cls-10" d="M512.235,459.016c-1.637-3.789-4.008-6.256-7.06-7.327a11.832,11.832,0,0,0-8.73.639v6.037h.606a4.155,4.155,0,0,1,1.451-2.353,7.6,7.6,0,0,1,5.314-.339c1.877.674,3.409,2.358,4.556,5.012a2.1,2.1,0,0,0,3.862-1.669Z" transform="translate(-492.803 -265.284)"/><path class="cls-10" d="M512.235,506.686c-1.637-3.789-4.008-6.257-7.06-7.328a11.85,11.85,0,0,0-8.73.639v5.721h.654a4.747,4.747,0,0,1,1.4-2.038,7.6,7.6,0,0,1,5.314-.338c1.877.675,3.409,2.36,4.556,5.01a2.1,2.1,0,1,0,3.862-1.665Z" transform="translate(-492.803 -265.284)"/><path class="cls-10" d="M512.235,553.641c-1.637-3.789-4.008-6.256-7.06-7.328a11.858,11.858,0,0,0-8.73.637v6.639h.665a1.408,1.408,0,0,1-.092-.35,3.77,3.77,0,0,1,1.484-2.6,7.591,7.591,0,0,1,5.314-.341c1.877.676,3.409,2.361,4.556,5.014a2.1,2.1,0,0,0,3.862-1.668Z" transform="translate(-492.803 -265.284)"/></g></g></svg>