<svg id="Layer_1" data-name="Layer 1" xmlns="http://www.w3.org/2000/svg" viewBox="0 0 244.785 405.06"><defs><style>.cls-1{fill:#414e66;}.cls-1,.cls-2,.cls-3{stroke:#fff;}.cls-1,.cls-2,.cls-3,.cls-4,.cls-5{stroke-miterlimit:10;}.cls-2{fill:#4b586e;}.cls-3{fill:#37455e;}.cls-4{fill:#fff;}.cls-4,.cls-5{stroke:#37455e;}.cls-5{fill:#f2f2f2;}</style></defs><title>Pens</title><path class="cls-1" d="M544.366,482.989a4.282,4.282,0,0,1-4.955,3.481h0a4.28,4.28,0,0,1-3.479-4.953l22.145-126.7a4.279,4.279,0,0,1,4.953-3.478h0a4.283,4.283,0,0,1,3.481,4.955Z" transform="translate(-476.754 -294.5)"/><path class="cls-2" d="M500.44,694.909a4.975,4.975,0,0,1-5.732,4.077l-13.366-2.336a4.975,4.975,0,0,1-4.012-5.781l1.073-6.136a4.974,4.974,0,0,1,5.734-4.073L497.5,683a4.974,4.974,0,0,1,4.012,5.776Z" transform="translate(-476.754 -294.5)"/><path class="cls-3" d="M497.5,683,492.4,682.1l-2.8,15.99,5.108.893a4.975,4.975,0,0,0,5.732-4.077l1.075-6.136A4.974,4.974,0,0,0,497.5,683Z" transform="translate(-476.754 -294.5)"/><rect class="cls-4" x="367.371" y="531.363" width="295.391" height="23.46" transform="translate(-585.349 662.465) rotate(-80.086)"/><rect class="cls-5" x="373.354" y="538.483" width="295.392" height="11.312" transform="translate(-581.394 669.272) rotate(-80.09)"/><rect class="cls-2" x="367.371" y="541.492" width="295.392" height="3.2" transform="translate(-585.508 662.224) rotate(-80.064)"/><path class="cls-2" d="M549.078,433.231l18.9-108.137a5,5,0,0,0-4.065-5.789l-18.476-3.229a5.007,5.007,0,0,0-5.789,4.067L520.75,428.28a3.435,3.435,0,0,0,.757,6.544l3.079.537,18.478,3.229,3.079.54a3.436,3.436,0,0,0,2.935-5.9Z" transform="translate(-476.754 -294.5)"/><path class="cls-3" d="M549.078,433.231l18.9-108.137a5,5,0,0,0-4.065-5.789l-7.867-1.375L535.2,437.218l7.867,1.373,3.079.54a3.436,3.436,0,0,0,2.935-5.9Z" transform="translate(-476.754 -294.5)"/><path class="cls-1" d="M678.042,453.337a4.284,4.284,0,0,1-3.191,5.148h0a4.28,4.28,0,0,1-5.144-3.189L640.294,330.082a4.278,4.278,0,0,1,3.189-5.146h0a4.281,4.281,0,0,1,5.146,3.189Z" transform="translate(-476.754 -294.5)"/><path class="cls-2" d="M720.9,665.474a4.974,4.974,0,0,1-3.669,6l-13.21,3.1a4.975,4.975,0,0,1-5.961-3.739l-1.424-6.064a4.973,4.973,0,0,1,3.673-6l13.21-3.1a4.972,4.972,0,0,1,5.958,3.735Z" transform="translate(-476.754 -294.5)"/><path class="cls-3" d="M713.523,655.673l-5.049,1.185,3.711,15.8,5.049-1.185a4.974,4.974,0,0,0,3.669-6l-1.422-6.066A4.972,4.972,0,0,0,713.523,655.673Z" transform="translate(-476.754 -294.5)"/><rect class="cls-4" x="662.981" y="372.423" width="23.461" height="295.391" transform="translate(-577.83 -126.392) rotate(-13.222)"/><rect class="cls-5" x="674.968" y="371.033" width="11.313" height="295.392" transform="translate(-577.381 -125.02) rotate(-13.226)"/><rect class="cls-2" x="673.11" y="372.422" width="3.202" height="295.392" transform="translate(-577.818 -126.418) rotate(-13.22)"/><path class="cls-2" d="M662.827,405.729,637.721,298.861a5,5,0,0,0-6.011-3.728l-18.26,4.291a5,5,0,0,0-3.724,6.013L634.831,412.3a3.435,3.435,0,0,0,3.267,5.722l3.043-.715,18.26-4.291,3.045-.713a3.436,3.436,0,0,0,.381-6.576Z" transform="translate(-476.754 -294.5)"/><path class="cls-3" d="M662.827,405.729,637.721,298.861a5,5,0,0,0-6.011-3.728l-7.776,1.826,27.693,117.887,7.774-1.828,3.045-.713a3.436,3.436,0,0,0,.381-6.576Z" transform="translate(-476.754 -294.5)"/></svg>