<svg id="Layer_1" width="1000" height="1000" data-name="Layer 1" xmlns="http://www.w3.org/2000/svg" viewBox="0 0 810.223 782.36"><defs><style>.cls-1{fill:#fff;}</style></defs><title>About</title><path class="cls-1" d="M663.765,670.269,691,701.059c-7.246,12.627-14.2,24.287-20.588,36.251-1.33,2.492-1.929,7.071-.538,9.062,20.275,29.005,24.629,62.336,26.893,96.291.226,3.391.352,6.788.646,12.583,2.121-3.556,3.425-5.153,4.114-6.982,22.483-59.67,45.53-119.14,67-179.173,7.506-20.987,11.112-43.369,16.649-65.723,22.762,9.593,46.582,19.631,70.4,29.672,27.965,11.789,56.145,23.1,83.844,35.479,48.129,21.515,77.963,58.491,89.369,109.891,8.349,37.621,15.858,75.428,23.722,113.156.889,4.265,1.649,8.556,2.576,13.4H244.869c7.107-34.258,14.067-67.9,21.075-101.536,2.365-11.352,4.206-22.864,7.4-33.984,12.929-45.072,39.89-79.36,82.726-98.7,51.265-23.142,103.517-44.1,155.353-65.972a32.648,32.648,0,0,1,4.028-1.221c15.718,86.57,56.134,164.463,83.725,246.665.388,1.155,1.353,2.115,2.966,4.555,1.529-15.625,2.415-29.726,4.385-43.674,3.225-22.839,9.893-44.522,23.1-63.906,1.575-2.312,1.412-7.239.024-9.893-6.143-11.749-13.026-23.11-20.5-36.1l27.013-30.833c-13.786-9.971-28.175-19.679-41.774-30.39-16.605-13.079-32.464-27.1-48.827-40.5-5.047-4.132-7.222-8.445-5.024-15.023,7.622-22.809,6.3-44.225-5.5-66.243-7.884-14.721-10.4-32.281-15.745-48.43-1-3.024-3.775-5.625-6.163-7.983-3.1-3.061-7.583-5.077-9.825-8.593-15.21-23.852-21.15-49.97-17.639-78.116.292-2.338.5-5.3,1.959-6.778,8.618-8.7,4.243-18.582,3.708-28.462-1.526-28.2-4.12-56.544-2.612-84.634C490.047,230.6,499.035,207.85,523.2,195c1.584-.842,2.808-2.935,3.543-4.717,17.967-43.527,60.322-73.12,123.92-66.841,50.428,4.979,93.316,26.532,128.413,63.347,30.753,32.258,37.433,71.622,33.748,113.959-1.538,17.663-3.981,35.245-5.851,52.881a21.253,21.253,0,0,0,.681,7.658c2.524,9.247,7.245,18.347,7.6,27.638a105.883,105.883,0,0,1-14,56.94c-3.65,6.394-10.609,10.858-15.83,16.417a21.5,21.5,0,0,0-4.608,7.075q-13.547,37.421-26.675,74.993a18.635,18.635,0,0,0-.733,8.762c1.414,8.748,2.488,17.692,5.249,26.046,3.57,10.8.143,17.867-8.387,24.393-25.994,19.889-51.674,40.188-77.505,60.291C669.846,666.108,666.753,668.142,663.765,670.269Z" transform="translate(-244.869 -122.602)"/></svg>
