<svg id="Layer_1" data-name="Layer 1" xmlns="http://www.w3.org/2000/svg" viewBox="0 0 1280 1024"><defs><style>.cls-1{fill:#efefef;}</style></defs><title>Heaxagon</title><polygon class="cls-1" points="16.237 0 0 0 0 33.146 16.237 23.772 16.237 0"/><polygon class="cls-1" points="42.898 37.257 66.256 23.772 66.256 0 19.54 0 19.54 23.772 42.898 37.257"/><polygon class="cls-1" points="92.917 37.257 116.274 23.772 116.274 0 69.559 0 69.559 23.772 92.917 37.257"/><polygon class="cls-1" points="142.935 37.257 166.293 23.772 166.293 0 119.577 0 119.577 23.772 142.935 37.257"/><polygon class="cls-1" points="192.953 37.257 216.311 23.772 216.311 0 169.596 0 169.596 23.772 192.953 37.257"/><polygon class="cls-1" points="242.972 37.257 266.33 23.772 266.33 0 219.614 0 219.614 23.772 242.972 37.257"/><polygon class="cls-1" points="292.99 37.257 316.348 23.772 316.348 0 269.633 0 269.633 23.772 292.99 37.257"/><polygon class="cls-1" points="343.009 37.257 366.367 23.772 366.367 0 319.651 0 319.651 23.772 343.009 37.257"/><polygon class="cls-1" points="41.247 66.253 41.247 39.282 17.889 25.796 0 36.124 0 69.411 17.889 79.739 41.247 66.253"/><polygon class="cls-1" points="91.265 66.253 91.265 39.282 67.907 25.796 44.549 39.282 44.549 66.253 67.907 79.739 91.265 66.253"/><polygon class="cls-1" points="141.284 66.253 141.284 39.282 117.926 25.796 94.568 39.282 94.568 66.253 117.926 79.739 141.284 66.253"/><polygon class="cls-1" points="191.302 66.253 191.302 39.282 167.944 25.796 144.586 39.282 144.586 66.253 167.944 79.739 191.302 66.253"/><polygon class="cls-1" points="241.321 66.253 241.321 39.282 217.963 25.796 194.605 39.282 194.605 66.253 217.963 79.739 241.321 66.253"/><polygon class="cls-1" points="291.339 66.253 291.339 39.282 267.981 25.796 244.623 39.282 244.623 66.253 267.981 79.739 291.339 66.253"/><polygon class="cls-1" points="341.358 66.253 341.358 39.282 318 25.796 294.642 39.282 294.642 66.253 318 79.739 341.358 66.253"/><polygon class="cls-1" points="391.376 66.253 391.376 39.282 368.018 25.796 344.66 39.282 344.66 66.253 368.018 79.739 391.376 66.253"/><polygon class="cls-1" points="16.237 82.791 0 73.416 0 119.137 16.237 109.762 16.237 82.791"/><polygon class="cls-1" points="66.256 109.762 66.256 82.791 42.898 69.305 19.54 82.791 19.54 109.762 42.898 123.248 66.256 109.762"/><polygon class="cls-1" points="69.559 109.762 92.917 123.248 116.274 109.762 116.274 82.791 92.917 69.305 69.559 82.791 69.559 109.762"/><polygon class="cls-1" points="119.577 109.762 142.935 123.248 166.293 109.762 166.293 82.791 142.935 69.305 119.577 82.791 119.577 109.762"/><polygon class="cls-1" points="169.596 109.762 192.953 123.248 216.311 109.762 216.311 82.791 192.953 69.305 169.596 82.791 169.596 109.762"/><polygon class="cls-1" points="219.614 109.762 242.972 123.248 266.33 109.762 266.33 82.791 242.972 69.305 219.614 82.791 219.614 109.762"/><polygon class="cls-1" points="269.633 109.762 292.99 123.248 316.348 109.762 316.348 82.791 292.99 69.305 269.633 82.791 269.633 109.762"/><polygon class="cls-1" points="319.651 109.762 343.009 123.248 366.367 109.762 366.367 82.791 343.009 69.305 319.651 82.791 319.651 109.762"/><polygon class="cls-1" points="41.247 152.244 41.247 125.272 17.889 111.787 0 122.115 0 155.401 17.889 165.729 41.247 152.244"/><polygon class="cls-1" points="44.549 125.272 44.549 152.244 67.907 165.729 91.265 152.244 91.265 125.272 67.907 111.787 44.549 125.272"/><polygon class="cls-1" points="94.568 125.272 94.568 152.244 117.926 165.729 141.284 152.244 141.284 125.272 117.926 111.787 94.568 125.272"/><polygon class="cls-1" points="144.586 125.272 144.586 152.244 167.944 165.729 191.302 152.244 191.302 125.272 167.944 111.787 144.586 125.272"/><polygon class="cls-1" points="194.605 125.272 194.605 152.244 217.963 165.729 241.321 152.244 241.321 125.272 217.963 111.787 194.605 125.272"/><polygon class="cls-1" points="244.623 125.272 244.623 152.244 267.981 165.729 291.339 152.244 291.339 125.272 267.981 111.787 244.623 125.272"/><polygon class="cls-1" points="294.642 125.272 294.642 152.244 318 165.729 341.358 152.244 341.358 125.272 318 111.787 294.642 125.272"/><polygon class="cls-1" points="344.66 125.272 344.66 152.244 368.018 165.729 391.376 152.244 391.376 125.272 368.018 111.787 344.66 125.272"/><polygon class="cls-1" points="17.265 168.782 0 158.813 0 205.721 17.265 195.753 17.265 168.782"/><polygon class="cls-1" points="67.284 195.753 67.284 168.782 43.926 155.296 20.568 168.782 20.568 195.753 43.926 209.239 67.284 195.753"/><polygon class="cls-1" points="70.586 168.782 70.586 195.753 93.944 209.239 117.302 195.753 117.302 168.782 93.944 155.296 70.586 168.782"/><polygon class="cls-1" points="120.605 168.782 120.605 195.753 143.963 209.239 167.321 195.753 167.321 168.782 143.963 155.296 120.605 168.782"/><polygon class="cls-1" points="170.623 168.782 170.623 195.753 193.981 209.239 217.339 195.753 217.339 168.782 193.981 155.296 170.623 168.782"/><polygon class="cls-1" points="220.642 168.782 220.642 195.753 244 209.239 267.358 195.753 267.358 168.782 244 155.296 220.642 168.782"/><polygon class="cls-1" points="270.66 168.782 270.66 195.753 294.018 209.239 317.376 195.753 317.376 168.782 294.018 155.296 270.66 168.782"/><polygon class="cls-1" points="320.679 168.782 320.679 195.753 344.037 209.239 367.395 195.753 367.395 168.782 344.037 155.296 320.679 168.782"/><polygon class="cls-1" points="42.274 238.234 42.274 211.263 18.917 197.777 0 208.699 0 240.799 18.917 251.72 42.274 238.234"/><polygon class="cls-1" points="45.577 238.234 68.935 251.72 92.293 238.234 92.293 211.263 68.935 197.777 45.577 211.263 45.577 238.234"/><polygon class="cls-1" points="95.596 211.263 95.596 238.234 118.954 251.72 142.311 238.234 142.311 211.263 118.954 197.777 95.596 211.263"/><polygon class="cls-1" points="145.614 211.263 145.614 238.234 168.972 251.72 192.33 238.234 192.33 211.263 168.972 197.777 145.614 211.263"/><polygon class="cls-1" points="195.633 211.263 195.633 238.234 218.99 251.72 242.348 238.234 242.348 211.263 218.99 197.777 195.633 211.263"/><polygon class="cls-1" points="245.651 211.263 245.651 238.234 269.009 251.72 292.367 238.234 292.367 211.263 269.009 197.777 245.651 211.263"/><polygon class="cls-1" points="295.67 211.263 295.67 238.234 319.027 251.72 342.385 238.234 342.385 211.263 319.027 197.777 295.67 211.263"/><polygon class="cls-1" points="345.688 211.263 345.688 238.234 369.046 251.72 392.404 238.234 392.404 211.263 369.046 197.777 345.688 211.263"/><polygon class="cls-1" points="17.265 254.772 0 244.804 0 291.712 17.265 281.744 17.265 254.772"/><polygon class="cls-1" points="67.284 281.744 67.284 254.772 43.926 241.287 20.568 254.772 20.568 281.744 43.926 295.229 67.284 281.744"/><polygon class="cls-1" points="70.586 254.772 70.586 281.744 93.944 295.229 117.302 281.744 117.302 254.772 93.944 241.287 70.586 254.772"/><polygon class="cls-1" points="120.605 254.772 120.605 281.744 143.963 295.229 167.321 281.744 167.321 254.772 143.963 241.287 120.605 254.772"/><polygon class="cls-1" points="170.623 254.772 170.623 281.744 193.981 295.229 217.339 281.744 217.339 254.772 193.981 241.287 170.623 254.772"/><polygon class="cls-1" points="220.642 254.772 220.642 281.744 244 295.229 267.358 281.744 267.358 254.772 244 241.287 220.642 254.772"/><polygon class="cls-1" points="270.66 254.772 270.66 281.744 294.018 295.229 317.376 281.744 317.376 254.772 294.018 241.287 270.66 254.772"/><polygon class="cls-1" points="320.679 254.772 320.679 281.744 344.037 295.229 367.395 281.744 367.395 254.772 344.037 241.287 320.679 254.772"/><polygon class="cls-1" points="42.274 324.225 42.274 297.254 18.917 283.768 0 294.69 0 326.789 18.917 337.711 42.274 324.225"/><polygon class="cls-1" points="45.577 324.225 68.935 337.711 92.293 324.225 92.293 297.254 68.935 283.768 45.577 297.254 45.577 324.225"/><polygon class="cls-1" points="95.596 297.254 95.596 324.225 118.954 337.711 142.311 324.225 142.311 297.254 118.954 283.768 95.596 297.254"/><polygon class="cls-1" points="145.614 297.254 145.614 324.225 168.972 337.711 192.33 324.225 192.33 297.254 168.972 283.768 145.614 297.254"/><polygon class="cls-1" points="195.633 297.254 195.633 324.225 218.99 337.711 242.348 324.225 242.348 297.254 218.99 283.768 195.633 297.254"/><polygon class="cls-1" points="245.651 297.254 245.651 324.225 269.009 337.711 292.367 324.225 292.367 297.254 269.009 283.768 245.651 297.254"/><polygon class="cls-1" points="295.67 297.254 295.67 324.225 319.027 337.711 342.385 324.225 342.385 297.254 319.027 283.768 295.67 297.254"/><polygon class="cls-1" points="345.688 297.254 345.688 324.225 369.046 337.711 392.404 324.225 392.404 297.254 369.046 283.768 345.688 297.254"/><polygon class="cls-1" points="393.365 36.506 416.723 23.02 416.723 0 370.008 0 370.008 23.02 393.365 36.506"/><polygon class="cls-1" points="443.384 36.506 466.742 23.02 466.742 0 420.026 0 420.026 23.02 443.384 36.506"/><polygon class="cls-1" points="493.402 36.506 516.76 23.02 516.76 0 470.044 0 470.044 23.02 493.402 36.506"/><polygon class="cls-1" points="543.421 36.506 566.779 23.02 566.779 0 520.063 0 520.063 23.02 543.421 36.506"/><polygon class="cls-1" points="593.439 36.506 616.797 23.02 616.797 0 570.081 0 570.081 23.02 593.439 36.506"/><polygon class="cls-1" points="643.458 36.506 666.816 23.02 666.816 0 620.1 0 620.1 23.02 643.458 36.506"/><polygon class="cls-1" points="693.476 36.506 716.834 23.02 716.834 0 670.118 0 670.118 23.02 693.476 36.506"/><polygon class="cls-1" points="743.495 36.506 766.853 23.02 766.853 0 720.137 0 720.137 23.02 743.495 36.506"/><polygon class="cls-1" points="441.733 65.502 441.733 38.53 418.375 25.045 395.017 38.53 395.017 65.502 418.375 78.987 441.733 65.502"/><polygon class="cls-1" points="491.751 65.502 491.751 38.53 468.393 25.045 445.035 38.53 445.035 65.502 468.393 78.987 491.751 65.502"/><polygon class="cls-1" points="541.769 65.502 541.769 38.53 518.412 25.045 495.054 38.53 495.054 65.502 518.412 78.987 541.769 65.502"/><polygon class="cls-1" points="591.788 65.502 591.788 38.53 568.43 25.045 545.072 38.53 545.072 65.502 568.43 78.987 591.788 65.502"/><polygon class="cls-1" points="641.806 65.502 641.806 38.53 618.449 25.045 595.091 38.53 595.091 65.502 618.449 78.987 641.806 65.502"/><polygon class="cls-1" points="691.825 65.502 691.825 38.53 668.467 25.045 645.109 38.53 645.109 65.502 668.467 78.987 691.825 65.502"/><polygon class="cls-1" points="741.843 65.502 741.843 38.53 718.485 25.045 695.128 38.53 695.128 65.502 718.485 78.987 741.843 65.502"/><polygon class="cls-1" points="791.862 65.502 791.862 38.53 768.504 25.045 745.146 38.53 745.146 65.502 768.504 78.987 791.862 65.502"/><polygon class="cls-1" points="370.008 109.011 393.365 122.497 416.723 109.011 416.723 82.04 393.365 68.554 370.008 82.04 370.008 109.011"/><polygon class="cls-1" points="420.026 109.011 443.384 122.497 466.742 109.011 466.742 82.04 443.384 68.554 420.026 82.04 420.026 109.011"/><polygon class="cls-1" points="470.044 109.011 493.402 122.497 516.76 109.011 516.76 82.04 493.402 68.554 470.044 82.04 470.044 109.011"/><polygon class="cls-1" points="520.063 109.011 543.421 122.497 566.779 109.011 566.779 82.04 543.421 68.554 520.063 82.04 520.063 109.011"/><polygon class="cls-1" points="570.081 109.011 593.439 122.497 616.797 109.011 616.797 82.04 593.439 68.554 570.081 82.04 570.081 109.011"/><polygon class="cls-1" points="620.1 109.011 643.458 122.497 666.816 109.011 666.816 82.04 643.458 68.554 620.1 82.04 620.1 109.011"/><polygon class="cls-1" points="670.118 109.011 693.476 122.497 716.834 109.011 716.834 82.04 693.476 68.554 670.118 82.04 670.118 109.011"/><polygon class="cls-1" points="720.137 109.011 743.495 122.497 766.853 109.011 766.853 82.04 743.495 68.554 720.137 82.04 720.137 109.011"/><polygon class="cls-1" points="395.017 124.521 395.017 151.492 418.375 164.978 441.733 151.492 441.733 124.521 418.375 111.035 395.017 124.521"/><polygon class="cls-1" points="445.035 124.521 445.035 151.492 468.393 164.978 491.751 151.492 491.751 124.521 468.393 111.035 445.035 124.521"/><polygon class="cls-1" points="495.054 124.521 495.054 151.492 518.412 164.978 541.769 151.492 541.769 124.521 518.412 111.035 495.054 124.521"/><polygon class="cls-1" points="545.072 124.521 545.072 151.492 568.43 164.978 591.788 151.492 591.788 124.521 568.43 111.035 545.072 124.521"/><polygon class="cls-1" points="595.091 124.521 595.091 151.492 618.449 164.978 641.806 151.492 641.806 124.521 618.449 111.035 595.091 124.521"/><polygon class="cls-1" points="645.109 124.521 645.109 151.492 668.467 164.978 691.825 151.492 691.825 124.521 668.467 111.035 645.109 124.521"/><polygon class="cls-1" points="695.128 124.521 695.128 151.492 718.485 164.978 741.843 151.492 741.843 124.521 718.485 111.035 695.128 124.521"/><polygon class="cls-1" points="745.146 124.521 745.146 151.492 768.504 164.978 791.862 151.492 791.862 124.521 768.504 111.035 745.146 124.521"/><polygon class="cls-1" points="371.035 168.03 371.035 195.002 394.393 208.487 417.751 195.002 417.751 168.03 394.393 154.544 371.035 168.03"/><polygon class="cls-1" points="421.054 168.03 421.054 195.002 444.412 208.487 467.77 195.002 467.77 168.03 444.412 154.544 421.054 168.03"/><polygon class="cls-1" points="471.072 168.03 471.072 195.002 494.43 208.487 517.788 195.002 517.788 168.03 494.43 154.544 471.072 168.03"/><polygon class="cls-1" points="521.091 168.03 521.091 195.002 544.449 208.487 567.807 195.002 567.807 168.03 544.449 154.544 521.091 168.03"/><polygon class="cls-1" points="571.109 168.03 571.109 195.002 594.467 208.487 617.825 195.002 617.825 168.03 594.467 154.544 571.109 168.03"/><polygon class="cls-1" points="621.128 168.03 621.128 195.002 644.486 208.487 667.843 195.002 667.843 168.03 644.486 154.544 621.128 168.03"/><polygon class="cls-1" points="671.146 168.03 671.146 195.002 694.504 208.487 717.862 195.002 717.862 168.03 694.504 154.544 671.146 168.03"/><polygon class="cls-1" points="721.165 168.03 721.165 195.002 744.523 208.487 767.88 195.002 767.88 168.03 744.523 154.544 721.165 168.03"/><polygon class="cls-1" points="396.044 210.512 396.044 237.483 419.402 250.969 442.76 237.483 442.76 210.512 419.402 197.026 396.044 210.512"/><polygon class="cls-1" points="446.063 210.512 446.063 237.483 469.421 250.969 492.779 237.483 492.779 210.512 469.421 197.026 446.063 210.512"/><polygon class="cls-1" points="496.081 210.512 496.081 237.483 519.439 250.969 542.797 237.483 542.797 210.512 519.439 197.026 496.081 210.512"/><polygon class="cls-1" points="546.1 210.512 546.1 237.483 569.458 250.969 592.816 237.483 592.816 210.512 569.458 197.026 546.1 210.512"/><polygon class="cls-1" points="596.118 210.512 596.118 237.483 619.476 250.969 642.834 237.483 642.834 210.512 619.476 197.026 596.118 210.512"/><polygon class="cls-1" points="646.137 210.512 646.137 237.483 669.495 250.969 692.853 237.483 692.853 210.512 669.495 197.026 646.137 210.512"/><polygon class="cls-1" points="696.155 210.512 696.155 237.483 719.513 250.969 742.871 237.483 742.871 210.512 719.513 197.026 696.155 210.512"/><polygon class="cls-1" points="746.174 210.512 746.174 237.483 769.532 250.969 792.89 237.483 792.89 210.512 769.532 197.026 746.174 210.512"/><polygon class="cls-1" points="371.035 254.021 371.035 280.992 394.393 294.478 417.751 280.992 417.751 254.021 394.393 240.535 371.035 254.021"/><polygon class="cls-1" points="421.054 254.021 421.054 280.992 444.412 294.478 467.77 280.992 467.77 254.021 444.412 240.535 421.054 254.021"/><polygon class="cls-1" points="471.072 254.021 471.072 280.992 494.43 294.478 517.788 280.992 517.788 254.021 494.43 240.535 471.072 254.021"/><polygon class="cls-1" points="521.091 254.021 521.091 280.992 544.449 294.478 567.807 280.992 567.807 254.021 544.449 240.535 521.091 254.021"/><polygon class="cls-1" points="571.109 254.021 571.109 280.992 594.467 294.478 617.825 280.992 617.825 254.021 594.467 240.535 571.109 254.021"/><polygon class="cls-1" points="621.128 254.021 621.128 280.992 644.486 294.478 667.843 280.992 667.843 254.021 644.486 240.535 621.128 254.021"/><polygon class="cls-1" points="671.146 254.021 671.146 280.992 694.504 294.478 717.862 280.992 717.862 254.021 694.504 240.535 671.146 254.021"/><polygon class="cls-1" points="721.165 254.021 721.165 280.992 744.523 294.478 767.88 280.992 767.88 254.021 744.523 240.535 721.165 254.021"/><polygon class="cls-1" points="396.044 296.502 396.044 323.474 419.402 336.959 442.76 323.474 442.76 296.502 419.402 283.017 396.044 296.502"/><polygon class="cls-1" points="446.063 296.502 446.063 323.474 469.421 336.959 492.779 323.474 492.779 296.502 469.421 283.017 446.063 296.502"/><polygon class="cls-1" points="496.081 296.502 496.081 323.474 519.439 336.959 542.797 323.474 542.797 296.502 519.439 283.017 496.081 296.502"/><polygon class="cls-1" points="546.1 296.502 546.1 323.474 569.458 336.959 592.816 323.474 592.816 296.502 569.458 283.017 546.1 296.502"/><polygon class="cls-1" points="596.118 296.502 596.118 323.474 619.476 336.959 642.834 323.474 642.834 296.502 619.476 283.017 596.118 296.502"/><polygon class="cls-1" points="646.137 296.502 646.137 323.474 669.495 336.959 692.853 323.474 692.853 296.502 669.495 283.017 646.137 296.502"/><polygon class="cls-1" points="696.155 296.502 696.155 323.474 719.513 336.959 742.871 323.474 742.871 296.502 719.513 283.017 696.155 296.502"/><polygon class="cls-1" points="746.174 296.502 746.174 323.474 769.532 336.959 792.89 323.474 792.89 296.502 769.532 283.017 746.174 296.502"/><polygon class="cls-1" points="17.74 339.43 0 329.187 0 376.643 17.74 366.401 17.74 339.43"/><polygon class="cls-1" points="67.759 366.401 67.759 339.43 44.401 325.944 21.043 339.43 21.043 366.401 44.401 379.887 67.759 366.401"/><polygon class="cls-1" points="71.061 366.401 94.419 379.887 117.777 366.401 117.777 339.43 94.419 325.944 71.061 339.43 71.061 366.401"/><polygon class="cls-1" points="121.08 339.43 121.08 366.401 144.438 379.887 167.796 366.401 167.796 339.43 144.438 325.944 121.08 339.43"/><polygon class="cls-1" points="171.098 339.43 171.098 366.401 194.456 379.887 217.814 366.401 217.814 339.43 194.456 325.944 171.098 339.43"/><polygon class="cls-1" points="221.117 339.43 221.117 366.401 244.475 379.887 267.833 366.401 267.833 339.43 244.475 325.944 221.117 339.43"/><polygon class="cls-1" points="271.135 339.43 271.135 366.401 294.493 379.887 317.851 366.401 317.851 339.43 294.493 325.944 271.135 339.43"/><polygon class="cls-1" points="321.154 339.43 321.154 366.401 344.512 379.887 367.87 366.401 367.87 339.43 344.512 325.944 321.154 339.43"/><polygon class="cls-1" points="42.749 408.883 42.749 381.911 19.392 368.426 0 379.621 0 411.173 19.392 422.368 42.749 408.883"/><polygon class="cls-1" points="46.052 408.883 69.41 422.368 92.768 408.883 92.768 381.911 69.41 368.426 46.052 381.911 46.052 408.883"/><polygon class="cls-1" points="96.071 408.883 119.429 422.368 142.786 408.883 142.786 381.911 119.429 368.426 96.071 381.911 96.071 408.883"/><polygon class="cls-1" points="146.089 381.911 146.089 408.883 169.447 422.368 192.805 408.883 192.805 381.911 169.447 368.426 146.089 381.911"/><polygon class="cls-1" points="196.108 381.911 196.108 408.883 219.465 422.368 242.823 408.883 242.823 381.911 219.465 368.426 196.108 381.911"/><polygon class="cls-1" points="246.126 381.911 246.126 408.883 269.484 422.368 292.842 408.883 292.842 381.911 269.484 368.426 246.126 381.911"/><polygon class="cls-1" points="296.145 381.911 296.145 408.883 319.502 422.368 342.86 408.883 342.86 381.911 319.502 368.426 296.145 381.911"/><polygon class="cls-1" points="346.163 381.911 346.163 408.883 369.521 422.368 392.879 408.883 392.879 381.911 369.521 368.426 346.163 381.911"/><polygon class="cls-1" points="17.74 425.42 0 415.178 0 462.634 17.74 452.392 17.74 425.42"/><polygon class="cls-1" points="67.759 452.392 67.759 425.42 44.401 411.935 21.043 425.42 21.043 452.392 44.401 465.878 67.759 452.392"/><polygon class="cls-1" points="71.061 452.392 94.419 465.878 117.777 452.392 117.777 425.42 94.419 411.935 71.061 425.42 71.061 452.392"/><polygon class="cls-1" points="121.08 425.42 121.08 452.392 144.438 465.878 167.796 452.392 167.796 425.42 144.438 411.935 121.08 425.42"/><polygon class="cls-1" points="171.098 425.42 171.098 452.392 194.456 465.878 217.814 452.392 217.814 425.42 194.456 411.935 171.098 425.42"/><polygon class="cls-1" points="221.117 425.42 221.117 452.392 244.475 465.878 267.833 452.392 267.833 425.42 244.475 411.935 221.117 425.42"/><polygon class="cls-1" points="271.135 425.42 271.135 452.392 294.493 465.878 317.851 452.392 317.851 425.42 294.493 411.935 271.135 425.42"/><polygon class="cls-1" points="321.154 425.42 321.154 452.392 344.512 465.878 367.87 452.392 367.87 425.42 344.512 411.935 321.154 425.42"/><polygon class="cls-1" points="42.749 494.873 42.749 467.902 19.392 454.416 0 465.612 0 497.163 19.392 508.359 42.749 494.873"/><polygon class="cls-1" points="46.052 494.873 69.41 508.359 92.768 494.873 92.768 467.902 69.41 454.416 46.052 467.902 46.052 494.873"/><polygon class="cls-1" points="96.071 494.873 119.429 508.359 142.786 494.873 142.786 467.902 119.429 454.416 96.071 467.902 96.071 494.873"/><polygon class="cls-1" points="192.805 467.902 169.447 454.416 146.089 467.902 146.089 494.873 169.447 508.359 192.805 494.873 192.805 467.902"/><polygon class="cls-1" points="242.823 494.873 242.823 467.902 219.465 454.416 196.108 467.902 196.108 494.873 219.465 508.359 242.823 494.873"/><polygon class="cls-1" points="292.842 494.873 292.842 467.902 269.484 454.416 246.126 467.902 246.126 494.873 269.484 508.359 292.842 494.873"/><polygon class="cls-1" points="342.86 494.873 342.86 467.902 319.502 454.416 296.145 467.902 296.145 494.873 319.502 508.359 342.86 494.873"/><polygon class="cls-1" points="392.879 494.873 392.879 467.902 369.521 454.416 346.163 467.902 346.163 494.873 369.521 508.359 392.879 494.873"/><polygon class="cls-1" points="18.768 511.411 0 500.575 0 549.218 18.768 538.383 18.768 511.411"/><polygon class="cls-1" points="68.786 538.383 68.786 511.411 45.429 497.925 22.071 511.411 22.071 538.383 45.429 551.868 68.786 538.383"/><polygon class="cls-1" points="72.089 538.383 95.447 551.868 118.805 538.383 118.805 511.411 95.447 497.925 72.089 511.411 72.089 538.383"/><polygon class="cls-1" points="122.108 538.383 145.466 551.868 168.823 538.383 168.823 511.411 145.466 497.925 122.108 511.411 122.108 538.383"/><polygon class="cls-1" points="218.842 538.383 218.842 511.411 195.484 497.925 172.126 511.411 172.126 538.383 195.484 551.868 218.842 538.383"/><polygon class="cls-1" points="268.86 538.383 268.86 511.411 245.503 497.925 222.145 511.411 222.145 538.383 245.503 551.868 268.86 538.383"/><polygon class="cls-1" points="318.879 538.383 318.879 511.411 295.521 497.925 272.163 511.411 272.163 538.383 295.521 551.868 318.879 538.383"/><polygon class="cls-1" points="368.897 538.383 368.897 511.411 345.539 497.925 322.182 511.411 322.182 538.383 345.539 551.868 368.897 538.383"/><polygon class="cls-1" points="43.777 580.864 43.777 553.893 20.419 540.407 0 552.196 0 582.561 20.419 594.35 43.777 580.864"/><polygon class="cls-1" points="47.08 580.864 70.438 594.35 93.796 580.864 93.796 553.893 70.438 540.407 47.08 553.893 47.08 580.864"/><polygon class="cls-1" points="97.098 580.864 120.456 594.35 143.814 580.864 143.814 553.893 120.456 540.407 97.098 553.893 97.098 580.864"/><polygon class="cls-1" points="147.117 580.864 170.475 594.35 193.833 580.864 193.833 553.893 170.475 540.407 147.117 553.893 147.117 580.864"/><polygon class="cls-1" points="243.851 580.864 243.851 553.893 220.493 540.407 197.135 553.893 197.135 580.864 220.493 594.35 243.851 580.864"/><polygon class="cls-1" points="293.87 580.864 293.87 553.893 270.512 540.407 247.154 553.893 247.154 580.864 270.512 594.35 293.87 580.864"/><polygon class="cls-1" points="343.888 580.864 343.888 553.893 320.53 540.407 297.172 553.893 297.172 580.864 320.53 594.35 343.888 580.864"/><polygon class="cls-1" points="393.907 580.864 393.907 553.893 370.549 540.407 347.191 553.893 347.191 580.864 370.549 594.35 393.907 580.864"/><polygon class="cls-1" points="18.768 597.402 0 586.566 0 635.209 18.768 624.373 18.768 597.402"/><polygon class="cls-1" points="68.786 624.373 68.786 597.402 45.429 583.916 22.071 597.402 22.071 624.373 45.429 637.859 68.786 624.373"/><polygon class="cls-1" points="72.089 624.373 95.447 637.859 118.805 624.373 118.805 597.402 95.447 583.916 72.089 597.402 72.089 624.373"/><polygon class="cls-1" points="122.108 624.373 145.466 637.859 168.823 624.373 168.823 597.402 145.466 583.916 122.108 597.402 122.108 624.373"/><polygon class="cls-1" points="218.842 624.373 218.842 597.402 195.484 583.916 172.126 597.402 172.126 624.373 195.484 637.859 218.842 624.373"/><polygon class="cls-1" points="268.86 624.373 268.86 597.402 245.503 583.916 222.145 597.402 222.145 624.373 245.503 637.859 268.86 624.373"/><polygon class="cls-1" points="318.879 624.373 318.879 597.402 295.521 583.916 272.163 597.402 272.163 624.373 295.521 637.859 318.879 624.373"/><polygon class="cls-1" points="368.897 624.373 368.897 597.402 345.539 583.916 322.182 597.402 322.182 624.373 345.539 637.859 368.897 624.373"/><polygon class="cls-1" points="43.777 666.855 43.777 639.883 20.419 626.398 0 638.187 0 668.551 20.419 680.34 43.777 666.855"/><polygon class="cls-1" points="47.08 666.855 70.438 680.34 93.796 666.855 93.796 639.883 70.438 626.398 47.08 639.883 47.08 666.855"/><polygon class="cls-1" points="97.098 666.855 120.456 680.34 143.814 666.855 143.814 639.883 120.456 626.398 97.098 639.883 97.098 666.855"/><polygon class="cls-1" points="193.833 666.855 193.833 639.883 170.475 626.398 147.117 639.883 147.117 666.855 170.475 680.34 193.833 666.855"/><polygon class="cls-1" points="243.851 666.855 243.851 639.883 220.493 626.398 197.135 639.883 197.135 666.855 220.493 680.34 243.851 666.855"/><polygon class="cls-1" points="293.87 666.855 293.87 639.883 270.512 626.398 247.154 639.883 247.154 666.855 270.512 680.34 293.87 666.855"/><polygon class="cls-1" points="343.888 666.855 343.888 639.883 320.53 626.398 297.172 639.883 297.172 666.855 320.53 680.34 343.888 666.855"/><polygon class="cls-1" points="393.907 666.855 393.907 639.883 370.549 626.398 347.191 639.883 347.191 666.855 370.549 680.34 393.907 666.855"/><polygon class="cls-1" points="371.51 338.678 371.51 365.65 394.868 379.135 418.226 365.65 418.226 338.678 394.868 325.193 371.51 338.678"/><polygon class="cls-1" points="421.529 338.678 421.529 365.65 444.887 379.135 468.245 365.65 468.245 338.678 444.887 325.193 421.529 338.678"/><polygon class="cls-1" points="471.547 338.678 471.547 365.65 494.905 379.135 518.263 365.65 518.263 338.678 494.905 325.193 471.547 338.678"/><polygon class="cls-1" points="521.566 338.678 521.566 365.65 544.924 379.135 568.281 365.65 568.281 338.678 544.924 325.193 521.566 338.678"/><polygon class="cls-1" points="571.584 338.678 571.584 365.65 594.942 379.135 618.3 365.65 618.3 338.678 594.942 325.193 571.584 338.678"/><polygon class="cls-1" points="621.603 338.678 621.603 365.65 644.961 379.135 668.318 365.65 668.318 338.678 644.961 325.193 621.603 338.678"/><polygon class="cls-1" points="671.621 338.678 671.621 365.65 694.979 379.135 718.337 365.65 718.337 338.678 694.979 325.193 671.621 338.678"/><polygon class="cls-1" points="721.64 338.678 721.64 365.65 744.997 379.135 768.355 365.65 768.355 338.678 744.997 325.193 721.64 338.678"/><polygon class="cls-1" points="396.52 381.16 396.52 408.131 419.877 421.617 443.235 408.131 443.235 381.16 419.877 367.674 396.52 381.16"/><polygon class="cls-1" points="446.538 381.16 446.538 408.131 469.896 421.617 493.254 408.131 493.254 381.16 469.896 367.674 446.538 381.16"/><polygon class="cls-1" points="496.556 381.16 496.556 408.131 519.914 421.617 543.272 408.131 543.272 381.16 519.914 367.674 496.556 381.16"/><polygon class="cls-1" points="546.575 381.16 546.575 408.131 569.933 421.617 593.291 408.131 593.291 381.16 569.933 367.674 546.575 381.16"/><polygon class="cls-1" points="596.593 381.16 596.593 408.131 619.951 421.617 643.309 408.131 643.309 381.16 619.951 367.674 596.593 381.16"/><polygon class="cls-1" points="646.612 381.16 646.612 408.131 669.97 421.617 693.328 408.131 693.328 381.16 669.97 367.674 646.612 381.16"/><polygon class="cls-1" points="696.63 381.16 696.63 408.131 719.988 421.617 743.346 408.131 743.346 381.16 719.988 367.674 696.63 381.16"/><polygon class="cls-1" points="746.649 381.16 746.649 408.131 770.007 421.617 793.365 408.131 793.365 381.16 770.007 367.674 746.649 381.16"/><polygon class="cls-1" points="371.51 424.669 371.51 451.64 394.868 465.126 418.226 451.64 418.226 424.669 394.868 411.183 371.51 424.669"/><polygon class="cls-1" points="421.529 424.669 421.529 451.64 444.887 465.126 468.245 451.64 468.245 424.669 444.887 411.183 421.529 424.669"/><polygon class="cls-1" points="471.547 424.669 471.547 451.64 494.905 465.126 518.263 451.64 518.263 424.669 494.905 411.183 471.547 424.669"/><polygon class="cls-1" points="521.566 424.669 521.566 451.64 544.924 465.126 568.281 451.64 568.281 424.669 544.924 411.183 521.566 424.669"/><polygon class="cls-1" points="571.584 424.669 571.584 451.64 594.942 465.126 618.3 451.64 618.3 424.669 594.942 411.183 571.584 424.669"/><polygon class="cls-1" points="621.603 424.669 621.603 451.64 644.961 465.126 668.318 451.64 668.318 424.669 644.961 411.183 621.603 424.669"/><polygon class="cls-1" points="671.621 424.669 671.621 451.64 694.979 465.126 718.337 451.64 718.337 424.669 694.979 411.183 671.621 424.669"/><polygon class="cls-1" points="721.64 424.669 721.64 451.64 744.997 465.126 768.355 451.64 768.355 424.669 744.997 411.183 721.64 424.669"/><polygon class="cls-1" points="443.235 494.122 443.235 467.151 419.877 453.665 396.52 467.151 396.52 494.122 419.877 507.608 443.235 494.122"/><polygon class="cls-1" points="493.254 494.122 493.254 467.151 469.896 453.665 446.538 467.151 446.538 494.122 469.896 507.608 493.254 494.122"/><polygon class="cls-1" points="543.272 494.122 543.272 467.151 519.914 453.665 496.556 467.151 496.556 494.122 519.914 507.608 543.272 494.122"/><polygon class="cls-1" points="593.291 494.122 593.291 467.151 569.933 453.665 546.575 467.151 546.575 494.122 569.933 507.608 593.291 494.122"/><polygon class="cls-1" points="643.309 494.122 643.309 467.151 619.951 453.665 596.593 467.151 596.593 494.122 619.951 507.608 643.309 494.122"/><polygon class="cls-1" points="693.328 494.122 693.328 467.151 669.97 453.665 646.612 467.151 646.612 494.122 669.97 507.608 693.328 494.122"/><polygon class="cls-1" points="743.346 494.122 743.346 467.151 719.988 453.665 696.63 467.151 696.63 494.122 719.988 507.608 743.346 494.122"/><polygon class="cls-1" points="793.365 494.122 793.365 467.151 770.007 453.665 746.649 467.151 746.649 494.122 770.007 507.608 793.365 494.122"/><polygon class="cls-1" points="419.254 537.631 419.254 510.66 395.896 497.174 372.538 510.66 372.538 537.631 395.896 551.117 419.254 537.631"/><polygon class="cls-1" points="469.272 537.631 469.272 510.66 445.914 497.174 422.557 510.66 422.557 537.631 445.914 551.117 469.272 537.631"/><polygon class="cls-1" points="519.291 537.631 519.291 510.66 495.933 497.174 472.575 510.66 472.575 537.631 495.933 551.117 519.291 537.631"/><polygon class="cls-1" points="569.309 537.631 569.309 510.66 545.951 497.174 522.593 510.66 522.593 537.631 545.951 551.117 569.309 537.631"/><polygon class="cls-1" points="619.328 537.631 619.328 510.66 595.97 497.174 572.612 510.66 572.612 537.631 595.97 551.117 619.328 537.631"/><polygon class="cls-1" points="669.346 537.631 669.346 510.66 645.988 497.174 622.63 510.66 622.63 537.631 645.988 551.117 669.346 537.631"/><polygon class="cls-1" points="719.365 537.631 719.365 510.66 696.007 497.174 672.649 510.66 672.649 537.631 696.007 551.117 719.365 537.631"/><polygon class="cls-1" points="769.383 537.631 769.383 510.66 746.025 497.174 722.667 510.66 722.667 537.631 746.025 551.117 769.383 537.631"/><polygon class="cls-1" points="444.263 580.113 444.263 553.141 420.905 539.656 397.547 553.141 397.547 580.113 420.905 593.598 444.263 580.113"/><polygon class="cls-1" points="494.282 580.113 494.282 553.141 470.924 539.656 447.566 553.141 447.566 580.113 470.924 593.598 494.282 580.113"/><polygon class="cls-1" points="544.3 580.113 544.3 553.141 520.942 539.656 497.584 553.141 497.584 580.113 520.942 593.598 544.3 580.113"/><polygon class="cls-1" points="594.318 580.113 594.318 553.141 570.961 539.656 547.603 553.141 547.603 580.113 570.961 593.598 594.318 580.113"/><polygon class="cls-1" points="644.337 580.113 644.337 553.141 620.979 539.656 597.621 553.141 597.621 580.113 620.979 593.598 644.337 580.113"/><polygon class="cls-1" points="694.355 580.113 694.355 553.141 670.998 539.656 647.64 553.141 647.64 580.113 670.998 593.598 694.355 580.113"/><polygon class="cls-1" points="744.374 580.113 744.374 553.141 721.016 539.656 697.658 553.141 697.658 580.113 721.016 593.598 744.374 580.113"/><polygon class="cls-1" points="794.392 580.113 794.392 553.141 771.034 539.656 747.677 553.141 747.677 580.113 771.034 593.598 794.392 580.113"/><polygon class="cls-1" points="419.254 623.622 419.254 596.65 395.896 583.165 372.538 596.65 372.538 623.622 395.896 637.107 419.254 623.622"/><polygon class="cls-1" points="469.272 623.622 469.272 596.65 445.914 583.165 422.557 596.65 422.557 623.622 445.914 637.107 469.272 623.622"/><polygon class="cls-1" points="519.291 623.622 519.291 596.65 495.933 583.165 472.575 596.65 472.575 623.622 495.933 637.107 519.291 623.622"/><polygon class="cls-1" points="569.309 623.622 569.309 596.65 545.951 583.165 522.593 596.65 522.593 623.622 545.951 637.107 569.309 623.622"/><polygon class="cls-1" points="619.328 623.622 619.328 596.65 595.97 583.165 572.612 596.65 572.612 623.622 595.97 637.107 619.328 623.622"/><polygon class="cls-1" points="669.346 623.622 669.346 596.65 645.988 583.165 622.63 596.65 622.63 623.622 645.988 637.107 669.346 623.622"/><polygon class="cls-1" points="719.365 623.622 719.365 596.65 696.007 583.165 672.649 596.65 672.649 623.622 696.007 637.107 719.365 623.622"/><polygon class="cls-1" points="769.383 623.622 769.383 596.65 746.025 583.165 722.667 596.65 722.667 623.622 746.025 637.107 769.383 623.622"/><polygon class="cls-1" points="444.263 666.103 444.263 639.132 420.905 625.646 397.547 639.132 397.547 666.103 420.905 679.589 444.263 666.103"/><polygon class="cls-1" points="494.282 666.103 494.282 639.132 470.924 625.646 447.566 639.132 447.566 666.103 470.924 679.589 494.282 666.103"/><polygon class="cls-1" points="544.3 666.103 544.3 639.132 520.942 625.646 497.584 639.132 497.584 666.103 520.942 679.589 544.3 666.103"/><polygon class="cls-1" points="594.318 666.103 594.318 639.132 570.961 625.646 547.603 639.132 547.603 666.103 570.961 679.589 594.318 666.103"/><polygon class="cls-1" points="644.337 666.103 644.337 639.132 620.979 625.646 597.621 639.132 597.621 666.103 620.979 679.589 644.337 666.103"/><polygon class="cls-1" points="694.355 666.103 694.355 639.132 670.998 625.646 647.64 639.132 647.64 666.103 670.998 679.589 694.355 666.103"/><polygon class="cls-1" points="744.374 666.103 744.374 639.132 721.016 625.646 697.658 639.132 697.658 666.103 721.016 679.589 744.374 666.103"/><polygon class="cls-1" points="794.392 666.103 794.392 639.132 771.034 625.646 747.677 639.132 747.677 666.103 771.034 679.589 794.392 666.103"/><polygon class="cls-1" points="792.88 36.257 816.237 22.772 816.237 0 769.522 0 769.522 22.772 792.88 36.257"/><polygon class="cls-1" points="842.898 36.257 866.256 22.772 866.256 0 819.54 0 819.54 22.772 842.898 36.257"/><polygon class="cls-1" points="892.917 36.257 916.274 22.772 916.274 0 869.559 0 869.559 22.772 892.917 36.257"/><polygon class="cls-1" points="942.935 36.257 966.293 22.772 966.293 0 919.577 0 919.577 22.772 942.935 36.257"/><polygon class="cls-1" points="992.953 36.257 1016.311 22.772 1016.311 0 969.596 0 969.596 22.772 992.953 36.257"/><polygon class="cls-1" points="1042.972 36.257 1066.33 22.772 1066.33 0 1019.614 0 1019.614 22.772 1042.972 36.257"/><polygon class="cls-1" points="1092.99 36.257 1116.348 22.772 1116.348 0 1069.633 0 1069.633 22.772 1092.99 36.257"/><polygon class="cls-1" points="1143.009 36.257 1166.367 22.772 1166.367 0 1119.651 0 1119.651 22.772 1143.009 36.257"/><polygon class="cls-1" points="841.247 65.253 841.247 38.282 817.889 24.796 794.531 38.282 794.531 65.253 817.889 78.739 841.247 65.253"/><polygon class="cls-1" points="891.265 65.253 891.265 38.282 867.907 24.796 844.549 38.282 844.549 65.253 867.907 78.739 891.265 65.253"/><polygon class="cls-1" points="941.284 65.253 941.284 38.282 917.926 24.796 894.568 38.282 894.568 65.253 917.926 78.739 941.284 65.253"/><polygon class="cls-1" points="991.302 65.253 991.302 38.282 967.944 24.796 944.586 38.282 944.586 65.253 967.944 78.739 991.302 65.253"/><polygon class="cls-1" points="1041.321 65.253 1041.321 38.282 1017.963 24.796 994.605 38.282 994.605 65.253 1017.963 78.739 1041.321 65.253"/><polygon class="cls-1" points="1091.339 65.253 1091.339 38.282 1067.981 24.796 1044.623 38.282 1044.623 65.253 1067.981 78.739 1091.339 65.253"/><polygon class="cls-1" points="1141.358 65.253 1141.358 38.282 1118 24.796 1094.642 38.282 1094.642 65.253 1118 78.739 1141.358 65.253"/><polygon class="cls-1" points="1191.376 65.253 1191.376 38.282 1168.018 24.796 1144.66 38.282 1144.66 65.253 1168.018 78.739 1191.376 65.253"/><polygon class="cls-1" points="769.522 108.762 792.88 122.248 816.237 108.762 816.237 81.791 792.88 68.305 769.522 81.791 769.522 108.762"/><polygon class="cls-1" points="819.54 108.762 842.898 122.248 866.256 108.762 866.256 81.791 842.898 68.305 819.54 81.791 819.54 108.762"/><polygon class="cls-1" points="869.559 108.762 892.917 122.248 916.274 108.762 916.274 81.791 892.917 68.305 869.559 81.791 869.559 108.762"/><polygon class="cls-1" points="919.577 108.762 942.935 122.248 966.293 108.762 966.293 81.791 942.935 68.305 919.577 81.791 919.577 108.762"/><polygon class="cls-1" points="969.596 108.762 992.953 122.248 1016.311 108.762 1016.311 81.791 992.953 68.305 969.596 81.791 969.596 108.762"/><polygon class="cls-1" points="1019.614 108.762 1042.972 122.248 1066.33 108.762 1066.33 81.791 1042.972 68.305 1019.614 81.791 1019.614 108.762"/><polygon class="cls-1" points="1069.633 108.762 1092.99 122.248 1116.348 108.762 1116.348 81.791 1092.99 68.305 1069.633 81.791 1069.633 108.762"/><polygon class="cls-1" points="1119.651 108.762 1143.009 122.248 1166.367 108.762 1166.367 81.791 1143.009 68.305 1119.651 81.791 1119.651 108.762"/><polygon class="cls-1" points="794.531 124.272 794.531 151.244 817.889 164.729 841.247 151.244 841.247 124.272 817.889 110.787 794.531 124.272"/><polygon class="cls-1" points="844.549 124.272 844.549 151.244 867.907 164.729 891.265 151.244 891.265 124.272 867.907 110.787 844.549 124.272"/><polygon class="cls-1" points="894.568 124.272 894.568 151.244 917.926 164.729 941.284 151.244 941.284 124.272 917.926 110.787 894.568 124.272"/><polygon class="cls-1" points="944.586 124.272 944.586 151.244 967.944 164.729 991.302 151.244 991.302 124.272 967.944 110.787 944.586 124.272"/><polygon class="cls-1" points="994.605 124.272 994.605 151.244 1017.963 164.729 1041.321 151.244 1041.321 124.272 1017.963 110.787 994.605 124.272"/><polygon class="cls-1" points="1044.623 124.272 1044.623 151.244 1067.981 164.729 1091.339 151.244 1091.339 124.272 1067.981 110.787 1044.623 124.272"/><polygon class="cls-1" points="1094.642 124.272 1094.642 151.244 1118 164.729 1141.358 151.244 1141.358 124.272 1118 110.787 1094.642 124.272"/><polygon class="cls-1" points="1144.66 124.272 1144.66 151.244 1168.018 164.729 1191.376 151.244 1191.376 124.272 1168.018 110.787 1144.66 124.272"/><polygon class="cls-1" points="770.549 167.782 770.549 194.753 793.907 208.239 817.265 194.753 817.265 167.782 793.907 154.296 770.549 167.782"/><polygon class="cls-1" points="820.568 167.782 820.568 194.753 843.926 208.239 867.284 194.753 867.284 167.782 843.926 154.296 820.568 167.782"/><polygon class="cls-1" points="870.586 167.782 870.586 194.753 893.944 208.239 917.302 194.753 917.302 167.782 893.944 154.296 870.586 167.782"/><polygon class="cls-1" points="920.605 167.782 920.605 194.753 943.963 208.239 967.321 194.753 967.321 167.782 943.963 154.296 920.605 167.782"/><polygon class="cls-1" points="970.623 167.782 970.623 194.753 993.981 208.239 1017.339 194.753 1017.339 167.782 993.981 154.296 970.623 167.782"/><polygon class="cls-1" points="1020.642 167.782 1020.642 194.753 1044 208.239 1067.358 194.753 1067.358 167.782 1044 154.296 1020.642 167.782"/><polygon class="cls-1" points="1070.66 167.782 1070.66 194.753 1094.018 208.239 1117.376 194.753 1117.376 167.782 1094.018 154.296 1070.66 167.782"/><polygon class="cls-1" points="1120.679 167.782 1120.679 194.753 1144.037 208.239 1167.395 194.753 1167.395 167.782 1144.037 154.296 1120.679 167.782"/><polygon class="cls-1" points="795.559 210.263 795.559 237.234 818.917 250.72 842.274 237.234 842.274 210.263 818.917 196.777 795.559 210.263"/><polygon class="cls-1" points="845.577 210.263 845.577 237.234 868.935 250.72 892.293 237.234 892.293 210.263 868.935 196.777 845.577 210.263"/><polygon class="cls-1" points="895.596 210.263 895.596 237.234 918.954 250.72 942.311 237.234 942.311 210.263 918.954 196.777 895.596 210.263"/><polygon class="cls-1" points="945.614 210.263 945.614 237.234 968.972 250.72 992.33 237.234 992.33 210.263 968.972 196.777 945.614 210.263"/><polygon class="cls-1" points="995.633 210.263 995.633 237.234 1018.99 250.72 1042.348 237.234 1042.348 210.263 1018.99 196.777 995.633 210.263"/><polygon class="cls-1" points="1045.651 210.263 1045.651 237.234 1069.009 250.72 1092.367 237.234 1092.367 210.263 1069.009 196.777 1045.651 210.263"/><polygon class="cls-1" points="1095.67 210.263 1095.67 237.234 1119.027 250.72 1142.385 237.234 1142.385 210.263 1119.027 196.777 1095.67 210.263"/><polygon class="cls-1" points="1145.688 210.263 1145.688 237.234 1169.046 250.72 1192.404 237.234 1192.404 210.263 1169.046 196.777 1145.688 210.263"/><polygon class="cls-1" points="770.549 253.772 770.549 280.744 793.907 294.229 817.265 280.744 817.265 253.772 793.907 240.287 770.549 253.772"/><polygon class="cls-1" points="820.568 253.772 820.568 280.744 843.926 294.229 867.284 280.744 867.284 253.772 843.926 240.287 820.568 253.772"/><polygon class="cls-1" points="870.586 253.772 870.586 280.744 893.944 294.229 917.302 280.744 917.302 253.772 893.944 240.287 870.586 253.772"/><polygon class="cls-1" points="920.605 253.772 920.605 280.744 943.963 294.229 967.321 280.744 967.321 253.772 943.963 240.287 920.605 253.772"/><polygon class="cls-1" points="970.623 253.772 970.623 280.744 993.981 294.229 1017.339 280.744 1017.339 253.772 993.981 240.287 970.623 253.772"/><polygon class="cls-1" points="1020.642 253.772 1020.642 280.744 1044 294.229 1067.358 280.744 1067.358 253.772 1044 240.287 1020.642 253.772"/><polygon class="cls-1" points="1070.66 253.772 1070.66 280.744 1094.018 294.229 1117.376 280.744 1117.376 253.772 1094.018 240.287 1070.66 253.772"/><polygon class="cls-1" points="1120.679 253.772 1120.679 280.744 1144.037 294.229 1167.395 280.744 1167.395 253.772 1144.037 240.287 1120.679 253.772"/><polygon class="cls-1" points="795.559 296.254 795.559 323.225 818.917 336.711 842.274 323.225 842.274 296.254 818.917 282.768 795.559 296.254"/><polygon class="cls-1" points="845.577 296.254 845.577 323.225 868.935 336.711 892.293 323.225 892.293 296.254 868.935 282.768 845.577 296.254"/><polygon class="cls-1" points="895.596 296.254 895.596 323.225 918.954 336.711 942.311 323.225 942.311 296.254 918.954 282.768 895.596 296.254"/><polygon class="cls-1" points="945.614 296.254 945.614 323.225 968.972 336.711 992.33 323.225 992.33 296.254 968.972 282.768 945.614 296.254"/><polygon class="cls-1" points="995.633 296.254 995.633 323.225 1018.99 336.711 1042.348 323.225 1042.348 296.254 1018.99 282.768 995.633 296.254"/><polygon class="cls-1" points="1045.651 296.254 1045.651 323.225 1069.009 336.711 1092.367 323.225 1092.367 296.254 1069.009 282.768 1045.651 296.254"/><polygon class="cls-1" points="1095.67 296.254 1095.67 323.225 1119.027 336.711 1142.385 323.225 1142.385 296.254 1119.027 282.768 1095.67 296.254"/><polygon class="cls-1" points="1192.404 296.254 1169.046 282.768 1145.688 296.254 1145.688 323.225 1169.046 336.711 1192.404 323.225 1192.404 296.254"/><polygon class="cls-1" points="1193.365 35.506 1216.723 22.02 1216.723 0 1170.008 0 1170.008 22.02 1193.365 35.506"/><polygon class="cls-1" points="1243.384 35.506 1266.742 22.02 1266.742 0 1220.026 0 1220.026 22.02 1243.384 35.506"/><polygon class="cls-1" points="1280 27.768 1280 0 1270.044 0 1270.044 22.02 1280 27.768"/><polygon class="cls-1" points="1241.733 64.502 1241.733 37.53 1218.375 24.045 1195.017 37.53 1195.017 64.502 1218.375 77.987 1241.733 64.502"/><polygon class="cls-1" points="1245.035 37.53 1245.035 64.502 1268.393 77.987 1280 71.286 1280 30.746 1268.393 24.045 1245.035 37.53"/><polygon class="cls-1" points="1170.008 108.011 1193.365 121.497 1216.723 108.011 1216.723 81.04 1193.365 67.554 1170.008 81.04 1170.008 108.011"/><polygon class="cls-1" points="1220.026 108.011 1243.384 121.497 1266.742 108.011 1266.742 81.04 1243.384 67.554 1220.026 81.04 1220.026 108.011"/><polygon class="cls-1" points="1270.044 108.011 1280 113.759 1280 75.292 1270.044 81.04 1270.044 108.011"/><polygon class="cls-1" points="1241.733 123.521 1218.375 110.035 1195.017 123.521 1195.017 150.492 1218.375 163.978 1241.733 150.492 1241.733 123.521"/><polygon class="cls-1" points="1245.035 123.521 1245.035 150.492 1268.393 163.978 1280 157.277 1280 116.737 1268.393 110.035 1245.035 123.521"/><polygon class="cls-1" points="1171.035 167.03 1171.035 194.002 1194.393 207.487 1217.751 194.002 1217.751 167.03 1194.393 153.544 1171.035 167.03"/><polygon class="cls-1" points="1221.054 167.03 1221.054 194.002 1244.412 207.487 1267.77 194.002 1267.77 167.03 1244.412 153.544 1221.054 167.03"/><polygon class="cls-1" points="1271.072 194.002 1280 199.156 1280 161.876 1271.072 167.03 1271.072 194.002"/><polygon class="cls-1" points="1242.76 209.512 1219.402 196.026 1196.044 209.512 1196.044 236.483 1219.402 249.969 1242.76 236.483 1242.76 209.512"/><polygon class="cls-1" points="1246.063 209.512 1246.063 236.483 1269.421 249.969 1280 243.861 1280 202.134 1269.421 196.026 1246.063 209.512"/><polygon class="cls-1" points="1217.751 253.021 1194.393 239.535 1171.035 253.021 1171.035 279.992 1194.393 293.478 1217.751 279.992 1217.751 253.021"/><polygon class="cls-1" points="1221.054 253.021 1221.054 279.992 1244.412 293.478 1267.77 279.992 1267.77 253.021 1244.412 239.535 1221.054 253.021"/><polygon class="cls-1" points="1271.072 279.992 1280 285.147 1280 247.866 1271.072 253.021 1271.072 279.992"/><polygon class="cls-1" points="1242.76 295.502 1219.402 282.017 1196.044 295.502 1196.044 322.474 1219.402 335.959 1242.76 322.474 1242.76 295.502"/><polygon class="cls-1" points="1246.063 295.502 1246.063 322.474 1269.421 335.959 1280 329.852 1280 288.124 1269.421 282.017 1246.063 295.502"/><polygon class="cls-1" points="771.024 338.43 771.024 365.401 794.382 378.887 817.74 365.401 817.74 338.43 794.382 324.944 771.024 338.43"/><polygon class="cls-1" points="821.043 338.43 821.043 365.401 844.401 378.887 867.759 365.401 867.759 338.43 844.401 324.944 821.043 338.43"/><polygon class="cls-1" points="871.061 338.43 871.061 365.401 894.419 378.887 917.777 365.401 917.777 338.43 894.419 324.944 871.061 338.43"/><polygon class="cls-1" points="921.08 338.43 921.08 365.401 944.438 378.887 967.796 365.401 967.796 338.43 944.438 324.944 921.08 338.43"/><polygon class="cls-1" points="971.098 338.43 971.098 365.401 994.456 378.887 1017.814 365.401 1017.814 338.43 994.456 324.944 971.098 338.43"/><polygon class="cls-1" points="1021.117 338.43 1021.117 365.401 1044.475 378.887 1067.833 365.401 1067.833 338.43 1044.475 324.944 1021.117 338.43"/><polygon class="cls-1" points="1071.135 338.43 1071.135 365.401 1094.493 378.887 1117.851 365.401 1117.851 338.43 1094.493 324.944 1071.135 338.43"/><polygon class="cls-1" points="1121.154 338.43 1121.154 365.401 1144.512 378.887 1167.87 365.401 1167.87 338.43 1144.512 324.944 1121.154 338.43"/><polygon class="cls-1" points="796.034 380.911 796.034 407.883 819.392 421.368 842.749 407.883 842.749 380.911 819.392 367.426 796.034 380.911"/><polygon class="cls-1" points="846.052 380.911 846.052 407.883 869.41 421.368 892.768 407.883 892.768 380.911 869.41 367.426 846.052 380.911"/><polygon class="cls-1" points="896.071 380.911 896.071 407.883 919.429 421.368 942.786 407.883 942.786 380.911 919.429 367.426 896.071 380.911"/><polygon class="cls-1" points="946.089 380.911 946.089 407.883 969.447 421.368 992.805 407.883 992.805 380.911 969.447 367.426 946.089 380.911"/><polygon class="cls-1" points="996.108 380.911 996.108 407.883 1019.465 421.368 1042.823 407.883 1042.823 380.911 1019.465 367.426 996.108 380.911"/><polygon class="cls-1" points="1046.126 380.911 1046.126 407.883 1069.484 421.368 1092.842 407.883 1092.842 380.911 1069.484 367.426 1046.126 380.911"/><polygon class="cls-1" points="1096.145 380.911 1096.145 407.883 1119.502 421.368 1142.86 407.883 1142.86 380.911 1119.502 367.426 1096.145 380.911"/><polygon class="cls-1" points="1192.879 380.911 1169.521 367.426 1146.163 380.911 1146.163 407.883 1169.521 421.368 1192.879 407.883 1192.879 380.911"/><polygon class="cls-1" points="771.024 424.42 771.024 451.392 794.382 464.878 817.74 451.392 817.74 424.42 794.382 410.935 771.024 424.42"/><polygon class="cls-1" points="821.043 424.42 821.043 451.392 844.401 464.878 867.759 451.392 867.759 424.42 844.401 410.935 821.043 424.42"/><polygon class="cls-1" points="871.061 424.42 871.061 451.392 894.419 464.878 917.777 451.392 917.777 424.42 894.419 410.935 871.061 424.42"/><polygon class="cls-1" points="921.08 424.42 921.08 451.392 944.438 464.878 967.796 451.392 967.796 424.42 944.438 410.935 921.08 424.42"/><polygon class="cls-1" points="971.098 424.42 971.098 451.392 994.456 464.878 1017.814 451.392 1017.814 424.42 994.456 410.935 971.098 424.42"/><polygon class="cls-1" points="1021.117 424.42 1021.117 451.392 1044.475 464.878 1067.833 451.392 1067.833 424.42 1044.475 410.935 1021.117 424.42"/><polygon class="cls-1" points="1071.135 424.42 1071.135 451.392 1094.493 464.878 1117.851 451.392 1117.851 424.42 1094.493 410.935 1071.135 424.42"/><polygon class="cls-1" points="1167.87 424.42 1144.512 410.935 1121.154 424.42 1121.154 451.392 1144.512 464.878 1167.87 451.392 1167.87 424.42"/><polygon class="cls-1" points="842.749 493.873 842.749 466.902 819.392 453.416 796.034 466.902 796.034 493.873 819.392 507.359 842.749 493.873"/><polygon class="cls-1" points="892.768 493.873 892.768 466.902 869.41 453.416 846.052 466.902 846.052 493.873 869.41 507.359 892.768 493.873"/><polygon class="cls-1" points="942.786 493.873 942.786 466.902 919.429 453.416 896.071 466.902 896.071 493.873 919.429 507.359 942.786 493.873"/><polygon class="cls-1" points="992.805 493.873 992.805 466.902 969.447 453.416 946.089 466.902 946.089 493.873 969.447 507.359 992.805 493.873"/><polygon class="cls-1" points="1042.823 493.873 1042.823 466.902 1019.465 453.416 996.108 466.902 996.108 493.873 1019.465 507.359 1042.823 493.873"/><polygon class="cls-1" points="1092.842 493.873 1092.842 466.902 1069.484 453.416 1046.126 466.902 1046.126 493.873 1069.484 507.359 1092.842 493.873"/><polygon class="cls-1" points="1142.86 493.873 1142.86 466.902 1119.502 453.416 1096.145 466.902 1096.145 493.873 1119.502 507.359 1142.86 493.873"/><polygon class="cls-1" points="1192.879 466.902 1169.521 453.416 1146.163 466.902 1146.163 493.873 1169.521 507.359 1192.879 493.873 1192.879 466.902"/><polygon class="cls-1" points="818.768 537.383 818.768 510.411 795.41 496.925 772.052 510.411 772.052 537.383 795.41 550.868 818.768 537.383"/><polygon class="cls-1" points="868.786 537.383 868.786 510.411 845.429 496.925 822.071 510.411 822.071 537.383 845.429 550.868 868.786 537.383"/><polygon class="cls-1" points="918.805 537.383 918.805 510.411 895.447 496.925 872.089 510.411 872.089 537.383 895.447 550.868 918.805 537.383"/><polygon class="cls-1" points="968.823 537.383 968.823 510.411 945.466 496.925 922.108 510.411 922.108 537.383 945.466 550.868 968.823 537.383"/><polygon class="cls-1" points="1018.842 537.383 1018.842 510.411 995.484 496.925 972.126 510.411 972.126 537.383 995.484 550.868 1018.842 537.383"/><polygon class="cls-1" points="1068.86 537.383 1068.86 510.411 1045.502 496.925 1022.145 510.411 1022.145 537.383 1045.502 550.868 1068.86 537.383"/><polygon class="cls-1" points="1118.879 537.383 1118.879 510.411 1095.521 496.925 1072.163 510.411 1072.163 537.383 1095.521 550.868 1118.879 537.383"/><polygon class="cls-1" points="1168.897 537.383 1168.897 510.411 1145.539 496.925 1122.182 510.411 1122.182 537.383 1145.539 550.868 1168.897 537.383"/><polygon class="cls-1" points="843.777 579.864 843.777 552.893 820.419 539.407 797.061 552.893 797.061 579.864 820.419 593.35 843.777 579.864"/><polygon class="cls-1" points="893.796 579.864 893.796 552.893 870.438 539.407 847.08 552.893 847.08 579.864 870.438 593.35 893.796 579.864"/><polygon class="cls-1" points="943.814 579.864 943.814 552.893 920.456 539.407 897.098 552.893 897.098 579.864 920.456 593.35 943.814 579.864"/><polygon class="cls-1" points="993.833 579.864 993.833 552.893 970.475 539.407 947.117 552.893 947.117 579.864 970.475 593.35 993.833 579.864"/><polygon class="cls-1" points="1043.851 579.864 1043.851 552.893 1020.493 539.407 997.135 552.893 997.135 579.864 1020.493 593.35 1043.851 579.864"/><polygon class="cls-1" points="1093.87 579.864 1093.87 552.893 1070.512 539.407 1047.154 552.893 1047.154 579.864 1070.512 593.35 1093.87 579.864"/><polygon class="cls-1" points="1143.888 579.864 1143.888 552.893 1120.53 539.407 1097.172 552.893 1097.172 579.864 1120.53 593.35 1143.888 579.864"/><polygon class="cls-1" points="1193.906 552.893 1170.549 539.407 1147.191 552.893 1147.191 579.864 1170.549 593.35 1193.906 579.864 1193.906 552.893"/><polygon class="cls-1" points="818.768 623.373 818.768 596.402 795.41 582.916 772.052 596.402 772.052 623.373 795.41 636.859 818.768 623.373"/><polygon class="cls-1" points="868.786 623.373 868.786 596.402 845.429 582.916 822.071 596.402 822.071 623.373 845.429 636.859 868.786 623.373"/><polygon class="cls-1" points="918.805 623.373 918.805 596.402 895.447 582.916 872.089 596.402 872.089 623.373 895.447 636.859 918.805 623.373"/><polygon class="cls-1" points="968.823 623.373 968.823 596.402 945.466 582.916 922.108 596.402 922.108 623.373 945.466 636.859 968.823 623.373"/><polygon class="cls-1" points="1018.842 623.373 1018.842 596.402 995.484 582.916 972.126 596.402 972.126 623.373 995.484 636.859 1018.842 623.373"/><polygon class="cls-1" points="1068.86 623.373 1068.86 596.402 1045.502 582.916 1022.145 596.402 1022.145 623.373 1045.502 636.859 1068.86 623.373"/><polygon class="cls-1" points="1118.879 623.373 1118.879 596.402 1095.521 582.916 1072.163 596.402 1072.163 623.373 1095.521 636.859 1118.879 623.373"/><polygon class="cls-1" points="1168.897 623.373 1168.897 596.402 1145.539 582.916 1122.182 596.402 1122.182 623.373 1145.539 636.859 1168.897 623.373"/><polygon class="cls-1" points="843.777 665.855 843.777 638.883 820.419 625.398 797.061 638.883 797.061 665.855 820.419 679.34 843.777 665.855"/><polygon class="cls-1" points="893.796 665.855 893.796 638.883 870.438 625.398 847.08 638.883 847.08 665.855 870.438 679.34 893.796 665.855"/><polygon class="cls-1" points="943.814 665.855 943.814 638.883 920.456 625.398 897.098 638.883 897.098 665.855 920.456 679.34 943.814 665.855"/><polygon class="cls-1" points="993.833 665.855 993.833 638.883 970.475 625.398 947.117 638.883 947.117 665.855 970.475 679.34 993.833 665.855"/><polygon class="cls-1" points="1043.851 665.855 1043.851 638.883 1020.493 625.398 997.135 638.883 997.135 665.855 1020.493 679.34 1043.851 665.855"/><polygon class="cls-1" points="1093.87 665.855 1093.87 638.883 1070.512 625.398 1047.154 638.883 1047.154 665.855 1070.512 679.34 1093.87 665.855"/><polygon class="cls-1" points="1143.888 665.855 1143.888 638.883 1120.53 625.398 1097.172 638.883 1097.172 665.855 1120.53 679.34 1143.888 665.855"/><polygon class="cls-1" points="1193.906 665.855 1193.906 638.883 1170.549 625.398 1147.191 638.883 1147.191 665.855 1170.549 679.34 1193.906 665.855"/><polygon class="cls-1" points="1218.226 337.678 1194.868 324.193 1171.51 337.678 1171.51 364.65 1194.868 378.135 1218.226 364.65 1218.226 337.678"/><polygon class="cls-1" points="1221.529 337.678 1221.529 364.65 1244.887 378.135 1268.245 364.65 1268.245 337.678 1244.887 324.193 1221.529 337.678"/><polygon class="cls-1" points="1271.547 364.65 1280 369.53 1280 332.798 1271.547 337.678 1271.547 364.65"/><polygon class="cls-1" points="1243.235 380.16 1219.877 366.674 1196.52 380.16 1196.52 407.131 1219.877 420.617 1243.235 407.131 1243.235 380.16"/><polygon class="cls-1" points="1246.538 380.16 1246.538 407.131 1269.896 420.617 1280 414.783 1280 372.508 1269.896 366.674 1246.538 380.16"/><polygon class="cls-1" points="1218.226 423.669 1194.868 410.183 1171.51 423.669 1171.51 450.64 1194.868 464.126 1218.226 450.64 1218.226 423.669"/><polygon class="cls-1" points="1221.529 423.669 1221.529 450.64 1244.887 464.126 1268.245 450.64 1268.245 423.669 1244.887 410.183 1221.529 423.669"/><polygon class="cls-1" points="1271.547 450.64 1280 455.521 1280 418.789 1271.547 423.669 1271.547 450.64"/><polygon class="cls-1" points="1243.235 466.151 1219.877 452.665 1196.52 466.151 1196.52 493.122 1219.877 506.608 1243.235 493.122 1243.235 466.151"/><polygon class="cls-1" points="1246.538 466.151 1246.538 493.122 1269.896 506.608 1280 500.774 1280 458.498 1269.896 452.665 1246.538 466.151"/><polygon class="cls-1" points="1219.254 509.66 1195.896 496.174 1172.538 509.66 1172.538 536.631 1195.896 550.117 1219.254 536.631 1219.254 509.66"/><polygon class="cls-1" points="1222.557 509.66 1222.557 536.631 1245.914 550.117 1269.272 536.631 1269.272 509.66 1245.914 496.174 1222.557 509.66"/><polygon class="cls-1" points="1272.575 536.631 1280 540.918 1280 505.373 1272.575 509.66 1272.575 536.631"/><polygon class="cls-1" points="1244.263 552.141 1220.905 538.656 1197.547 552.141 1197.547 579.113 1220.905 592.598 1244.263 579.113 1244.263 552.141"/><polygon class="cls-1" points="1247.566 552.141 1247.566 579.113 1270.924 592.598 1280 587.358 1280 543.896 1270.924 538.656 1247.566 552.141"/><polygon class="cls-1" points="1219.254 595.65 1195.896 582.165 1172.538 595.65 1172.538 622.622 1195.896 636.107 1219.254 622.622 1219.254 595.65"/><polygon class="cls-1" points="1222.557 595.65 1222.557 622.622 1245.914 636.107 1269.272 622.622 1269.272 595.65 1245.914 582.165 1222.557 595.65"/><polygon class="cls-1" points="1272.575 622.622 1280 626.909 1280 591.364 1272.575 595.65 1272.575 622.622"/><polygon class="cls-1" points="1244.263 638.132 1220.905 624.646 1197.547 638.132 1197.547 665.103 1220.905 678.589 1244.263 665.103 1244.263 638.132"/><polygon class="cls-1" points="1247.566 638.132 1247.566 665.103 1270.924 678.589 1280 673.349 1280 629.886 1270.924 624.646 1247.566 638.132"/><polygon class="cls-1" points="18.237 681.8 0 671.271 0 719.301 18.237 708.772 18.237 681.8"/><polygon class="cls-1" points="68.256 708.772 68.256 681.8 44.898 668.315 21.54 681.8 21.54 708.772 44.898 722.257 68.256 708.772"/><polygon class="cls-1" points="71.559 708.772 94.917 722.257 118.274 708.772 118.274 681.8 94.917 668.315 71.559 681.8 71.559 708.772"/><polygon class="cls-1" points="168.293 708.772 168.293 681.8 144.935 668.315 121.577 681.8 121.577 708.772 144.935 722.257 168.293 708.772"/><polygon class="cls-1" points="218.311 708.772 218.311 681.8 194.953 668.315 171.596 681.8 171.596 708.772 194.953 722.257 218.311 708.772"/><polygon class="cls-1" points="268.33 708.772 268.33 681.8 244.972 668.315 221.614 681.8 221.614 708.772 244.972 722.257 268.33 708.772"/><polygon class="cls-1" points="318.348 708.772 318.348 681.8 294.99 668.315 271.633 681.8 271.633 708.772 294.99 722.257 318.348 708.772"/><polygon class="cls-1" points="368.367 708.772 368.367 681.8 345.009 668.315 321.651 681.8 321.651 708.772 345.009 722.257 368.367 708.772"/><polygon class="cls-1" points="43.247 751.253 43.247 724.282 19.889 710.796 0 722.279 0 753.256 19.889 764.739 43.247 751.253"/><polygon class="cls-1" points="46.549 751.253 69.907 764.739 93.265 751.253 93.265 724.282 69.907 710.796 46.549 724.282 46.549 751.253"/><polygon class="cls-1" points="96.568 751.253 119.926 764.739 143.284 751.253 143.284 724.282 119.926 710.796 96.568 724.282 96.568 751.253"/><polygon class="cls-1" points="193.302 751.253 193.302 724.282 169.944 710.796 146.586 724.282 146.586 751.253 169.944 764.739 193.302 751.253"/><polygon class="cls-1" points="243.321 751.253 243.321 724.282 219.963 710.796 196.605 724.282 196.605 751.253 219.963 764.739 243.321 751.253"/><polygon class="cls-1" points="293.339 751.253 293.339 724.282 269.981 710.796 246.623 724.282 246.623 751.253 269.981 764.739 293.339 751.253"/><polygon class="cls-1" points="343.358 751.253 343.358 724.282 320 710.796 296.642 724.282 296.642 751.253 320 764.739 343.358 751.253"/><polygon class="cls-1" points="393.376 751.253 393.376 724.282 370.018 710.796 346.66 724.282 346.66 751.253 370.018 764.739 393.376 751.253"/><polygon class="cls-1" points="18.237 767.791 0 757.262 0 805.292 18.237 794.762 18.237 767.791"/><polygon class="cls-1" points="68.256 794.762 68.256 767.791 44.898 754.305 21.54 767.791 21.54 794.762 44.898 808.248 68.256 794.762"/><polygon class="cls-1" points="71.559 794.762 94.917 808.248 118.274 794.762 118.274 767.791 94.917 754.305 71.559 767.791 71.559 794.762"/><polygon class="cls-1" points="168.293 794.762 168.293 767.791 144.935 754.305 121.577 767.791 121.577 794.762 144.935 808.248 168.293 794.762"/><polygon class="cls-1" points="218.311 794.762 218.311 767.791 194.953 754.305 171.596 767.791 171.596 794.762 194.953 808.248 218.311 794.762"/><polygon class="cls-1" points="268.33 794.762 268.33 767.791 244.972 754.305 221.614 767.791 221.614 794.762 244.972 808.248 268.33 794.762"/><polygon class="cls-1" points="318.348 794.762 318.348 767.791 294.99 754.305 271.633 767.791 271.633 794.762 294.99 808.248 318.348 794.762"/><polygon class="cls-1" points="368.367 794.762 368.367 767.791 345.009 754.305 321.651 767.791 321.651 794.762 345.009 808.248 368.367 794.762"/><polygon class="cls-1" points="43.247 837.244 43.247 810.272 19.889 796.787 0 808.269 0 839.247 19.889 850.729 43.247 837.244"/><polygon class="cls-1" points="46.549 837.244 69.907 850.729 93.265 837.244 93.265 810.272 69.907 796.787 46.549 810.272 46.549 837.244"/><polygon class="cls-1" points="143.284 837.244 143.284 810.272 119.926 796.787 96.568 810.272 96.568 837.244 119.926 850.729 143.284 837.244"/><polygon class="cls-1" points="193.302 837.244 193.302 810.272 169.944 796.787 146.586 810.272 146.586 837.244 169.944 850.729 193.302 837.244"/><polygon class="cls-1" points="243.321 837.244 243.321 810.272 219.963 796.787 196.605 810.272 196.605 837.244 219.963 850.729 243.321 837.244"/><polygon class="cls-1" points="293.339 837.244 293.339 810.272 269.981 796.787 246.623 810.272 246.623 837.244 269.981 850.729 293.339 837.244"/><polygon class="cls-1" points="343.358 837.244 343.358 810.272 320 796.787 296.642 810.272 296.642 837.244 320 850.729 343.358 837.244"/><polygon class="cls-1" points="393.376 837.244 393.376 810.272 370.018 796.787 346.66 810.272 346.66 837.244 370.018 850.729 393.376 837.244"/><polygon class="cls-1" points="19.265 853.782 0 842.659 0 891.876 19.265 880.753 19.265 853.782"/><polygon class="cls-1" points="69.284 880.753 69.284 853.782 45.926 840.296 22.568 853.782 22.568 880.753 45.926 894.239 69.284 880.753"/><polygon class="cls-1" points="119.302 880.753 119.302 853.782 95.944 840.296 72.586 853.782 72.586 880.753 95.944 894.239 119.302 880.753"/><polygon class="cls-1" points="169.321 880.753 169.321 853.782 145.963 840.296 122.605 853.782 122.605 880.753 145.963 894.239 169.321 880.753"/><polygon class="cls-1" points="219.339 880.753 219.339 853.782 195.981 840.296 172.623 853.782 172.623 880.753 195.981 894.239 219.339 880.753"/><polygon class="cls-1" points="269.358 880.753 269.358 853.782 246 840.296 222.642 853.782 222.642 880.753 246 894.239 269.358 880.753"/><polygon class="cls-1" points="319.376 880.753 319.376 853.782 296.018 840.296 272.66 853.782 272.66 880.753 296.018 894.239 319.376 880.753"/><polygon class="cls-1" points="369.395 880.753 369.395 853.782 346.037 840.296 322.679 853.782 322.679 880.753 346.037 894.239 369.395 880.753"/><polygon class="cls-1" points="44.274 923.234 44.274 896.263 20.917 882.777 0 894.854 0 924.644 20.917 936.72 44.274 923.234"/><polygon class="cls-1" points="47.577 923.234 70.935 936.72 94.293 923.234 94.293 896.263 70.935 882.777 47.577 896.263 47.577 923.234"/><polygon class="cls-1" points="144.311 923.234 144.311 896.263 120.954 882.777 97.596 896.263 97.596 923.234 120.954 936.72 144.311 923.234"/><polygon class="cls-1" points="194.33 923.234 194.33 896.263 170.972 882.777 147.614 896.263 147.614 923.234 170.972 936.72 194.33 923.234"/><polygon class="cls-1" points="244.348 923.234 244.348 896.263 220.99 882.777 197.633 896.263 197.633 923.234 220.99 936.72 244.348 923.234"/><polygon class="cls-1" points="294.367 923.234 294.367 896.263 271.009 882.777 247.651 896.263 247.651 923.234 271.009 936.72 294.367 923.234"/><polygon class="cls-1" points="344.385 923.234 344.385 896.263 321.027 882.777 297.67 896.263 297.67 923.234 321.027 936.72 344.385 923.234"/><polygon class="cls-1" points="394.404 923.234 394.404 896.263 371.046 882.777 347.688 896.263 347.688 923.234 371.046 936.72 394.404 923.234"/><polygon class="cls-1" points="19.265 939.772 0 928.649 0 977.866 19.265 966.744 19.265 939.772"/><polygon class="cls-1" points="69.284 939.772 45.926 926.287 22.568 939.772 22.568 966.744 45.926 980.229 69.284 966.744 69.284 939.772"/><polygon class="cls-1" points="119.302 939.772 95.944 926.287 72.586 939.772 72.586 966.744 95.944 980.229 119.302 966.744 119.302 939.772"/><polygon class="cls-1" points="169.321 939.772 145.963 926.287 122.605 939.772 122.605 966.744 145.963 980.229 169.321 966.744 169.321 939.772"/><polygon class="cls-1" points="219.339 939.772 195.981 926.287 172.623 939.772 172.623 966.744 195.981 980.229 219.339 966.744 219.339 939.772"/><polygon class="cls-1" points="269.358 939.772 246 926.287 222.642 939.772 222.642 966.744 246 980.229 269.358 966.744 269.358 939.772"/><polygon class="cls-1" points="319.376 939.772 296.018 926.287 272.66 939.772 272.66 966.744 296.018 980.229 319.376 966.744 319.376 939.772"/><polygon class="cls-1" points="369.395 939.772 346.037 926.287 322.679 939.772 322.679 966.744 346.037 980.229 369.395 966.744 369.395 939.772"/><polygon class="cls-1" points="44.274 1009.225 44.274 982.254 20.917 968.768 0 980.844 0 1010.635 20.917 1022.711 44.274 1009.225"/><polygon class="cls-1" points="47.577 982.254 47.577 1009.225 70.935 1022.711 94.293 1009.225 94.293 982.254 70.935 968.768 47.577 982.254"/><polygon class="cls-1" points="97.596 982.254 97.596 1009.225 120.954 1022.711 144.311 1009.225 144.311 982.254 120.954 968.768 97.596 982.254"/><polygon class="cls-1" points="147.614 982.254 147.614 1009.225 170.972 1022.711 194.33 1009.225 194.33 982.254 170.972 968.768 147.614 982.254"/><polygon class="cls-1" points="197.633 982.254 197.633 1009.225 220.99 1022.711 244.348 1009.225 244.348 982.254 220.99 968.768 197.633 982.254"/><polygon class="cls-1" points="247.651 982.254 247.651 1009.225 271.009 1022.711 294.367 1009.225 294.367 982.254 271.009 968.768 247.651 982.254"/><polygon class="cls-1" points="297.67 982.254 297.67 1009.225 321.027 1022.711 344.385 1009.225 344.385 982.254 321.027 968.768 297.67 982.254"/><polygon class="cls-1" points="347.688 982.254 347.688 1009.225 371.046 1022.711 394.404 1009.225 394.404 982.254 371.046 968.768 347.688 982.254"/><polygon class="cls-1" points="418.723 708.02 418.723 681.049 395.365 667.563 372.008 681.049 372.008 708.02 395.365 721.506 418.723 708.02"/><polygon class="cls-1" points="468.742 708.02 468.742 681.049 445.384 667.563 422.026 681.049 422.026 708.02 445.384 721.506 468.742 708.02"/><polygon class="cls-1" points="518.76 708.02 518.76 681.049 495.402 667.563 472.044 681.049 472.044 708.02 495.402 721.506 518.76 708.02"/><polygon class="cls-1" points="568.779 708.02 568.779 681.049 545.421 667.563 522.063 681.049 522.063 708.02 545.421 721.506 568.779 708.02"/><polygon class="cls-1" points="618.797 708.02 618.797 681.049 595.439 667.563 572.081 681.049 572.081 708.02 595.439 721.506 618.797 708.02"/><polygon class="cls-1" points="668.816 708.02 668.816 681.049 645.458 667.563 622.1 681.049 622.1 708.02 645.458 721.506 668.816 708.02"/><polygon class="cls-1" points="718.834 708.02 718.834 681.049 695.476 667.563 672.118 681.049 672.118 708.02 695.476 721.506 718.834 708.02"/><polygon class="cls-1" points="768.853 708.02 768.853 681.049 745.495 667.563 722.137 681.049 722.137 708.02 745.495 721.506 768.853 708.02"/><polygon class="cls-1" points="443.733 750.502 443.733 723.53 420.375 710.045 397.017 723.53 397.017 750.502 420.375 763.987 443.733 750.502"/><polygon class="cls-1" points="493.751 750.502 493.751 723.53 470.393 710.045 447.035 723.53 447.035 750.502 470.393 763.987 493.751 750.502"/><polygon class="cls-1" points="543.769 750.502 543.769 723.53 520.412 710.045 497.054 723.53 497.054 750.502 520.412 763.987 543.769 750.502"/><polygon class="cls-1" points="593.788 750.502 593.788 723.53 570.43 710.045 547.072 723.53 547.072 750.502 570.43 763.987 593.788 750.502"/><polygon class="cls-1" points="643.806 750.502 643.806 723.53 620.449 710.045 597.091 723.53 597.091 750.502 620.449 763.987 643.806 750.502"/><polygon class="cls-1" points="693.825 750.502 693.825 723.53 670.467 710.045 647.109 723.53 647.109 750.502 670.467 763.987 693.825 750.502"/><polygon class="cls-1" points="743.843 750.502 743.843 723.53 720.485 710.045 697.128 723.53 697.128 750.502 720.485 763.987 743.843 750.502"/><polygon class="cls-1" points="793.862 750.502 793.862 723.53 770.504 710.045 747.146 723.53 747.146 750.502 770.504 763.987 793.862 750.502"/><polygon class="cls-1" points="418.723 794.011 418.723 767.04 395.365 753.554 372.008 767.04 372.008 794.011 395.365 807.497 418.723 794.011"/><polygon class="cls-1" points="468.742 794.011 468.742 767.04 445.384 753.554 422.026 767.04 422.026 794.011 445.384 807.497 468.742 794.011"/><polygon class="cls-1" points="518.76 794.011 518.76 767.04 495.402 753.554 472.044 767.04 472.044 794.011 495.402 807.497 518.76 794.011"/><polygon class="cls-1" points="568.779 794.011 568.779 767.04 545.421 753.554 522.063 767.04 522.063 794.011 545.421 807.497 568.779 794.011"/><polygon class="cls-1" points="618.797 794.011 618.797 767.04 595.439 753.554 572.081 767.04 572.081 794.011 595.439 807.497 618.797 794.011"/><polygon class="cls-1" points="668.816 794.011 668.816 767.04 645.458 753.554 622.1 767.04 622.1 794.011 645.458 807.497 668.816 794.011"/><polygon class="cls-1" points="718.834 794.011 718.834 767.04 695.476 753.554 672.118 767.04 672.118 794.011 695.476 807.497 718.834 794.011"/><polygon class="cls-1" points="768.853 794.011 768.853 767.04 745.495 753.554 722.137 767.04 722.137 794.011 745.495 807.497 768.853 794.011"/><polygon class="cls-1" points="443.733 836.492 443.733 809.521 420.375 796.035 397.017 809.521 397.017 836.492 420.375 849.978 443.733 836.492"/><polygon class="cls-1" points="493.751 836.492 493.751 809.521 470.393 796.035 447.035 809.521 447.035 836.492 470.393 849.978 493.751 836.492"/><polygon class="cls-1" points="543.769 836.492 543.769 809.521 520.412 796.035 497.054 809.521 497.054 836.492 520.412 849.978 543.769 836.492"/><polygon class="cls-1" points="593.788 836.492 593.788 809.521 570.43 796.035 547.072 809.521 547.072 836.492 570.43 849.978 593.788 836.492"/><polygon class="cls-1" points="643.806 836.492 643.806 809.521 620.449 796.035 597.091 809.521 597.091 836.492 620.449 849.978 643.806 836.492"/><polygon class="cls-1" points="693.825 836.492 693.825 809.521 670.467 796.035 647.109 809.521 647.109 836.492 670.467 849.978 693.825 836.492"/><polygon class="cls-1" points="743.843 836.492 743.843 809.521 720.485 796.035 697.128 809.521 697.128 836.492 720.485 849.978 743.843 836.492"/><polygon class="cls-1" points="793.862 836.492 793.862 809.521 770.504 796.035 747.146 809.521 747.146 836.492 770.504 849.978 793.862 836.492"/><polygon class="cls-1" points="419.751 880.002 419.751 853.03 396.393 839.544 373.035 853.03 373.035 880.002 396.393 893.487 419.751 880.002"/><polygon class="cls-1" points="469.77 880.002 469.77 853.03 446.412 839.544 423.054 853.03 423.054 880.002 446.412 893.487 469.77 880.002"/><polygon class="cls-1" points="519.788 880.002 519.788 853.03 496.43 839.544 473.072 853.03 473.072 880.002 496.43 893.487 519.788 880.002"/><polygon class="cls-1" points="569.807 880.002 569.807 853.03 546.449 839.544 523.091 853.03 523.091 880.002 546.449 893.487 569.807 880.002"/><polygon class="cls-1" points="619.825 880.002 619.825 853.03 596.467 839.544 573.109 853.03 573.109 880.002 596.467 893.487 619.825 880.002"/><polygon class="cls-1" points="669.843 880.002 669.843 853.03 646.486 839.544 623.128 853.03 623.128 880.002 646.486 893.487 669.843 880.002"/><polygon class="cls-1" points="719.862 880.002 719.862 853.03 696.504 839.544 673.146 853.03 673.146 880.002 696.504 893.487 719.862 880.002"/><polygon class="cls-1" points="769.88 880.002 769.88 853.03 746.523 839.544 723.165 853.03 723.165 880.002 746.523 893.487 769.88 880.002"/><polygon class="cls-1" points="444.76 922.483 444.76 895.512 421.402 882.026 398.044 895.512 398.044 922.483 421.402 935.969 444.76 922.483"/><polygon class="cls-1" points="494.779 922.483 494.779 895.512 471.421 882.026 448.063 895.512 448.063 922.483 471.421 935.969 494.779 922.483"/><polygon class="cls-1" points="544.797 922.483 544.797 895.512 521.439 882.026 498.081 895.512 498.081 922.483 521.439 935.969 544.797 922.483"/><polygon class="cls-1" points="594.816 922.483 594.816 895.512 571.458 882.026 548.1 895.512 548.1 922.483 571.458 935.969 594.816 922.483"/><polygon class="cls-1" points="644.834 922.483 644.834 895.512 621.476 882.026 598.118 895.512 598.118 922.483 621.476 935.969 644.834 922.483"/><polygon class="cls-1" points="694.853 922.483 694.853 895.512 671.495 882.026 648.137 895.512 648.137 922.483 671.495 935.969 694.853 922.483"/><polygon class="cls-1" points="744.871 922.483 744.871 895.512 721.513 882.026 698.155 895.512 698.155 922.483 721.513 935.969 744.871 922.483"/><polygon class="cls-1" points="794.89 922.483 794.89 895.512 771.532 882.026 748.174 895.512 748.174 922.483 771.532 935.969 794.89 922.483"/><polygon class="cls-1" points="419.751 939.021 396.393 925.535 373.035 939.021 373.035 965.992 396.393 979.478 419.751 965.992 419.751 939.021"/><polygon class="cls-1" points="469.77 939.021 446.412 925.535 423.054 939.021 423.054 965.992 446.412 979.478 469.77 965.992 469.77 939.021"/><polygon class="cls-1" points="519.788 939.021 496.43 925.535 473.072 939.021 473.072 965.992 496.43 979.478 519.788 965.992 519.788 939.021"/><polygon class="cls-1" points="569.807 939.021 546.449 925.535 523.091 939.021 523.091 965.992 546.449 979.478 569.807 965.992 569.807 939.021"/><polygon class="cls-1" points="619.825 939.021 596.467 925.535 573.109 939.021 573.109 965.992 596.467 979.478 619.825 965.992 619.825 939.021"/><polygon class="cls-1" points="669.843 939.021 646.486 925.535 623.128 939.021 623.128 965.992 646.486 979.478 669.843 965.992 669.843 939.021"/><polygon class="cls-1" points="719.862 939.021 696.504 925.535 673.146 939.021 673.146 965.992 696.504 979.478 719.862 965.992 719.862 939.021"/><polygon class="cls-1" points="769.88 939.021 746.523 925.535 723.165 939.021 723.165 965.992 746.523 979.478 769.88 965.992 769.88 939.021"/><polygon class="cls-1" points="398.044 981.502 398.044 1008.474 421.402 1021.959 444.76 1008.474 444.76 981.502 421.402 968.017 398.044 981.502"/><polygon class="cls-1" points="448.063 981.502 448.063 1008.474 471.421 1021.959 494.779 1008.474 494.779 981.502 471.421 968.017 448.063 981.502"/><polygon class="cls-1" points="498.081 981.502 498.081 1008.474 521.439 1021.959 544.797 1008.474 544.797 981.502 521.439 968.017 498.081 981.502"/><polygon class="cls-1" points="548.1 981.502 548.1 1008.474 571.458 1021.959 594.816 1008.474 594.816 981.502 571.458 968.017 548.1 981.502"/><polygon class="cls-1" points="598.118 981.502 598.118 1008.474 621.476 1021.959 644.834 1008.474 644.834 981.502 621.476 968.017 598.118 981.502"/><polygon class="cls-1" points="648.137 981.502 648.137 1008.474 671.495 1021.959 694.853 1008.474 694.853 981.502 671.495 968.017 648.137 981.502"/><polygon class="cls-1" points="698.155 981.502 698.155 1008.474 721.513 1021.959 744.871 1008.474 744.871 981.502 721.513 968.017 698.155 981.502"/><polygon class="cls-1" points="748.174 981.502 748.174 1008.474 771.532 1021.959 794.89 1008.474 794.89 981.502 771.532 968.017 748.174 981.502"/><polygon class="cls-1" points="0 1024 18.996 1024 0 1013.033 0 1024"/><polygon class="cls-1" points="23.787 1024 69.014 1024 46.401 1010.944 23.787 1024"/><polygon class="cls-1" points="73.806 1024 119.033 1024 96.419 1010.944 73.806 1024"/><polygon class="cls-1" points="123.824 1024 169.051 1024 146.438 1010.944 123.824 1024"/><polygon class="cls-1" points="173.843 1024 219.07 1024 196.456 1010.944 173.843 1024"/><polygon class="cls-1" points="223.861 1024 269.088 1024 246.475 1010.944 223.861 1024"/><polygon class="cls-1" points="273.88 1024 319.107 1024 296.493 1010.944 273.88 1024"/><polygon class="cls-1" points="323.898 1024 369.125 1024 346.512 1010.944 323.898 1024"/><polygon class="cls-1" points="396.868 1010.193 373.51 1023.678 373.51 1024 420.226 1024 420.226 1023.678 396.868 1010.193"/><polygon class="cls-1" points="446.887 1010.193 423.529 1023.678 423.529 1024 470.245 1024 470.245 1023.678 446.887 1010.193"/><polygon class="cls-1" points="496.905 1010.193 473.547 1023.678 473.547 1024 520.263 1024 520.263 1023.678 496.905 1010.193"/><polygon class="cls-1" points="546.924 1010.193 523.566 1023.678 523.566 1024 570.281 1024 570.281 1023.678 546.924 1010.193"/><polygon class="cls-1" points="596.942 1010.193 573.584 1023.678 573.584 1024 620.3 1024 620.3 1023.678 596.942 1010.193"/><polygon class="cls-1" points="646.961 1010.193 623.603 1023.678 623.603 1024 670.318 1024 670.318 1023.678 646.961 1010.193"/><polygon class="cls-1" points="696.979 1010.193 673.621 1023.678 673.621 1024 720.337 1024 720.337 1023.678 696.979 1010.193"/><polygon class="cls-1" points="746.997 1010.193 723.64 1023.678 723.64 1024 770.355 1024 770.355 1023.678 746.997 1010.193"/><polygon class="cls-1" points="818.237 707.772 818.237 680.8 794.88 667.315 771.522 680.8 771.522 707.772 794.88 721.257 818.237 707.772"/><polygon class="cls-1" points="868.256 707.772 868.256 680.8 844.898 667.315 821.54 680.8 821.54 707.772 844.898 721.257 868.256 707.772"/><polygon class="cls-1" points="918.274 707.772 918.274 680.8 894.917 667.315 871.559 680.8 871.559 707.772 894.917 721.257 918.274 707.772"/><polygon class="cls-1" points="968.293 707.772 968.293 680.8 944.935 667.315 921.577 680.8 921.577 707.772 944.935 721.257 968.293 707.772"/><polygon class="cls-1" points="1018.311 707.772 1018.311 680.8 994.953 667.315 971.596 680.8 971.596 707.772 994.953 721.257 1018.311 707.772"/><polygon class="cls-1" points="1068.33 707.772 1068.33 680.8 1044.972 667.315 1021.614 680.8 1021.614 707.772 1044.972 721.257 1068.33 707.772"/><polygon class="cls-1" points="1118.348 707.772 1118.348 680.8 1094.99 667.315 1071.633 680.8 1071.633 707.772 1094.99 721.257 1118.348 707.772"/><polygon class="cls-1" points="1168.367 707.772 1168.367 680.8 1145.009 667.315 1121.651 680.8 1121.651 707.772 1145.009 721.257 1168.367 707.772"/><polygon class="cls-1" points="843.247 750.253 843.247 723.282 819.889 709.796 796.531 723.282 796.531 750.253 819.889 763.739 843.247 750.253"/><polygon class="cls-1" points="893.265 750.253 893.265 723.282 869.907 709.796 846.549 723.282 846.549 750.253 869.907 763.739 893.265 750.253"/><polygon class="cls-1" points="943.284 750.253 943.284 723.282 919.926 709.796 896.568 723.282 896.568 750.253 919.926 763.739 943.284 750.253"/><polygon class="cls-1" points="993.302 750.253 993.302 723.282 969.944 709.796 946.586 723.282 946.586 750.253 969.944 763.739 993.302 750.253"/><polygon class="cls-1" points="1043.321 750.253 1043.321 723.282 1019.963 709.796 996.605 723.282 996.605 750.253 1019.963 763.739 1043.321 750.253"/><polygon class="cls-1" points="1093.339 750.253 1093.339 723.282 1069.981 709.796 1046.623 723.282 1046.623 750.253 1069.981 763.739 1093.339 750.253"/><polygon class="cls-1" points="1143.358 750.253 1143.358 723.282 1120 709.796 1096.642 723.282 1096.642 750.253 1120 763.739 1143.358 750.253"/><polygon class="cls-1" points="1193.376 750.253 1193.376 723.282 1170.018 709.796 1146.66 723.282 1146.66 750.253 1170.018 763.739 1193.376 750.253"/><polygon class="cls-1" points="818.237 793.762 818.237 766.791 794.88 753.305 771.522 766.791 771.522 793.762 794.88 807.248 818.237 793.762"/><polygon class="cls-1" points="868.256 793.762 868.256 766.791 844.898 753.305 821.54 766.791 821.54 793.762 844.898 807.248 868.256 793.762"/><polygon class="cls-1" points="918.274 793.762 918.274 766.791 894.917 753.305 871.559 766.791 871.559 793.762 894.917 807.248 918.274 793.762"/><polygon class="cls-1" points="968.293 793.762 968.293 766.791 944.935 753.305 921.577 766.791 921.577 793.762 944.935 807.248 968.293 793.762"/><polygon class="cls-1" points="1018.311 793.762 1018.311 766.791 994.953 753.305 971.596 766.791 971.596 793.762 994.953 807.248 1018.311 793.762"/><polygon class="cls-1" points="1068.33 793.762 1068.33 766.791 1044.972 753.305 1021.614 766.791 1021.614 793.762 1044.972 807.248 1068.33 793.762"/><polygon class="cls-1" points="1118.348 793.762 1118.348 766.791 1094.99 753.305 1071.633 766.791 1071.633 793.762 1094.99 807.248 1118.348 793.762"/><polygon class="cls-1" points="1168.367 793.762 1168.367 766.791 1145.009 753.305 1121.651 766.791 1121.651 793.762 1145.009 807.248 1168.367 793.762"/><polygon class="cls-1" points="843.247 836.244 843.247 809.272 819.889 795.787 796.531 809.272 796.531 836.244 819.889 849.729 843.247 836.244"/><polygon class="cls-1" points="893.265 836.244 893.265 809.272 869.907 795.787 846.549 809.272 846.549 836.244 869.907 849.729 893.265 836.244"/><polygon class="cls-1" points="943.284 836.244 943.284 809.272 919.926 795.787 896.568 809.272 896.568 836.244 919.926 849.729 943.284 836.244"/><polygon class="cls-1" points="993.302 836.244 993.302 809.272 969.944 795.787 946.586 809.272 946.586 836.244 969.944 849.729 993.302 836.244"/><polygon class="cls-1" points="1043.321 836.244 1043.321 809.272 1019.963 795.787 996.605 809.272 996.605 836.244 1019.963 849.729 1043.321 836.244"/><polygon class="cls-1" points="1093.339 836.244 1093.339 809.272 1069.981 795.787 1046.623 809.272 1046.623 836.244 1069.981 849.729 1093.339 836.244"/><polygon class="cls-1" points="1143.358 836.244 1143.358 809.272 1120 795.787 1096.642 809.272 1096.642 836.244 1120 849.729 1143.358 836.244"/><polygon class="cls-1" points="1193.376 836.244 1193.376 809.272 1170.018 795.787 1146.66 809.272 1146.66 836.244 1170.018 849.729 1193.376 836.244"/><polygon class="cls-1" points="819.265 879.753 819.265 852.782 795.907 839.296 772.549 852.782 772.549 879.753 795.907 893.239 819.265 879.753"/><polygon class="cls-1" points="869.284 879.753 869.284 852.782 845.926 839.296 822.568 852.782 822.568 879.753 845.926 893.239 869.284 879.753"/><polygon class="cls-1" points="919.302 879.753 919.302 852.782 895.944 839.296 872.586 852.782 872.586 879.753 895.944 893.239 919.302 879.753"/><polygon class="cls-1" points="969.321 879.753 969.321 852.782 945.963 839.296 922.605 852.782 922.605 879.753 945.963 893.239 969.321 879.753"/><polygon class="cls-1" points="1019.339 879.753 1019.339 852.782 995.981 839.296 972.623 852.782 972.623 879.753 995.981 893.239 1019.339 879.753"/><polygon class="cls-1" points="1069.358 879.753 1069.358 852.782 1046 839.296 1022.642 852.782 1022.642 879.753 1046 893.239 1069.358 879.753"/><polygon class="cls-1" points="1119.376 879.753 1119.376 852.782 1096.018 839.296 1072.66 852.782 1072.66 879.753 1096.018 893.239 1119.376 879.753"/><polygon class="cls-1" points="1169.395 879.753 1169.395 852.782 1146.037 839.296 1122.679 852.782 1122.679 879.753 1146.037 893.239 1169.395 879.753"/><polygon class="cls-1" points="844.274 922.234 844.274 895.263 820.917 881.777 797.559 895.263 797.559 922.234 820.917 935.72 844.274 922.234"/><polygon class="cls-1" points="894.293 922.234 894.293 895.263 870.935 881.777 847.577 895.263 847.577 922.234 870.935 935.72 894.293 922.234"/><polygon class="cls-1" points="944.311 922.234 944.311 895.263 920.954 881.777 897.596 895.263 897.596 922.234 920.954 935.72 944.311 922.234"/><polygon class="cls-1" points="994.33 922.234 994.33 895.263 970.972 881.777 947.614 895.263 947.614 922.234 970.972 935.72 994.33 922.234"/><polygon class="cls-1" points="1044.348 922.234 1044.348 895.263 1020.99 881.777 997.633 895.263 997.633 922.234 1020.99 935.72 1044.348 922.234"/><polygon class="cls-1" points="1094.367 922.234 1094.367 895.263 1071.009 881.777 1047.651 895.263 1047.651 922.234 1071.009 935.72 1094.367 922.234"/><polygon class="cls-1" points="1144.385 922.234 1144.385 895.263 1121.027 881.777 1097.67 895.263 1097.67 922.234 1121.027 935.72 1144.385 922.234"/><polygon class="cls-1" points="1194.404 922.234 1194.404 895.263 1171.046 881.777 1147.688 895.263 1147.688 922.234 1171.046 935.72 1194.404 922.234"/><polygon class="cls-1" points="819.265 938.772 795.907 925.287 772.549 938.772 772.549 965.744 795.907 979.229 819.265 965.744 819.265 938.772"/><polygon class="cls-1" points="869.284 938.772 845.926 925.287 822.568 938.772 822.568 965.744 845.926 979.229 869.284 965.744 869.284 938.772"/><polygon class="cls-1" points="919.302 938.772 895.944 925.287 872.586 938.772 872.586 965.744 895.944 979.229 919.302 965.744 919.302 938.772"/><polygon class="cls-1" points="969.321 938.772 945.963 925.287 922.605 938.772 922.605 965.744 945.963 979.229 969.321 965.744 969.321 938.772"/><polygon class="cls-1" points="1019.339 938.772 995.981 925.287 972.623 938.772 972.623 965.744 995.981 979.229 1019.339 965.744 1019.339 938.772"/><polygon class="cls-1" points="1069.358 938.772 1046 925.287 1022.642 938.772 1022.642 965.744 1046 979.229 1069.358 965.744 1069.358 938.772"/><polygon class="cls-1" points="1119.376 938.772 1096.018 925.287 1072.66 938.772 1072.66 965.744 1096.018 979.229 1119.376 965.744 1119.376 938.772"/><polygon class="cls-1" points="1169.395 938.772 1146.037 925.287 1122.679 938.772 1122.679 965.744 1146.037 979.229 1169.395 965.744 1169.395 938.772"/><polygon class="cls-1" points="797.559 981.254 797.559 1008.225 820.917 1021.711 844.274 1008.225 844.274 981.254 820.917 967.768 797.559 981.254"/><polygon class="cls-1" points="847.577 981.254 847.577 1008.225 870.935 1021.711 894.293 1008.225 894.293 981.254 870.935 967.768 847.577 981.254"/><polygon class="cls-1" points="897.596 981.254 897.596 1008.225 920.954 1021.711 944.311 1008.225 944.311 981.254 920.954 967.768 897.596 981.254"/><polygon class="cls-1" points="947.614 981.254 947.614 1008.225 970.972 1021.711 994.33 1008.225 994.33 981.254 970.972 967.768 947.614 981.254"/><polygon class="cls-1" points="997.633 981.254 997.633 1008.225 1020.99 1021.711 1044.348 1008.225 1044.348 981.254 1020.99 967.768 997.633 981.254"/><polygon class="cls-1" points="1047.651 981.254 1047.651 1008.225 1071.009 1021.711 1094.367 1008.225 1094.367 981.254 1071.009 967.768 1047.651 981.254"/><polygon class="cls-1" points="1097.67 981.254 1097.67 1008.225 1121.027 1021.711 1144.385 1008.225 1144.385 981.254 1121.027 967.768 1097.67 981.254"/><polygon class="cls-1" points="1147.688 981.254 1147.688 1008.225 1171.046 1021.711 1194.404 1008.225 1194.404 981.254 1171.046 967.768 1147.688 981.254"/><polygon class="cls-1" points="1218.723 707.02 1218.723 680.049 1195.365 666.563 1172.008 680.049 1172.008 707.02 1195.365 720.506 1218.723 707.02"/><polygon class="cls-1" points="1222.026 680.049 1222.026 707.02 1245.384 720.506 1268.742 707.02 1268.742 680.049 1245.384 666.563 1222.026 680.049"/><polygon class="cls-1" points="1272.044 707.02 1280 711.613 1280 675.456 1272.044 680.049 1272.044 707.02"/><polygon class="cls-1" points="1243.733 722.53 1220.375 709.045 1197.017 722.53 1197.017 749.502 1220.375 762.987 1243.733 749.502 1243.733 722.53"/><polygon class="cls-1" points="1247.035 722.53 1247.035 749.502 1270.393 762.987 1280 757.441 1280 714.591 1270.393 709.045 1247.035 722.53"/><polygon class="cls-1" points="1218.723 793.011 1218.723 766.04 1195.365 752.554 1172.008 766.04 1172.008 793.011 1195.365 806.497 1218.723 793.011"/><polygon class="cls-1" points="1222.026 766.04 1222.026 793.011 1245.384 806.497 1268.742 793.011 1268.742 766.04 1245.384 752.554 1222.026 766.04"/><polygon class="cls-1" points="1272.044 793.011 1280 797.604 1280 761.446 1272.044 766.04 1272.044 793.011"/><polygon class="cls-1" points="1243.733 835.492 1243.733 808.521 1220.375 795.035 1197.017 808.521 1197.017 835.492 1220.375 848.978 1243.733 835.492"/><polygon class="cls-1" points="1247.035 808.521 1247.035 835.492 1270.393 848.978 1280 843.432 1280 800.582 1270.393 795.035 1247.035 808.521"/><polygon class="cls-1" points="1219.751 879.002 1219.751 852.03 1196.393 838.544 1173.035 852.03 1173.035 879.002 1196.393 892.487 1219.751 879.002"/><polygon class="cls-1" points="1223.054 852.03 1223.054 879.002 1246.412 892.487 1269.77 879.002 1269.77 852.03 1246.412 838.544 1223.054 852.03"/><polygon class="cls-1" points="1273.072 879.002 1280 883.001 1280 848.03 1273.072 852.03 1273.072 879.002"/><polygon class="cls-1" points="1244.76 921.483 1244.76 894.512 1221.402 881.026 1198.044 894.512 1198.044 921.483 1221.402 934.969 1244.76 921.483"/><polygon class="cls-1" points="1248.063 894.512 1248.063 921.483 1271.421 934.969 1280 930.016 1280 885.979 1271.421 881.026 1248.063 894.512"/><polygon class="cls-1" points="1219.751 938.021 1196.393 924.535 1173.035 938.021 1173.035 964.992 1196.393 978.478 1219.751 964.992 1219.751 938.021"/><polygon class="cls-1" points="1269.77 938.021 1246.412 924.535 1223.054 938.021 1223.054 964.992 1246.412 978.478 1269.77 964.992 1269.77 938.021"/><polygon class="cls-1" points="1273.072 964.992 1280 968.992 1280 934.021 1273.072 938.021 1273.072 964.992"/><polygon class="cls-1" points="1198.044 980.502 1198.044 1007.474 1221.402 1020.959 1244.76 1007.474 1244.76 980.502 1221.402 967.017 1198.044 980.502"/><polygon class="cls-1" points="1248.063 980.502 1248.063 1007.474 1271.421 1020.959 1280 1016.006 1280 971.97 1271.421 967.017 1248.063 980.502"/><polygon class="cls-1" points="796.382 1009.944 773.024 1023.43 773.024 1024 819.74 1024 819.74 1023.43 796.382 1009.944"/><polygon class="cls-1" points="846.401 1009.944 823.043 1023.43 823.043 1024 869.759 1024 869.759 1023.43 846.401 1009.944"/><polygon class="cls-1" points="896.419 1009.944 873.061 1023.43 873.061 1024 919.777 1024 919.777 1023.43 896.419 1009.944"/><polygon class="cls-1" points="946.438 1009.944 923.08 1023.43 923.08 1024 969.796 1024 969.796 1023.43 946.438 1009.944"/><polygon class="cls-1" points="996.456 1009.944 973.098 1023.43 973.098 1024 1019.814 1024 1019.814 1023.43 996.456 1009.944"/><polygon class="cls-1" points="1046.475 1009.944 1023.117 1023.43 1023.117 1024 1069.833 1024 1069.833 1023.43 1046.475 1009.944"/><polygon class="cls-1" points="1096.493 1009.944 1073.135 1023.43 1073.135 1024 1119.851 1024 1119.851 1023.43 1096.493 1009.944"/><polygon class="cls-1" points="1146.512 1009.944 1123.154 1023.43 1123.154 1024 1169.87 1024 1169.87 1023.43 1146.512 1009.944"/><polygon class="cls-1" points="1196.868 1009.193 1173.51 1022.678 1173.51 1024 1220.226 1024 1220.226 1022.678 1196.868 1009.193"/><polygon class="cls-1" points="1246.887 1009.193 1223.529 1022.678 1223.529 1024 1270.245 1024 1270.245 1022.678 1246.887 1009.193"/><polygon class="cls-1" points="1280 1018.953 1273.547 1022.678 1273.547 1024 1280 1024 1280 1018.953"/></svg>