<svg id="Layer_2" data-name="Layer 2" width="1000" height="1000" xmlns="http://www.w3.org/2000/svg" viewBox="0 0 579.39 498.207"><defs><style>.cls-1{fill:#fff;stroke:#000;stroke-miterlimit:10;}</style></defs><title>Home</title><g id="House"><polygon class="cls-1" points="14.695 304.707 0.695 289.707 289.695 0.707 578.695 289.707 564.695 304.707 289.695 29.707 14.695 304.707"/><polygon class="cls-1" points="80.695 336.707 45.376 302.026 289.695 57.707 534.014 302.026 499.695 337.707 289.695 128.707 80.695 336.707"/><polygon class="cls-1" points="130.695 453.707 130.695 314.707 289.695 155.707 451.695 318.707 451.695 453.707 336.695 453.707 336.695 320.707 242.695 320.707 242.695 453.707 130.695 453.707"/><rect class="cls-1" x="45.695" y="470.707" width="488" height="27"/><polygon class="cls-1" points="434.695 118.707 375.695 60.707 375.695 41.707 434.695 41.707 434.695 118.707"/></g></svg>
