<svg id="Layer_1" data-name="Layer 1" xmlns="http://www.w3.org/2000/svg" xmlns:xlink="http://www.w3.org/1999/xlink" viewBox="0 0 1276.207 223.545"><defs><style>.cls-1{fill:url(#Degradado_sin_nombre_29);}</style><linearGradient id="Degradado_sin_nombre_29" x1="1.422" y1="520.358" x2="1277.629" y2="520.358" gradientUnits="userSpaceOnUse"><stop offset="0" stop-color="#dea752"/><stop offset="0.144" stop-color="#fdcf3e"/><stop offset="0.269" stop-color="#fddc8b"/><stop offset="0.413" stop-color="#fdcf3e"/><stop offset="0.532" stop-color="#f2b64d"/><stop offset="0.646" stop-color="#fddc8b"/><stop offset="0.77" stop-color="#fdcf3e"/><stop offset="0.87" stop-color="#dea752"/><stop offset="1" stop-color="#fdcf3e"/></linearGradient></defs><title>TimeLineDecorTop</title><path class="cls-1" d="M1271.006,535.161a8.4,8.4,0,0,0-1.848-.2c-5.556,0-10.521,5.421-12.468,10.212-2.683,6.593-1.406,16.488-3.352,24.337a60.972,60.972,0,0,1-23.291,9.818c-11.693,1.949-21.876-2.061-31.479-8.746a30.34,30.34,0,0,0,1.056-7.49c.255-19.388-9.187-32.391-25.261-34.785-9.351-1.4-19.061,1.1-25.328,6.5a22.212,22.212,0,0,0-7.786,17.339,23.734,23.734,0,0,0,23.707,23.71h0c10,0,13.914-6.589,15.772-12.23,3.225,3,6.8,6.19,10.724,9.187-3.708,8.5-11.679,15.486-20.58,17.044-15.94,2.819-27.473-8.549-34.344-18.564a100.672,100.672,0,0,1-6.115-10.75,87.5,87.5,0,0,0-8.12-13.607c-13.29-17.126-30.179-26.556-47.558-26.556a55.7,55.7,0,0,0-31.8,101.458A93.894,93.894,0,0,1,935,581.774c2.471-.882,4.949-1.825,7.433-2.888,18.908-5.112,35.854-15.057,49.5-32.855,13.816-18.022,15.451-40.387,22.427-61.306-.669,2.011-28.942,12.7-32.217,15.192-24.086,18.328-23.7,49.493-42.74,70.552a33.854,33.854,0,0,1-7.234,6.013c-.07.027-.143.046-.217.073a93.986,93.986,0,0,1,118.259-131.66c-.592-.093-1.185-.186-1.775-.255a18.431,18.431,0,0,1,2.053.363c2.131.878,4.24,1.806,6.3,2.831a18.107,18.107,0,0,1,3.712,3.662c7.155,9.346,7.285,25.694,13.3,34.765,3.29,4.969,9.759,9.98,16.116,9.98a11.044,11.044,0,0,0,4.545-.955c6.09-2.707,7.523-9.276,5.533-15.149-3.059-9.04-11.391-17.922-19.964-24a100.034,100.034,0,0,0-165.273,75.9,99.473,99.473,0,0,0,11.414,46.346c-30.266,8.592-52.635.116-64.612-6.922a122.312,122.312,0,0,1-35.742-32.874,66.416,66.416,0,0,0,5.694,4.524,81.446,81.446,0,0,0,23.482,11.337,47.812,47.812,0,0,0,37.8-5.089c6.082-3.581,21.619-13.684,10.893-21.089-19.933-13.746-36.625,9.879-54.339,12.141-9.928,1.272-19.244-.592-26.427-6.032a92.222,92.222,0,0,1-7.295-13.216c-9.6-21.707-21.547-37.124-37.278-48.04a32,32,0,0,0,3.337.2,28.7,28.7,0,0,0,6.533-.754c6.813,6.012,13.245,13.738,19.751,23.76,1.011,1.558,2.028,3.175,3.062,4.818,5.968,9.469,12.727,20.2,22.436,26.34a26.273,26.273,0,0,0,13.665,4.079c10,0,14.131-6.631,18.28-14.55a137.761,137.761,0,0,0,6.446-12.95c1.856-4.69,3.134-10.076,2.208-15.115-.611-3.322-2.929-6.1-6.411-6.1-.2,0-.4.015-.613.031-4.754.429-7.525,6.071-7.851,10.312a22.454,22.454,0,0,0,.752,6.577l-.141.1c.1.151.186.329.282.483.712,2.978,1.637,6.071,2.063,9.048-.093,5.591-2.14,11.515-5.744,14.817a13.522,13.522,0,0,1-9.327,3.325,22.082,22.082,0,0,1-11.48-3.43c-8.946-5.653-15.173-15.532-21.193-25.087-1.044-1.659-2.071-3.291-3.094-4.868a121.1,121.1,0,0,0-18.746-23.041c12.988-5.932,24.948-25.362,19.424-39.282-6.741-17-21.243-23.243-37.429-23.243a75.638,75.638,0,0,0-14.193,1.431s44.822,5.978,27.887,36.853c0,0-4.667,14.778-29.812,14.778-1.168,0-2.394-.042-3.648-.108-.449-.12-.9-.225-1.346-.333,12.741-2.985,24.739-9.241,27.972-19.968,1.547-5.127,1.216-9.787-.953-13.491-2.225-3.805-6.272-6.454-11.7-7.66-18.643-4.145-30.328,10.019-41.636,23.718-6.016,7.3-12.2,14.766-19.384,19.349a82.1,82.1,0,0,0-10.581,4.122,22.142,22.142,0,0,1-23.523-14.04,15.315,15.315,0,0,1-.949-7.041,8.744,8.744,0,0,1,2.237-2.575c4.628-3.654,12.814-3.843,17.313-6.922,3.062-2.1,6.109-6.651,4.361-10.428a5.323,5.323,0,0,0-5.054-3.113,7.843,7.843,0,0,0-2.581.46c-4.542,1.616-8.946,5.916-11.931,10.3-6.136,6.187-7.911,12.9-5.265,20.021a24.132,24.132,0,0,0,21.186,15.467c-33.6,18.289-48.121,56.446-53.432,75.315-5.315-18.87-19.828-57.026-53.434-75.315a24.125,24.125,0,0,0,21.184-15.467c2.646-7.118.872-13.835-5.265-20.021-2.981-4.385-7.389-8.685-11.929-10.3a7.836,7.836,0,0,0-2.581-.46,5.318,5.318,0,0,0-5.053,3.113c-1.75,3.778,1.3,8.325,4.359,10.428,4.5,3.078,12.687,3.267,17.313,6.922a8.693,8.693,0,0,1,2.237,2.575,15.289,15.289,0,0,1-.949,7.041,22.142,22.142,0,0,1-23.523,14.04,81.894,81.894,0,0,0-10.581-4.122c-7.182-4.582-13.365-12.053-19.384-19.349-11.308-13.7-22.993-27.864-41.633-23.718-5.432,1.206-9.483,3.855-11.708,7.66-2.167,3.7-2.5,8.364-.953,13.491,3.233,10.726,15.233,16.983,27.975,19.968-.45.108-.9.213-1.349.333-1.253.066-2.481.108-3.648.108-25.141,0-29.812-14.778-29.812-14.778-16.934-30.876,27.889-36.853,27.889-36.853a75.675,75.675,0,0,0-14.195-1.431c-16.186,0-30.688,6.241-37.429,23.243-5.523,13.92,6.436,33.35,19.426,39.282a121.2,121.2,0,0,0-18.747,23.041c-1.021,1.577-2.049,3.209-3.092,4.868-6.02,9.555-12.249,19.434-21.2,25.087a22.072,22.072,0,0,1-11.48,3.43,13.524,13.524,0,0,1-9.327-3.325c-3.6-3.3-5.651-9.226-5.744-14.817.425-2.977,1.353-6.071,2.067-9.048.095-.154.176-.332.278-.483l-.141-.1a22.456,22.456,0,0,0,.752-6.577c-.327-4.242-3.1-9.883-7.851-10.312-.207-.015-.412-.031-.613-.031-3.482,0-5.8,2.776-6.411,6.1-.926,5.038.354,10.425,2.21,15.115a137.75,137.75,0,0,0,6.444,12.95c4.151,7.919,8.286,14.55,18.28,14.55a26.28,26.28,0,0,0,13.667-4.079c9.707-6.136,16.47-16.871,22.434-26.34,1.034-1.643,2.053-3.259,3.066-4.818,6.5-10.022,12.936-17.748,19.749-23.76a28.689,28.689,0,0,0,6.535.754,32.1,32.1,0,0,0,3.337-.2c-15.736,10.915-27.683,26.332-37.283,48.04a91.987,91.987,0,0,1-7.294,13.216c-7.181,5.44-16.5,7.3-26.427,6.032-17.711-2.262-34.405-25.887-54.336-12.141-10.728,7.4,4.812,17.508,10.895,21.089a47.8,47.8,0,0,0,37.8,5.089,81.467,81.467,0,0,0,23.48-11.337,66.167,66.167,0,0,0,5.694-4.524,122.33,122.33,0,0,1-35.74,32.874c-11.977,7.038-34.346,15.513-64.614,6.922a100.034,100.034,0,0,0-88.686-146.446,100.551,100.551,0,0,0-65.173,24.2c-8.571,6.082-16.905,14.964-19.962,24-1.99,5.873-.559,12.443,5.531,15.149a11.05,11.05,0,0,0,4.547.955c6.355,0,12.824-5.011,16.114-9.98,6.011-9.071,6.14-25.419,13.3-34.765a18.117,18.117,0,0,1,3.714-3.662c2.063-1.025,4.17-1.953,6.3-2.831a18.494,18.494,0,0,1,2.053-.363c-.59.07-1.182.162-1.775.255A94.043,94.043,0,0,1,347.1,576.554c-.073-.027-.145-.046-.217-.073a33.737,33.737,0,0,1-7.23-6.013c-19.047-21.058-18.657-52.223-42.745-70.552-3.273-2.49-31.542-13.181-32.215-15.192,6.973,20.919,8.611,43.284,22.425,61.306,13.646,17.8,30.589,27.744,49.5,32.855,2.484,1.063,4.961,2.007,7.434,2.888A93.891,93.891,0,0,1,236.119,621.84a55.7,55.7,0,0,0-31.8-101.458c-17.383,0-34.27,9.431-47.562,26.556a87.639,87.639,0,0,0-8.118,13.607,101.774,101.774,0,0,1-6.113,10.75c-6.875,10.015-18.407,21.383-34.348,18.564-8.9-1.558-16.869-8.549-20.577-17.044,3.919-3,7.5-6.183,10.719-9.187,1.86,5.641,5.782,12.234,15.778,12.23h0a23.733,23.733,0,0,0,23.7-23.71,22.213,22.213,0,0,0-7.786-17.339c-6.268-5.4-15.975-7.9-25.327-6.5-16.075,2.394-25.516,15.4-25.263,34.785a30.6,30.6,0,0,0,1.056,7.49c-9.6,6.686-19.786,10.7-31.479,8.746a60.98,60.98,0,0,1-23.289-9.818c-1.948-7.849-.669-17.744-3.352-24.337-1.949-4.791-6.916-10.212-12.47-10.212a8.43,8.43,0,0,0-1.846.2C3,536.29.913,541.062,1.526,545.829c1.212,9.4,9.036,19.948,16.286,25.748a47.363,47.363,0,0,0,7.4,4.764,66.309,66.309,0,0,0,22.815,8.885c13.2,2.2,24.82-2.378,34.609-8.862,4.665,9.767,13.939,17.523,24.511,19.388,19.053,3.345,32.445-9.613,40.31-21.077a107.492,107.492,0,0,0,6.5-11.38,82.183,82.183,0,0,1,7.528-12.694c7.03-9.056,21.941-24.244,42.843-24.244a49.738,49.738,0,0,1,24.671,92.936,94.556,94.556,0,0,1-24.882-14.833,21.989,21.989,0,0,0,8.781-1.992c9.2-4.122,15.639-13.811,15.66-23.56a31.743,31.743,0,0,0-9.429-22.616,30.389,30.389,0,0,0-21.239-9.129h0c-10.684,0-22.131,5.576-29.874,14.542-11.658,13.518-9.732,32.472-4.542,44.594,6.637,15.513,22.672,25.539,40.855,25.539a55.38,55.38,0,0,0,25.083-5.986,99.932,99.932,0,0,0,120.5-42.166,99.132,99.132,0,0,0,28.335,4.338,82.544,82.544,0,0,0,42.282-11.418,126.9,126.9,0,0,0,31.188-26.5c-.478.847-.76,1.346-.76,1.346s10.328,78.126-36.849,54.787c9.748,4.818,20.035,8.916,31.133,6.577,19.1-4.021,26.166-24.271,28.242-41.482,1.659-13.73-5.431-36.115-3.051-51.117,1.442-3.078,2.944-5.993,4.493-8.793a65.494,65.494,0,0,0,2.623,43.875c14.361,33.648,67.076,53.236,93.763,23.9,6.9-7.587,13.512-18.746,16.472-28.61,1.529-5.108,9.411-26.212,18.887-26.212a7.512,7.512,0,0,1,4.652,1.771A33.58,33.58,0,0,0,590.57,519.2a35.814,35.814,0,0,0-24.093,9.2c-12.373,11.341-15.535,29.816-27.541,41.2-6.767,6.415-14.277,9.307-21.959,9.307a32.168,32.168,0,0,1-5.957-.568,131.671,131.671,0,0,1-13.814-8.932c13.592,1.767,28.554-10.084,33.093-21.151,4.1-10,5.726-29.336,15.762-35.643-17,10.68-29.406,7.552-35,29.607-3.683,14.55-11.122,21.22-25.425,15.49a29.121,29.121,0,0,1-2.6-4.76c-7.668-17.965-5.976-38.392,4.646-56.036a67.873,67.873,0,0,1,20.261-21.41c.329-.2.652-.421.986-.618l-.015-.031a58.859,58.859,0,0,1,26.839-9.322c34.9-2.931,62.36,11.384,81.658,42.541a150.8,150.8,0,0,1,18.838,48.643l3.275-.538,3.273.538a150.733,150.733,0,0,1,18.837-48.643c19.3-31.158,46.757-45.472,81.66-42.541a58.822,58.822,0,0,1,26.837,9.322l-.013.031c.335.2.655.414.988.618a67.858,67.858,0,0,1,20.257,21.41c10.622,17.644,12.318,38.072,4.646,56.036a28.945,28.945,0,0,1-2.6,4.76c-14.3,5.731-21.74-.94-25.425-15.49-5.588-22.055-18-18.927-34.992-29.607,10.034,6.307,11.656,25.64,15.759,35.643,4.542,11.067,19.5,22.918,33.095,21.151a131.9,131.9,0,0,1-13.815,8.932,32.113,32.113,0,0,1-5.953.568c-7.685,0-15.2-2.892-21.963-9.307-12-11.384-15.167-29.859-27.541-41.2a35.8,35.8,0,0,0-24.089-9.2,33.591,33.591,0,0,0-20.748,6.952,7.512,7.512,0,0,1,4.652-1.771c9.477,0,17.358,21.1,18.887,26.212,2.96,9.864,9.568,21.023,16.472,28.61,26.692,29.336,79.4,9.748,93.763-23.9a65.479,65.479,0,0,0,2.624-43.875c1.554,2.8,3.051,5.715,4.493,8.793,2.38,15-4.706,37.387-3.051,51.117,2.078,17.211,9.143,37.461,28.244,41.482,11.1,2.339,21.385-1.759,31.131-6.577-47.177,23.339-36.849-54.787-36.849-54.787s-.282-.5-.76-1.346a126.882,126.882,0,0,0,31.192,26.5,82.519,82.519,0,0,0,42.278,11.418,99.1,99.1,0,0,0,28.333-4.338,99.934,99.934,0,0,0,120.5,42.166,55.39,55.39,0,0,0,25.087,5.986c18.179,0,34.214-10.026,40.855-25.539,5.187-12.122,7.113-31.076-4.545-44.594-7.743-8.967-19.188-14.542-29.87-14.542h-.006a30.386,30.386,0,0,0-21.238,9.129,31.763,31.763,0,0,0-9.431,22.616c.025,9.748,6.461,19.438,15.66,23.56a22,22,0,0,0,8.781,1.992,94.6,94.6,0,0,1-24.878,14.833,49.739,49.739,0,0,1,24.671-92.936c20.9,0,35.811,15.188,42.839,24.244a81.877,81.877,0,0,1,7.531,12.694,107.541,107.541,0,0,0,6.494,11.38c7.865,11.465,21.257,24.422,40.31,21.077,10.573-1.864,19.846-9.62,24.511-19.388,9.789,6.484,21.406,11.062,34.611,8.862a66.259,66.259,0,0,0,22.812-8.885,47.083,47.083,0,0,0,7.4-4.764c7.25-5.8,15.075-16.348,16.285-25.748C1278.141,541.062,1276.049,536.29,1271.006,535.161Zm-302.883,7.954c5.523-13.5,10.307-25.172,20.9-33.408,1.149-.618,4-1.891,7-3.194-3.078,11.9-6.517,23.037-13.58,32.244a77.634,77.634,0,0,1-20.675,19.013C964.118,552.9,966.134,547.979,968.124,543.115ZM1092.689,482.6c.346,1.025,1.274,4.466-1.363,5.638a3.42,3.42,0,0,1-1.409.282c-2.962,0-7.3-2.919-9.69-6.519-2.1-3.178-3.439-8.305-4.856-13.73-.64-2.452-1.29-4.934-2.036-7.37C1081.365,466.083,1089.961,474.551,1092.689,482.6ZM863.617,493.529c.207-2.691,1.958-6.067,3.828-6.237.073,0,.141-.008.215-.008,1.522,0,1.972,2.045,2.047,2.455.644,3.488-.019,7.761-1.966,12.679-.5,1.276-1.065,2.517-1.665,3.758-.315-1.5-.7-2.977-1.062-4.42-.213-.82-.421-1.64-.613-2.44l-.143-.588A19.066,19.066,0,0,1,863.617,493.529ZM690.264,427.261a3.823,3.823,0,0,1,1.284-.24,1.454,1.454,0,0,1,1.553.878c.684,1.481-1.1,4.28-3.043,5.611-1.57,1.079-4.13,1.786-6.838,2.54-1.221.336-2.461.677-3.683,1.075C682.071,433.065,686.247,428.684,690.264,427.261Zm-94.432,8.789c-2.708-.754-5.266-1.462-6.836-2.54-1.939-1.33-3.725-4.13-3.041-5.611a1.451,1.451,0,0,1,1.551-.878,3.868,3.868,0,0,1,1.288.24c4.012,1.423,8.188,5.8,10.722,9.864C598.293,436.727,597.054,436.387,595.832,436.051Zm-181.04,62.679-.141.588c-.191.8-.4,1.62-.611,2.44-.369,1.442-.75,2.923-1.065,4.42-.6-1.241-1.16-2.482-1.659-3.758-1.953-4.918-2.612-9.191-1.972-12.679.076-.41.528-2.455,2.047-2.455.074,0,.141,0,.217.008,1.868.17,3.619,3.546,3.826,6.237A18.99,18.99,0,0,1,414.793,498.729ZM203.683,468.272c-1.417,5.425-2.759,10.552-4.858,13.73-2.384,3.6-6.728,6.519-9.688,6.519a3.438,3.438,0,0,1-1.412-.282c-2.635-1.172-1.709-4.613-1.361-5.638,2.726-8.05,11.323-16.519,19.355-21.7C204.971,463.338,204.323,465.82,203.683,468.272Zm92.92,70.485c-7.061-9.207-10.5-20.343-13.58-32.244,3.008,1.3,5.858,2.575,7,3.194,10.593,8.236,15.376,19.909,20.9,33.408,1.989,4.864,4.008,9.787,6.351,14.655A77.634,77.634,0,0,1,296.6,538.757ZM7.455,545.068c-.108-.831-.288-3.585,1.895-4.072a2.353,2.353,0,0,1,.543-.062c2.245,0,5.551,3.094,6.933,6.5,1.114,2.726,1.346,6.832,1.6,11.175.112,1.953.224,3.937.419,5.912C13.534,559.351,8.294,551.6,7.455,545.068ZM85.4,563.013c-.1-7.741,1.659-26.038,20.166-28.791,7.693-1.148,15.56.816,20.546,5.116a16.194,16.194,0,0,1,5.713,12.81A17.757,17.757,0,0,1,114.1,569.884h0c-6.262,0-9.2-3.279-11.244-12.524l-1.139-5.166-3.836,3.634c-4.019,3.817-8.044,7.506-12.147,10.8A23.806,23.806,0,0,1,85.4,563.013ZM204.32,625.866c-15.784,0-29.667-8.6-35.365-21.916-4.512-10.541-6.283-26.908,3.577-38.334,6.639-7.694,16.35-12.474,25.348-12.474h0a24.384,24.384,0,0,1,17.01,7.374,25.832,25.832,0,0,1,7.681,18.382c-.015,7.474-5,14.929-12.124,18.119a14.987,14.987,0,0,1-16.828-2.668l-1.98,2.239-2.233,1.987a100.167,100.167,0,0,0,32.411,24.1A49.512,49.512,0,0,1,204.32,625.866Zm341.47-49.037c7.142-6.771,11.372-15,15.465-22.949,3.59-6.987,6.987-13.588,11.956-18.143a25.513,25.513,0,0,1,12.951-6.2,84.784,84.784,0,0,0-7.925,18.193c-6.6,22.006-21.589,35.678-39.125,35.678-.655,0-1.307-.019-1.97-.058A46.75,46.75,0,0,0,545.79,576.829Zm-53.927-112.2c-5.467-1.466-11.8-7.494-15.389-14.655-2.856-5.684-3.586-11.225-2.009-15.208a28.724,28.724,0,0,1,6.175-9.713c-2.181,5.7-2.943,14.156,2.844,25.056,1.556,4.122,5.392,9.492,12.32,13.556-.661.445-1.326.885-1.978,1.357A19.358,19.358,0,0,1,491.863,464.625Zm43.4-5.046c-1.537.128-3.057.333-4.57.577-10.852-1.887-27.33-6.8-31.152-19.492-1.38-4.578-1.115-8.7.764-11.909,1.941-3.318,5.547-5.638,10.419-6.728,17.456-3.874,28.239,9.2,39.666,23.045,4.892,5.931,9.887,11.979,15.49,16.584A96.393,96.393,0,0,0,535.259,459.579ZM739.943,583.406c-17.535,0-32.53-13.672-39.129-35.678a84.873,84.873,0,0,0-7.923-18.193,25.513,25.513,0,0,1,12.951,6.2c4.969,4.555,8.364,11.155,11.954,18.143,4.094,7.95,8.325,16.178,15.467,22.949a46.659,46.659,0,0,0,8.646,6.519Q740.921,583.406,739.943,583.406Zm55.624-133.3c5.79-10.9,5.025-19.357,2.844-25.056a28.8,28.8,0,0,1,6.181,9.713c1.575,3.982.843,9.523-2.009,15.208-3.6,7.161-9.928,13.189-15.4,14.655a19.208,19.208,0,0,1-1.962.394c-.651-.472-1.317-.913-1.978-1.357C790.175,459.6,794.011,454.228,795.568,450.106Zm-82.389,11.55c5.6-4.605,10.6-10.653,15.488-16.584,11.428-13.843,22.21-26.92,39.668-23.045,4.876,1.09,8.476,3.41,10.417,6.728,1.879,3.209,2.144,7.331.764,11.909-3.821,12.691-20.3,17.605-31.15,19.492-1.514-.244-3.035-.449-4.57-.577A96.394,96.394,0,0,0,713.178,461.656Zm376.465,136.919-2.227-1.987-1.985-2.239a14.984,14.984,0,0,1-16.826,2.668c-7.123-3.19-12.11-10.645-12.126-18.119a25.826,25.826,0,0,1,7.683-18.382,24.383,24.383,0,0,1,17.008-7.374h.006c8.994,0,18.7,4.779,25.344,12.474,9.86,11.426,8.089,27.794,3.577,38.334-5.7,13.313-19.579,21.916-35.361,21.916a49.516,49.516,0,0,1-17.5-3.186A100.161,100.161,0,0,0,1089.644,598.574Zm103.673-31.942c-4.1-3.3-8.126-6.987-12.143-10.8l-3.838-3.634-1.139,5.166c-2.043,9.245-4.984,12.524-11.241,12.524h0a17.759,17.759,0,0,1-17.733-17.736,16.193,16.193,0,0,1,5.711-12.81c4.99-4.3,12.857-6.264,20.546-5.116,18.508,2.753,20.273,21.05,20.166,28.791A23.507,23.507,0,0,1,1193.317,566.632Zm78.279-21.565c-.839,6.535-6.077,14.283-11.387,19.449.2-1.976.309-3.959.423-5.912.245-4.342.483-8.449,1.595-11.175,1.383-3.4,4.686-6.5,6.931-6.5a2.35,2.35,0,0,1,.543.062C1271.886,541.483,1271.7,544.236,1271.6,545.068Z" transform="translate(-1.422 -408.585)"/><path class="cls-1" d="M1.526,545.829c1.212,9.4,9.036,19.948,16.286,25.748a47.363,47.363,0,0,0,7.4,4.764,66.309,66.309,0,0,0,22.815,8.885c13.2,2.2,24.82-2.378,34.609-8.862,4.665,9.767,13.939,17.523,24.511,19.388,19.053,3.345,32.445-9.613,40.31-21.077a107.492,107.492,0,0,0,6.5-11.38,82.183,82.183,0,0,1,7.528-12.694c7.03-9.056,21.941-24.244,42.843-24.244a49.737,49.737,0,0,1,24.667,92.936,94.6,94.6,0,0,1-24.878-14.833,21.989,21.989,0,0,0,8.781-1.992c9.2-4.122,15.639-13.811,15.66-23.56a31.743,31.743,0,0,0-9.429-22.616,30.389,30.389,0,0,0-21.239-9.129h0c-10.684,0-22.131,5.576-29.874,14.542-11.658,13.518-9.732,32.472-4.542,44.594,6.637,15.513,22.672,25.539,40.855,25.539a55.38,55.38,0,0,0,25.083-5.986,99.934,99.934,0,0,0,120.5-42.166,99.109,99.109,0,0,0,28.333,4.338,82.544,82.544,0,0,0,42.282-11.418,126.9,126.9,0,0,0,31.188-26.5c-.478.847-.76,1.346-.76,1.346s10.328,78.126-36.849,54.787c9.748,4.818,20.035,8.916,31.133,6.577,19.1-4.021,26.166-24.271,28.242-41.482,1.659-13.73-5.431-36.115-3.051-51.117,1.442-3.078,2.944-5.993,4.493-8.793a65.494,65.494,0,0,0,2.623,43.875c14.361,33.648,67.076,53.236,93.763,23.9,6.9-7.587,13.512-18.746,16.472-28.61,1.529-5.108,9.411-26.212,18.887-26.212a7.512,7.512,0,0,1,4.652,1.771A33.58,33.58,0,0,0,590.57,519.2a35.814,35.814,0,0,0-24.093,9.2c-12.373,11.341-15.535,29.816-27.541,41.2-6.767,6.415-14.277,9.307-21.959,9.307a32.168,32.168,0,0,1-5.957-.568,131.671,131.671,0,0,1-13.814-8.932c13.592,1.767,28.554-10.084,33.093-21.151,4.1-10,5.726-29.336,15.762-35.643-17,10.68-29.406,7.552-35,29.607-3.683,14.55-11.122,21.22-25.425,15.49a29.121,29.121,0,0,1-2.6-4.76c-7.668-17.965-5.976-38.392,4.646-56.036a67.873,67.873,0,0,1,20.261-21.41c.329-.2.652-.421.986-.618l-.015-.031a58.851,58.851,0,0,1,26.839-9.322c34.9-2.931,62.36,11.384,81.658,42.541a150.8,150.8,0,0,1,18.838,48.643l3.275-.538,3.273.538a150.733,150.733,0,0,1,18.837-48.643c19.3-31.158,46.757-45.472,81.66-42.541a58.837,58.837,0,0,1,26.837,9.322l-.013.031c.335.2.655.414.988.618a67.88,67.88,0,0,1,20.257,21.41c10.622,17.644,12.318,38.072,4.646,56.036a28.945,28.945,0,0,1-2.6,4.76c-14.3,5.731-21.74-.94-25.425-15.49-5.588-22.055-18-18.927-34.992-29.607,10.034,6.307,11.656,25.64,15.759,35.643,4.542,11.067,19.5,22.918,33.095,21.151a131.9,131.9,0,0,1-13.815,8.932,32.113,32.113,0,0,1-5.953.568c-7.685,0-15.2-2.892-21.963-9.307-12-11.384-15.167-29.859-27.541-41.2a35.8,35.8,0,0,0-24.089-9.2,33.591,33.591,0,0,0-20.748,6.952,7.512,7.512,0,0,1,4.652-1.771c9.477,0,17.358,21.1,18.887,26.212,2.96,9.864,9.568,21.023,16.472,28.61,26.692,29.336,79.4,9.748,93.763-23.9a65.479,65.479,0,0,0,2.624-43.875c1.554,2.8,3.051,5.715,4.493,8.793,2.38,15-4.706,37.387-3.051,51.117,2.078,17.211,9.143,37.461,28.244,41.482,11.1,2.339,21.385-1.759,31.131-6.577-47.177,23.339-36.849-54.787-36.849-54.787s-.282-.5-.76-1.346a126.882,126.882,0,0,0,31.192,26.5,82.519,82.519,0,0,0,42.278,11.418,99.122,99.122,0,0,0,28.335-4.338,99.932,99.932,0,0,0,120.5,42.166,55.4,55.4,0,0,0,25.087,5.986c18.179,0,34.214-10.026,40.855-25.539,5.187-12.122,7.113-31.076-4.545-44.594-7.743-8.967-19.188-14.542-29.87-14.542h-.006a30.386,30.386,0,0,0-21.238,9.129,31.763,31.763,0,0,0-9.431,22.616c.025,9.748,6.461,19.438,15.66,23.56a22,22,0,0,0,8.781,1.992,94.6,94.6,0,0,1-24.878,14.833,49.739,49.739,0,0,1,24.671-92.936c20.9,0,35.811,15.188,42.839,24.244a81.877,81.877,0,0,1,7.531,12.694,107.541,107.541,0,0,0,6.494,11.38c7.865,11.465,21.257,24.422,40.31,21.077,10.573-1.864,19.846-9.62,24.511-19.388,9.789,6.484,21.406,11.062,34.611,8.862a66.259,66.259,0,0,0,22.812-8.885,47.083,47.083,0,0,0,7.4-4.764c7.25-5.8,15.075-16.348,16.285-25.748.617-4.768-1.475-9.539-6.517-10.668a8.4,8.4,0,0,0-1.848-.2c-5.556,0-10.521,5.421-12.468,10.212-2.683,6.593-1.406,16.488-3.352,24.337a60.972,60.972,0,0,1-23.291,9.818c-11.693,1.949-21.876-2.061-31.479-8.746a30.34,30.34,0,0,0,1.056-7.49c.255-19.388-9.187-32.391-25.261-34.785-9.351-1.4-19.061,1.1-25.328,6.5a22.212,22.212,0,0,0-7.786,17.339,23.734,23.734,0,0,0,23.707,23.71h0c10,0,13.914-6.589,15.772-12.23,3.225,3,6.8,6.19,10.724,9.187-3.708,8.5-11.679,15.486-20.58,17.044-15.94,2.819-27.473-8.549-34.344-18.564a100.672,100.672,0,0,1-6.115-10.75,87.5,87.5,0,0,0-8.12-13.607c-13.29-17.126-30.179-26.556-47.558-26.556a55.7,55.7,0,0,0-31.8,101.458A93.9,93.9,0,0,1,935,581.774c2.471-.882,4.949-1.825,7.433-2.888,18.908-5.112,35.854-15.057,49.5-32.855,13.816-18.022,15.451-40.387,22.427-61.306-.669,2.011-28.942,12.7-32.217,15.192-24.086,18.328-23.7,49.493-42.74,70.552a33.854,33.854,0,0,1-7.234,6.013c-.07.027-.143.046-.217.073a93.986,93.986,0,0,1,118.259-131.66c-.592-.093-1.185-.186-1.775-.255a18.431,18.431,0,0,1,2.053.363c2.131.878,4.24,1.806,6.3,2.831a18.107,18.107,0,0,1,3.712,3.662c7.155,9.346,7.285,25.694,13.3,34.765,3.29,4.969,9.759,9.98,16.116,9.98a11.044,11.044,0,0,0,4.545-.955c6.09-2.707,7.523-9.276,5.533-15.149-3.059-9.04-11.391-17.922-19.964-24a100.034,100.034,0,0,0-165.273,75.9,99.473,99.473,0,0,0,11.414,46.346c-30.266,8.592-52.635.116-64.612-6.922a122.312,122.312,0,0,1-35.742-32.874,66.416,66.416,0,0,0,5.694,4.524,81.446,81.446,0,0,0,23.482,11.337,47.812,47.812,0,0,0,37.8-5.089c6.082-3.581,21.619-13.684,10.893-21.089-19.933-13.746-36.625,9.879-54.339,12.141-9.928,1.272-19.244-.592-26.427-6.032a92.222,92.222,0,0,1-7.295-13.216c-9.6-21.707-21.547-37.124-37.278-48.04a32,32,0,0,0,3.337.2,28.71,28.71,0,0,0,6.533-.754c6.813,6.012,13.245,13.738,19.751,23.76,1.011,1.558,2.028,3.175,3.062,4.818,5.968,9.469,12.727,20.2,22.436,26.34a26.273,26.273,0,0,0,13.665,4.079c10,0,14.131-6.631,18.28-14.55a137.761,137.761,0,0,0,6.446-12.95c1.856-4.69,3.134-10.076,2.208-15.115-.611-3.322-2.929-6.1-6.411-6.1-.2,0-.4.015-.613.031-4.754.429-7.525,6.071-7.851,10.312a22.454,22.454,0,0,0,.752,6.577l-.141.1c.1.151.186.329.282.483.712,2.978,1.637,6.071,2.063,9.048-.093,5.591-2.14,11.515-5.744,14.817a13.522,13.522,0,0,1-9.327,3.325,22.082,22.082,0,0,1-11.48-3.43c-8.946-5.653-15.173-15.532-21.193-25.087-1.044-1.659-2.071-3.291-3.094-4.868a121.256,121.256,0,0,0-18.746-23.041c12.988-5.932,24.952-25.362,19.424-39.282-6.741-17-21.243-23.243-37.429-23.243a75.638,75.638,0,0,0-14.193,1.431s44.822,5.978,27.887,36.853c0,0-4.667,14.778-29.812,14.778-1.168,0-2.394-.042-3.648-.108-.449-.12-.9-.225-1.347-.333,12.742-2.985,24.741-9.241,27.973-19.968,1.547-5.127,1.216-9.787-.953-13.491-2.225-3.805-6.272-6.454-11.7-7.66-18.643-4.145-30.328,10.019-41.636,23.718-6.016,7.3-12.2,14.766-19.384,19.349a82.1,82.1,0,0,0-10.581,4.122,22.142,22.142,0,0,1-23.523-14.04,15.315,15.315,0,0,1-.949-7.041,8.744,8.744,0,0,1,2.237-2.575c4.628-3.654,12.814-3.843,17.313-6.922,3.062-2.1,6.109-6.651,4.361-10.428a5.323,5.323,0,0,0-5.054-3.113,7.843,7.843,0,0,0-2.581.46c-4.542,1.616-8.946,5.916-11.931,10.3-6.136,6.187-7.911,12.9-5.265,20.021a24.13,24.13,0,0,0,21.186,15.467c-33.6,18.289-48.121,56.446-53.432,75.315-5.315-18.87-19.828-57.026-53.434-75.315a24.127,24.127,0,0,0,21.184-15.467c2.646-7.118.872-13.835-5.265-20.021-2.981-4.385-7.389-8.685-11.929-10.3a7.836,7.836,0,0,0-2.581-.46,5.318,5.318,0,0,0-5.053,3.113c-1.75,3.778,1.3,8.325,4.359,10.428,4.5,3.078,12.687,3.267,17.313,6.922a8.693,8.693,0,0,1,2.237,2.575,15.289,15.289,0,0,1-.949,7.041,22.142,22.142,0,0,1-23.523,14.04,81.894,81.894,0,0,0-10.581-4.122c-7.182-4.582-13.365-12.053-19.384-19.349-11.308-13.7-22.993-27.864-41.633-23.718-5.432,1.206-9.483,3.855-11.708,7.66-2.167,3.7-2.5,8.364-.953,13.491,3.233,10.726,15.233,16.983,27.973,19.968-.448.108-.9.213-1.347.333-1.253.066-2.479.108-3.648.108-25.141,0-29.812-14.778-29.812-14.778-16.934-30.876,27.889-36.853,27.889-36.853a75.675,75.675,0,0,0-14.195-1.431c-16.186,0-30.688,6.241-37.429,23.243-5.523,13.92,6.436,33.35,19.426,39.282a121.123,121.123,0,0,0-18.747,23.041c-1.021,1.577-2.049,3.209-3.092,4.868-6.02,9.555-12.249,19.434-21.2,25.087a22.072,22.072,0,0,1-11.48,3.43,13.524,13.524,0,0,1-9.327-3.325c-3.6-3.3-5.651-9.226-5.744-14.817.425-2.977,1.353-6.071,2.067-9.048.095-.154.176-.332.278-.483l-.141-.1a22.456,22.456,0,0,0,.752-6.577c-.327-4.242-3.1-9.883-7.851-10.312-.207-.015-.412-.031-.613-.031-3.482,0-5.8,2.776-6.411,6.1-.926,5.038.354,10.425,2.21,15.115a137.75,137.75,0,0,0,6.444,12.95c4.151,7.919,8.286,14.55,18.28,14.55a26.28,26.28,0,0,0,13.667-4.079c9.707-6.136,16.47-16.871,22.434-26.34,1.034-1.643,2.053-3.259,3.066-4.818,6.5-10.022,12.938-17.748,19.749-23.76a28.689,28.689,0,0,0,6.535.754,32.1,32.1,0,0,0,3.337-.2c-15.736,10.915-27.683,26.332-37.283,48.04a91.987,91.987,0,0,1-7.294,13.216c-7.181,5.44-16.5,7.3-26.427,6.032-17.711-2.262-34.405-25.887-54.336-12.141-10.728,7.4,4.812,17.508,10.895,21.089a47.8,47.8,0,0,0,37.8,5.089,81.467,81.467,0,0,0,23.48-11.337,66.167,66.167,0,0,0,5.694-4.524,122.33,122.33,0,0,1-35.74,32.874c-11.977,7.038-34.346,15.513-64.614,6.922a100.034,100.034,0,0,0-88.686-146.446,100.551,100.551,0,0,0-65.173,24.2c-8.571,6.082-16.905,14.964-19.962,24-1.99,5.873-.559,12.443,5.531,15.149a11.05,11.05,0,0,0,4.547.955c6.355,0,12.824-5.011,16.114-9.98,6.011-9.071,6.14-25.419,13.3-34.765a18.117,18.117,0,0,1,3.714-3.662c2.063-1.025,4.17-1.953,6.3-2.831a18.494,18.494,0,0,1,2.053-.363c-.59.07-1.182.162-1.775.255A94.043,94.043,0,0,1,347.1,576.554c-.073-.027-.145-.046-.217-.073a33.737,33.737,0,0,1-7.23-6.013c-19.047-21.058-18.657-52.223-42.745-70.552-3.273-2.49-31.542-13.181-32.215-15.192,6.973,20.919,8.611,43.284,22.425,61.306,13.646,17.8,30.589,27.744,49.5,32.855,2.484,1.063,4.965,2.007,7.434,2.888A93.891,93.891,0,0,1,236.119,621.84a55.7,55.7,0,0,0-31.8-101.458c-17.383,0-34.27,9.431-47.562,26.556a87.639,87.639,0,0,0-8.118,13.607,101.774,101.774,0,0,1-6.113,10.75c-6.875,10.015-18.407,21.383-34.348,18.564-8.9-1.558-16.869-8.549-20.577-17.044,3.919-3,7.5-6.183,10.719-9.187,1.86,5.641,5.782,12.234,15.778,12.23h0a23.733,23.733,0,0,0,23.7-23.71,22.213,22.213,0,0,0-7.786-17.339c-6.268-5.4-15.975-7.9-25.327-6.5-16.075,2.394-25.516,15.4-25.263,34.785a30.6,30.6,0,0,0,1.056,7.49c-9.6,6.686-19.786,10.7-31.479,8.746a60.98,60.98,0,0,1-23.289-9.818c-1.948-7.849-.669-17.744-3.352-24.337-1.949-4.791-6.916-10.212-12.47-10.212a8.43,8.43,0,0,0-1.846.2C3,536.29.913,541.062,1.526,545.829Zm315.753,11.94A77.634,77.634,0,0,1,296.6,538.757c-7.061-9.207-10.5-20.343-13.58-32.244,3.008,1.3,5.858,2.575,7,3.194,10.593,8.236,15.376,19.909,20.9,33.408C312.917,547.979,314.936,552.9,317.279,557.77ZM205.719,460.9c-.748,2.436-1.4,4.918-2.036,7.37-1.417,5.425-2.759,10.552-4.858,13.73-2.384,3.6-6.728,6.519-9.688,6.519a3.438,3.438,0,0,1-1.412-.282c-2.635-1.172-1.709-4.613-1.361-5.638C189.091,474.551,197.688,466.083,205.719,460.9Zm209.073,37.828-.141.588c-.191.8-.4,1.62-.611,2.44-.369,1.442-.75,2.923-1.065,4.42-.6-1.241-1.16-2.482-1.659-3.758-1.953-4.918-2.612-9.191-1.972-12.679.076-.41.528-2.455,2.047-2.455.074,0,.141,0,.217.008,1.868.17,3.619,3.546,3.826,6.237A18.99,18.99,0,0,1,414.793,498.729Zm184.723-61.6c-1.222-.4-2.461-.739-3.683-1.075-2.708-.754-5.266-1.462-6.836-2.54-1.939-1.33-3.725-4.13-3.041-5.611a1.451,1.451,0,0,1,1.551-.878,3.868,3.868,0,0,1,1.288.24C592.8,428.684,596.981,433.065,599.515,437.126Zm80.021,0c2.534-4.06,6.711-8.441,10.728-9.864a3.823,3.823,0,0,1,1.284-.24,1.454,1.454,0,0,1,1.553.878c.684,1.481-1.1,4.28-3.043,5.611-1.57,1.079-4.13,1.786-6.838,2.54C682,436.387,680.758,436.727,679.536,437.126Zm184.081,56.4c.207-2.691,1.958-6.067,3.828-6.237.073,0,.141-.008.215-.008,1.522,0,1.972,2.045,2.047,2.455.644,3.488-.019,7.761-1.966,12.679-.5,1.276-1.065,2.517-1.665,3.758-.315-1.5-.7-2.977-1.062-4.42-.213-.82-.421-1.64-.613-2.44l-.143-.588A19.066,19.066,0,0,1,863.617,493.529ZM1073.334,460.9c8.031,5.181,16.627,13.65,19.355,21.7.346,1.025,1.274,4.466-1.363,5.638a3.42,3.42,0,0,1-1.409.282c-2.962,0-7.3-2.919-9.69-6.519-2.1-3.178-3.439-8.305-4.856-13.73C1074.73,465.82,1074.081,463.338,1073.334,460.9ZM961.773,557.77c2.345-4.868,4.362-9.791,6.351-14.655,5.523-13.5,10.307-25.172,20.9-33.408,1.149-.618,4-1.891,7-3.194-3.078,11.9-6.517,23.037-13.58,32.244A77.634,77.634,0,0,1,961.773,557.77Zm298.436,6.747c.2-1.976.309-3.959.423-5.912.245-4.342.483-8.449,1.595-11.175,1.383-3.4,4.686-6.5,6.931-6.5a2.35,2.35,0,0,1,.543.062c2.185.487,2,3.24,1.9,4.072C1270.757,551.6,1265.52,559.351,1260.209,564.517Zm-66.892,2.115c-4.1-3.3-8.126-6.987-12.143-10.8l-3.838-3.634-1.139,5.166c-2.043,9.245-4.984,12.524-11.241,12.524h0a17.759,17.759,0,0,1-17.731-17.736,16.193,16.193,0,0,1,5.711-12.81c4.99-4.3,12.857-6.264,20.546-5.116,18.508,2.753,20.273,21.05,20.166,28.791A23.507,23.507,0,0,1,1193.317,566.632Zm-136.084,56.047a100.161,100.161,0,0,0,32.41-24.1l-2.227-1.987-1.985-2.239a14.984,14.984,0,0,1-16.826,2.668c-7.123-3.19-12.11-10.645-12.126-18.119a25.826,25.826,0,0,1,7.683-18.382,24.383,24.383,0,0,1,17.008-7.374h.006c8.994,0,18.7,4.779,25.344,12.474,9.86,11.426,8.089,27.794,3.577,38.334-5.7,13.313-19.579,21.916-35.361,21.916A49.516,49.516,0,0,1,1057.233,622.679ZM741.91,583.347q-.989.058-1.966.058c-17.535,0-32.53-13.672-39.129-35.678a84.873,84.873,0,0,0-7.923-18.193,25.513,25.513,0,0,1,12.951,6.2c4.969,4.555,8.364,11.155,11.954,18.143,4.094,7.95,8.325,16.178,15.467,22.949A46.659,46.659,0,0,0,741.91,583.347ZM785.226,465.02c-.651-.472-1.317-.913-1.978-1.357,6.927-4.064,10.769-9.435,12.32-13.556,5.79-10.9,5.025-19.357,2.844-25.056a28.8,28.8,0,0,1,6.181,9.713c1.575,3.982.843,9.523-2.009,15.208-3.6,7.161-9.928,13.189-15.4,14.655A19.208,19.208,0,0,1,785.226,465.02Zm-72.047-3.364c5.6-4.605,10.6-10.653,15.488-16.584,11.428-13.843,22.21-26.92,39.668-23.045,4.876,1.09,8.476,3.41,10.417,6.728,1.879,3.209,2.144,7.331.764,11.909-3.821,12.691-20.3,17.605-31.15,19.492-1.514-.244-3.035-.449-4.57-.577A96.385,96.385,0,0,0,713.178,461.656ZM537.142,583.347a46.75,46.75,0,0,0,8.648-6.519c7.142-6.771,11.372-15,15.465-22.949,3.59-6.987,6.987-13.588,11.956-18.143a25.513,25.513,0,0,1,12.951-6.2,84.784,84.784,0,0,0-7.925,18.193c-6.6,22.006-21.589,35.678-39.125,35.678C538.457,583.406,537.805,583.386,537.142,583.347ZM495.8,463.662c-.661.445-1.326.885-1.978,1.357a19.358,19.358,0,0,1-1.962-.394c-5.467-1.466-11.8-7.494-15.389-14.655-2.856-5.684-3.586-11.225-2.009-15.208a28.724,28.724,0,0,1,6.175-9.713c-2.181,5.7-2.943,14.156,2.844,25.056C485.04,454.228,488.876,459.6,495.8,463.662Zm39.455-4.083c-1.537.128-3.057.333-4.57.577-10.852-1.887-27.33-6.8-31.152-19.492-1.38-4.578-1.115-8.7.764-11.909,1.941-3.318,5.547-5.638,10.419-6.728,17.456-3.874,28.239,9.2,39.666,23.045,4.892,5.931,9.887,11.979,15.49,16.584A96.393,96.393,0,0,0,535.259,459.579Zm-313.441,163.1a49.512,49.512,0,0,1-17.5,3.186c-15.784,0-29.667-8.6-35.365-21.916-4.512-10.541-6.283-26.908,3.577-38.334,6.639-7.694,16.35-12.474,25.348-12.474h0a24.384,24.384,0,0,1,17.01,7.374,25.832,25.832,0,0,1,7.681,18.382c-.015,7.474-5,14.929-12.124,18.119a14.987,14.987,0,0,1-16.828-2.668l-1.98,2.239-2.233,1.987A100.167,100.167,0,0,0,221.818,622.679ZM85.4,563.013c-.1-7.741,1.659-26.038,20.166-28.791,7.693-1.148,15.56.816,20.546,5.116a16.194,16.194,0,0,1,5.713,12.81A17.757,17.757,0,0,1,114.1,569.884h0c-6.26,0-9.2-3.279-11.242-12.524l-1.139-5.166-3.836,3.634c-4.019,3.817-8.044,7.506-12.147,10.8A23.806,23.806,0,0,1,85.4,563.013ZM9.35,541a2.353,2.353,0,0,1,.543-.062c2.245,0,5.551,3.094,6.933,6.5,1.114,2.726,1.346,6.832,1.6,11.175.112,1.953.224,3.937.419,5.912C13.534,559.351,8.294,551.6,7.455,545.068,7.347,544.236,7.167,541.483,9.35,541Z" transform="translate(-1.422 -408.585)"/></svg>