<svg id="Layer_1" width="1000" height="800" data-name="Layer 1" xmlns="http://www.w3.org/2000/svg" viewBox="0 0 712.437 674.3"><defs><style>.cls-1{fill:#fff;}</style></defs><title>Contact</title><path class="cls-1" d="M849.659,737.73l-120.1-80.066a12.369,12.369,0,0,0-16.543,2.685l-34.969,44.958a37.488,37.488,0,0,1-48.037,9.9l-6.465-3.55c-23.325-12.725-52.364-28.556-110.008-86.2s-73.487-86.683-86.2-110.02l-3.563-6.465a37.474,37.474,0,0,1,9.9-48.024l44.945-34.981a12.356,12.356,0,0,0,2.685-16.543L401.254,289.313a12.306,12.306,0,0,0-16.543-3.729L334.46,315.716a48.348,48.348,0,0,0-22.128,28.517c-16.5,60.1-2.621,165.336,157.217,325.188s265.05,173.76,325.2,157.243a48.352,48.352,0,0,0,28.517-22.142l30.12-50.251A12.289,12.289,0,0,0,849.659,737.73Z" transform="translate(-307 -157.7)"/><path class="cls-1" d="M1017.408,159.727a6.922,6.922,0,0,0-4.971-2.026H479.259a6.92,6.92,0,0,0-7,7V349.949L502.495,395.3a37.9,37.9,0,0,1-8.232,50.748L449.356,481.03a12.14,12.14,0,0,0-3.283,15.551l3.665,6.681A320.858,320.858,0,0,0,492.2,565.156h520.236a6.949,6.949,0,0,0,7-6.846V164.7A6.917,6.917,0,0,0,1017.408,159.727ZM655.87,391.152v-.064L525.515,530.745A12.726,12.726,0,1,1,506.9,513.389L637.253,373.8a12.726,12.726,0,0,1,18.617,17.356Zm89.978-10.027a42.178,42.178,0,0,1-25.45-8.4L507.713,211.45a12.749,12.749,0,1,1,15.449-20.284l212.6,161.277a17.169,17.169,0,0,0,20.182,0L968.6,191.166a12.729,12.729,0,1,1,15.385,20.284L771.3,372.727A42.175,42.175,0,0,1,745.848,381.125ZM984.977,531.37a12.726,12.726,0,0,1-17.993-.624L836.642,391.089A12.725,12.725,0,0,1,855.284,373.8L985.6,513.389A12.726,12.726,0,0,1,984.977,531.37Z" transform="translate(-307 -157.7)"/></svg>
