<svg id="Layer_1" data-name="Layer 1" width="1000" height="1000" xmlns="http://www.w3.org/2000/svg" viewBox="0 0 661 379.258"><defs><style>.cls-1{fill:#fff;}</style></defs><title>TimeLine</title><path class="cls-1" d="M743.359,317.782v36.74L715.74,377.041l27.619,22.519V436.3H1015V317.782Zm201.99,85.185H785.15V380.745h160.2Zm34.826-29.63H785.15V351.115H980.174Z" transform="translate(-354 -317.782)"/><path class="cls-1" d="M625.641,566.67V529.93l27.619-22.519-27.619-22.519v-36.74H354V566.67Zm-201.99-85.185h160.2v22.222h-160.2Zm-34.826,29.63H583.85v22.222H388.826Z" transform="translate(-354 -317.782)"/><path class="cls-1" d="M743.359,578.522v36.74L715.74,637.781,743.359,660.3v36.74H1015V578.522Zm201.99,85.185H785.15V641.484h160.2Zm34.826-29.63H785.15V611.855H980.174Z" transform="translate(-354 -317.782)"/><path class="cls-1" d="M714,507.411a29.671,29.671,0,0,0-18.518-27.46V404.5a29.619,29.619,0,0,0,0-54.92v-31.8H673.26v31.8a29.619,29.619,0,0,0,0,54.92v75.45a29.619,29.619,0,0,0,0,54.92v75.45a29.619,29.619,0,0,0,0,54.92v31.8h22.222v-31.8a29.619,29.619,0,0,0,0-54.92v-75.45A29.671,29.671,0,0,0,714,507.411Zm-29.63,137.777a7.407,7.407,0,1,1,7.407-7.407A7.416,7.416,0,0,1,684.371,645.188Zm0-130.37a7.407,7.407,0,1,1,7.407-7.407A7.416,7.416,0,0,1,684.371,514.818Zm0-130.37a7.407,7.407,0,1,1,7.407-7.407A7.416,7.416,0,0,1,684.371,384.448Z" transform="translate(-354 -317.782)"/></svg>
